u2194_random 4.ufo
<glyph name="exclam" format="1">
  <advance width="376"/>
  <unicode hex="0021"/>
  <outline>
    <contour>
      <point x="188" y="-137" type="curve" smooth="yes"/>
      <point x="263" y="-137"/>
      <point x="326" y="-74"/>
      <point x="326" y="1" type="curve" smooth="yes"/>
      <point x="326" y="18" type="line" smooth="yes"/>
      <point x="326" y="53"/>
      <point x="312" y="85"/>
      <point x="290" y="109" type="curve"/>
      <point x="312" y="134"/>
      <point x="326" y="166"/>
      <point x="326" y="201" type="curve" smooth="yes"/>
      <point x="326" y="801" type="line" smooth="yes"/>
      <point x="326" y="876"/>
      <point x="263" y="939"/>
      <point x="188" y="939" type="curve" smooth="yes"/>
      <point x="113" y="939"/>
      <point x="50" y="876"/>
      <point x="50" y="801" type="curve" smooth="yes"/>
      <point x="50" y="201" type="line" smooth="yes"/>
      <point x="50" y="166"/>
      <point x="64" y="134"/>
      <point x="86" y="110" type="curve"/>
      <point x="64" y="85"/>
      <point x="50" y="53"/>
      <point x="50" y="18" type="curve" smooth="yes"/>
      <point x="50" y="1" type="line" smooth="yes"/>
      <point x="50" y="-74"/>
      <point x="113" y="-137"/>
    </contour>
  </outline>
</glyph>
<glyph name="numbersign" format="1">
  <advance width="958"/>
  <unicode hex="0023"/>
  <outline>
    <contour>
      <point x="604" y="-32" type="curve" smooth="yes"/>
      <point x="630" y="70" type="line"/>
      <point x="679" y="70" type="line" smooth="yes"/>
      <point x="749" y="70"/>
      <point x="808" y="129"/>
      <point x="808" y="199" type="curve" smooth="yes"/>
      <point x="808" y="264"/>
      <point x="757" y="319"/>
      <point x="694" y="327" type="curve"/>
      <point x="730" y="470" type="line"/>
      <point x="779" y="470" type="line" smooth="yes"/>
      <point x="849" y="470"/>
      <point x="908" y="529"/>
      <point x="908" y="599" type="curve" smooth="yes"/>
      <point x="908" y="664"/>
      <point x="857" y="719"/>
      <point x="794" y="727" type="curve"/>
      <point x="804" y="768" type="line" smooth="yes"/>
      <point x="821" y="835"/>
      <point x="778" y="907"/>
      <point x="710" y="924" type="curve" smooth="yes"/>
      <point x="661" y="936"/>
      <point x="610" y="917"/>
      <point x="579" y="879" type="curve"/>
      <point x="562" y="901"/>
      <point x="538" y="917"/>
      <point x="510" y="924" type="curve" smooth="yes"/>
      <point x="443" y="941"/>
      <point x="371" y="898"/>
      <point x="354" y="830" type="curve" smooth="yes"/>
      <point x="328" y="728" type="line"/>
      <point x="273" y="728" type="line" smooth="yes"/>
      <point x="203" y="728"/>
      <point x="144" y="669"/>
      <point x="144" y="599" type="curve" smooth="yes"/>
      <point x="144" y="532"/>
      <point x="198" y="475"/>
      <point x="264" y="470" type="curve"/>
      <point x="228" y="328" type="line"/>
      <point x="179" y="328" type="line" smooth="yes"/>
      <point x="109" y="328"/>
      <point x="50" y="269"/>
      <point x="50" y="199" type="curve" smooth="yes"/>
      <point x="50" y="134"/>
      <point x="101" y="79"/>
      <point x="164" y="71" type="curve"/>
      <point x="154" y="30" type="line" smooth="yes"/>
      <point x="137" y="-37"/>
      <point x="180" y="-109"/>
      <point x="248" y="-126" type="curve" smooth="yes"/>
      <point x="297" y="-138"/>
      <point x="348" y="-119"/>
      <point x="379" y="-81" type="curve"/>
      <point x="396" y="-103"/>
      <point x="420" y="-119"/>
      <point x="448" y="-126" type="curve" smooth="yes"/>
      <point x="515" y="-143"/>
      <point x="587" y="-100"/>
    </contour>
  </outline>
</glyph>
<glyph name="dollar" format="1">
  <advance width="833"/>
  <unicode hex="0024"/>
  <outline>
    <contour>
      <point x="351" y="466" type="line"/>
      <point x="289" y="467" type="line"/>
      <point x="194" y="587" type="line"/>
      <point x="264" y="723" type="line"/>
      <point x="351" y="728" type="line"/>
    </contour>
    <contour>
      <point x="483" y="73" type="line"/>
      <point x="483" y="329" type="line"/>
      <point x="633" y="262" type="line"/>
      <point x="627" y="119" type="line"/>
    </contour>
    <contour>
      <point x="465" y="-67" type="line" smooth="yes"/>
      <point x="471" y="-67"/>
      <point x="481" y="-66"/>
      <point x="487" y="-64" type="curve" smooth="yes"/>
      <point x="711" y="7" type="line" smooth="yes"/>
      <point x="735" y="15"/>
      <point x="756" y="42"/>
      <point x="757" y="67" type="curve" smooth="yes"/>
      <point x="767" y="301" type="line" smooth="yes"/>
      <point x="768" y="326"/>
      <point x="751" y="354"/>
      <point x="728" y="364" type="curve" smooth="yes"/>
      <point x="514" y="459" type="line" smooth="yes"/>
      <point x="507" y="462"/>
      <point x="495" y="465"/>
      <point x="487" y="465" type="curve" smooth="yes"/>
      <point x="483" y="465" type="line"/>
      <point x="483" y="724" type="line"/>
      <point x="625" y="689" type="line"/>
      <point x="653" y="582" type="line" smooth="yes"/>
      <point x="662" y="548"/>
      <point x="700" y="526"/>
      <point x="734" y="535" type="curve" smooth="yes"/>
      <point x="768" y="544"/>
      <point x="790" y="582"/>
      <point x="781" y="616" type="curve" smooth="yes"/>
      <point x="742" y="761" type="line" smooth="yes"/>
      <point x="737" y="781"/>
      <point x="715" y="803"/>
      <point x="694" y="808" type="curve" smooth="yes"/>
      <point x="471" y="863" type="line" smooth="yes"/>
      <point x="465" y="864"/>
      <point x="457" y="865"/>
      <point x="451" y="865" type="curve" smooth="yes"/>
      <point x="429" y="864" type="line"/>
      <point x="425" y="865"/>
      <point x="421" y="865"/>
      <point x="417" y="865" type="curve" smooth="yes"/>
      <point x="411" y="865"/>
      <point x="404" y="864"/>
      <point x="399" y="862" type="curve"/>
      <point x="219" y="853" type="line" smooth="yes"/>
      <point x="198" y="852"/>
      <point x="173" y="836"/>
      <point x="164" y="817" type="curve" smooth="yes"/>
      <point x="58" y="609" type="line" smooth="yes"/>
      <point x="47" y="588"/>
      <point x="50" y="557"/>
      <point x="65" y="538" type="curve" smooth="yes"/>
      <point x="205" y="360" type="line" smooth="yes"/>
      <point x="216" y="347"/>
      <point x="239" y="335"/>
      <point x="256" y="335" type="curve" smooth="yes"/>
      <point x="351" y="334" type="line"/>
      <point x="351" y="68" type="line"/>
      <point x="277" y="69" type="line"/>
      <point x="172" y="235" type="line" smooth="yes"/>
      <point x="152" y="265"/>
      <point x="110" y="274"/>
      <point x="80" y="255" type="curve" smooth="yes"/>
      <point x="50" y="235"/>
      <point x="41" y="193"/>
      <point x="60" y="163" type="curve" smooth="yes"/>
      <point x="185" y="-31" type="line" smooth="yes"/>
      <point x="196" y="-48"/>
      <point x="220" y="-61"/>
      <point x="239" y="-62" type="curve" smooth="yes"/>
      <point x="404" y="-66" type="line"/>
      <point x="408" y="-67"/>
      <point x="413" y="-67"/>
      <point x="417" y="-67" type="curve" smooth="yes"/>
      <point x="420" y="-67"/>
      <point x="424" y="-67"/>
      <point x="427" y="-66" type="curve"/>
    </contour>
  </outline>
</glyph>
<glyph name="percent" format="1">
  <advance width="781"/>
  <unicode hex="0025"/>
  <outline>
    <contour>
      <point x="291" y="840" type="curve" smooth="yes"/>
      <point x="269" y="840"/>
      <point x="250" y="821"/>
      <point x="250" y="799" type="curve" smooth="yes"/>
      <point x="250" y="789" type="line" smooth="yes"/>
      <point x="250" y="767"/>
      <point x="269" y="748"/>
      <point x="291" y="748" type="curve" smooth="yes"/>
      <point x="313" y="748"/>
      <point x="332" y="767"/>
      <point x="332" y="789" type="curve" smooth="yes"/>
      <point x="332" y="799" type="line" smooth="yes"/>
      <point x="332" y="821"/>
      <point x="313" y="840"/>
    </contour>
    <contour>
      <point x="124" y="-26" type="curve" smooth="yes"/>
      <point x="724" y="774" type="line" smooth="yes"/>
      <point x="737" y="792"/>
      <point x="733" y="819"/>
      <point x="716" y="832" type="curve" smooth="yes"/>
      <point x="698" y="845"/>
      <point x="671" y="841"/>
      <point x="658" y="824" type="curve" smooth="yes"/>
      <point x="58" y="24" type="line" smooth="yes"/>
      <point x="45" y="6"/>
      <point x="49" y="-21"/>
      <point x="66" y="-34" type="curve" smooth="yes"/>
      <point x="84" y="-47"/>
      <point x="111" y="-43"/>
    </contour>
    <contour>
      <point x="491" y="-42" type="curve" smooth="yes"/>
      <point x="513" y="-42"/>
      <point x="532" y="-23"/>
      <point x="532" y="-1" type="curve" smooth="yes"/>
      <point x="532" y="9" type="line" smooth="yes"/>
      <point x="532" y="31"/>
      <point x="513" y="50"/>
      <point x="491" y="50" type="curve" smooth="yes"/>
      <point x="469" y="50"/>
      <point x="450" y="31"/>
      <point x="450" y="9" type="curve" smooth="yes"/>
      <point x="450" y="-1" type="line" smooth="yes"/>
      <point x="450" y="-23"/>
      <point x="469" y="-42"/>
    </contour>
  </outline>
</glyph>
<glyph name="ampersand" format="1">
  <advance width="755"/>
  <unicode hex="0026"/>
  <outline>
    <contour>
      <point x="655" y="-100" type="curve" smooth="yes"/>
      <point x="709" y="-59"/>
      <point x="721" y="22"/>
      <point x="680" y="77" type="curve" smooth="yes"/>
      <point x="532" y="274" type="line"/>
      <point x="578" y="274" type="line" smooth="yes"/>
      <point x="646" y="274"/>
      <point x="704" y="332"/>
      <point x="704" y="400" type="curve" smooth="yes"/>
      <point x="704" y="468"/>
      <point x="646" y="526"/>
      <point x="578" y="526" type="curve" smooth="yes"/>
      <point x="396" y="526" type="line"/>
      <point x="518" y="738" type="line" smooth="yes"/>
      <point x="601" y="883"/>
      <point x="382" y="1009"/>
      <point x="299" y="864" type="curve" smooth="yes"/>
      <point x="69" y="464" type="line" smooth="yes"/>
      <point x="64" y="455"/>
      <point x="60" y="446"/>
      <point x="57" y="436" type="curve"/>
      <point x="29" y="354"/>
      <point x="84" y="275"/>
      <point x="179" y="275" type="curve" smooth="yes"/>
      <point x="216" y="275" type="line"/>
      <point x="478" y="-75" type="line" smooth="yes"/>
      <point x="519" y="-129"/>
      <point x="600" y="-141"/>
    </contour>
  </outline>
</glyph>
<glyph name="asterisk" format="1">
  <advance width="725"/>
  <unicode hex="002A"/>
  <outline>
    <contour>
      <point x="280" y="205" type="curve" smooth="yes"/>
      <point x="394" y="272" type="line"/>
      <point x="423" y="234" type="line" smooth="yes"/>
      <point x="459" y="185"/>
      <point x="532" y="175"/>
      <point x="581" y="212" type="curve" smooth="yes"/>
      <point x="630" y="248"/>
      <point x="640" y="321"/>
      <point x="603" y="370" type="curve" smooth="yes"/>
      <point x="590" y="387" type="line"/>
      <point x="620" y="405" type="line" smooth="yes"/>
      <point x="673" y="436"/>
      <point x="691" y="507"/>
      <point x="660" y="559" type="curve" smooth="yes"/>
      <point x="629" y="612"/>
      <point x="558" y="630"/>
      <point x="506" y="599" type="curve" smooth="yes"/>
      <point x="476" y="582" type="line"/>
      <point x="476" y="702" type="line" smooth="yes"/>
      <point x="476" y="763"/>
      <point x="424" y="815"/>
      <point x="363" y="815" type="curve" smooth="yes"/>
      <point x="302" y="815"/>
      <point x="250" y="763"/>
      <point x="250" y="702" type="curve" smooth="yes"/>
      <point x="250" y="629" type="line"/>
      <point x="198" y="615" type="line"/>
      <point x="163" y="615" type="line" smooth="yes"/>
      <point x="102" y="615"/>
      <point x="50" y="563"/>
      <point x="50" y="502" type="curve" smooth="yes"/>
      <point x="50" y="445"/>
      <point x="96" y="395"/>
      <point x="152" y="390" type="curve"/>
      <point x="110" y="355"/>
      <point x="98" y="292"/>
      <point x="126" y="245" type="curve" smooth="yes"/>
      <point x="157" y="192"/>
      <point x="228" y="174"/>
    </contour>
  </outline>
</glyph>
<glyph name="plus" format="1">
  <advance width="604"/>
  <unicode hex="002B"/>
  <outline>
    <contour>
      <point x="302" y="70" type="curve" smooth="yes"/>
      <point x="330" y="70"/>
      <point x="354" y="94"/>
      <point x="354" y="122" type="curve" smooth="yes"/>
      <point x="354" y="270" type="line"/>
      <point x="502" y="270" type="line" smooth="yes"/>
      <point x="530" y="270"/>
      <point x="554" y="294"/>
      <point x="554" y="322" type="curve" smooth="yes"/>
      <point x="554" y="350"/>
      <point x="530" y="374"/>
      <point x="502" y="374" type="curve" smooth="yes"/>
      <point x="354" y="374" type="line"/>
      <point x="354" y="522" type="line" smooth="yes"/>
      <point x="354" y="550"/>
      <point x="330" y="574"/>
      <point x="302" y="574" type="curve" smooth="yes"/>
      <point x="274" y="574"/>
      <point x="250" y="550"/>
      <point x="250" y="522" type="curve" smooth="yes"/>
      <point x="250" y="374" type="line"/>
      <point x="102" y="374" type="line" smooth="yes"/>
      <point x="74" y="374"/>
      <point x="50" y="350"/>
      <point x="50" y="322" type="curve" smooth="yes"/>
      <point x="50" y="294"/>
      <point x="74" y="270"/>
      <point x="102" y="270" type="curve" smooth="yes"/>
      <point x="250" y="270" type="line"/>
      <point x="250" y="122" type="line" smooth="yes"/>
      <point x="250" y="94"/>
      <point x="274" y="70"/>
    </contour>
  </outline>
</glyph>
<glyph name="comma" format="1">
  <advance width="459"/>
  <unicode hex="002C"/>
  <outline>
    <contour>
      <point x="246" y="-169" type="curve" smooth="yes"/>
      <point x="346" y="-109" type="line" smooth="yes"/>
      <point x="381" y="-89"/>
      <point x="409" y="-39"/>
      <point x="409" y="2" type="curve" smooth="yes"/>
      <point x="409" y="142" type="line" smooth="yes"/>
      <point x="409" y="212"/>
      <point x="349" y="272"/>
      <point x="279" y="272" type="curve" smooth="yes"/>
      <point x="209" y="272"/>
      <point x="149" y="212"/>
      <point x="149" y="142" type="curve" smooth="yes"/>
      <point x="149" y="76" type="line"/>
      <point x="112" y="53" type="line" smooth="yes"/>
      <point x="52" y="17"/>
      <point x="31" y="-65"/>
      <point x="68" y="-125" type="curve" smooth="yes"/>
      <point x="104" y="-185"/>
      <point x="186" y="-206"/>
    </contour>
  </outline>
</glyph>
<glyph name="hyphen" format="1">
  <advance width="530"/>
  <unicode hex="002D"/>
  <outline>
    <contour>
      <point x="50" y="296" type="curve" smooth="yes"/>
      <point x="50" y="234"/>
      <point x="103" y="181"/>
      <point x="165" y="181" type="curve" smooth="yes"/>
      <point x="365" y="181" type="line" smooth="yes"/>
      <point x="427" y="181"/>
      <point x="480" y="234"/>
      <point x="480" y="296" type="curve" smooth="yes"/>
      <point x="480" y="358"/>
      <point x="427" y="411"/>
      <point x="365" y="411" type="curve" smooth="yes"/>
      <point x="165" y="411" type="line" smooth="yes"/>
      <point x="103" y="411"/>
      <point x="50" y="358"/>
    </contour>
  </outline>
</glyph>
<glyph name="period" format="1">
  <advance width="368"/>
  <unicode hex="002E"/>
  <outline>
    <contour>
      <point x="184" y="144" type="curve" smooth="yes"/>
      <point x="112" y="144"/>
      <point x="50" y="82"/>
      <point x="50" y="10" type="curve" smooth="yes"/>
      <point x="50" y="0" type="line" smooth="yes"/>
      <point x="50" y="-72"/>
      <point x="112" y="-134"/>
      <point x="184" y="-134" type="curve" smooth="yes"/>
      <point x="256" y="-134"/>
      <point x="318" y="-72"/>
      <point x="318" y="0" type="curve" smooth="yes"/>
      <point x="318" y="10" type="line" smooth="yes"/>
      <point x="318" y="82"/>
      <point x="256" y="144"/>
    </contour>
  </outline>
</glyph>
<glyph name="slash" format="1">
  <advance width="917"/>
  <unicode hex="002F"/>
  <outline>
    <contour>
      <point x="245" y="-63" type="curve" smooth="yes"/>
      <point x="845" y="737" type="line" smooth="yes"/>
      <point x="881" y="784"/>
      <point x="870" y="854"/>
      <point x="823" y="889" type="curve" smooth="yes"/>
      <point x="776" y="925"/>
      <point x="706" y="914"/>
      <point x="671" y="867" type="curve" smooth="yes"/>
      <point x="71" y="67" type="line" smooth="yes"/>
      <point x="35" y="20"/>
      <point x="46" y="-50"/>
      <point x="93" y="-85" type="curve" smooth="yes"/>
      <point x="140" y="-121"/>
      <point x="210" y="-110"/>
    </contour>
  </outline>
</glyph>
<glyph name="zero" format="1">
  <advance width="818"/>
  <unicode hex="0030"/>
  <outline>
    <contour>
      <point x="310" y="-57" type="curve" smooth="yes"/>
      <point x="562" y="-54" type="line" smooth="yes"/>
      <point x="578" y="-54"/>
      <point x="599" y="-43"/>
      <point x="609" y="-30" type="curve" smooth="yes"/>
      <point x="756" y="167" type="line" smooth="yes"/>
      <point x="763" y="175"/>
      <point x="768" y="191"/>
      <point x="768" y="202" type="curve" smooth="yes"/>
      <point x="768" y="452" type="line" smooth="yes"/>
      <point x="768" y="454"/>
      <point x="768" y="456"/>
      <point x="768" y="458" type="curve" smooth="yes"/>
      <point x="742" y="708" type="line" smooth="yes"/>
      <point x="741" y="722"/>
      <point x="732" y="738"/>
      <point x="720" y="748" type="curve"/>
      <point x="717" y="761"/>
      <point x="710" y="773"/>
      <point x="699" y="781" type="curve" smooth="yes"/>
      <point x="681" y="794"/>
      <point x="657" y="796"/>
      <point x="638" y="787" type="curve"/>
      <point x="481" y="856" type="line" smooth="yes"/>
      <point x="474" y="859"/>
      <point x="462" y="861"/>
      <point x="454" y="861" type="curve" smooth="yes"/>
      <point x="213" y="849" type="line" smooth="yes"/>
      <point x="193" y="848"/>
      <point x="170" y="833"/>
      <point x="162" y="815" type="curve" smooth="yes"/>
      <point x="56" y="587" type="line" smooth="yes"/>
      <point x="52" y="580"/>
      <point x="50" y="569"/>
      <point x="50" y="562" type="curve" smooth="yes"/>
      <point x="50" y="312" type="line" smooth="yes"/>
      <point x="50" y="310"/>
      <point x="50" y="306"/>
      <point x="51" y="304" type="curve" smooth="yes"/>
      <point x="83" y="57" type="line" smooth="yes"/>
      <point x="85" y="46"/>
      <point x="91" y="34"/>
      <point x="99" y="25" type="curve"/>
      <point x="103" y="19"/>
      <point x="107" y="13"/>
      <point x="113" y="9" type="curve" smooth="yes"/>
      <point x="125" y="0"/>
      <point x="139" y="-3"/>
      <point x="153" y="-2" type="curve"/>
      <point x="283" y="-50" type="line"/>
      <point x="291" y="-55"/>
      <point x="300" y="-57"/>
    </contour>
    <contour>
      <point x="289" y="339" type="line"/>
      <point x="183" y="199" type="line"/>
      <point x="168" y="316" type="line"/>
      <point x="168" y="549" type="line"/>
      <point x="254" y="733" type="line"/>
      <point x="446" y="742" type="line"/>
      <point x="558" y="693" type="line"/>
    </contour>
    <contour>
      <point x="383" y="268" type="line"/>
      <point x="635" y="599" type="line"/>
      <point x="650" y="449" type="line"/>
      <point x="650" y="222" type="line"/>
      <point x="532" y="64" type="line"/>
      <point x="321" y="61" type="line"/>
      <point x="248" y="88" type="line"/>
    </contour>
  </outline>
</glyph>
<glyph name="one" format="1">
  <advance width="998"/>
  <unicode hex="0031"/>
  <outline>
    <contour>
      <point x="199" y="-148" type="curve" smooth="yes"/>
      <point x="799" y="-148" type="line" smooth="yes"/>
      <point x="879" y="-148"/>
      <point x="948" y="-79"/>
      <point x="948" y="1" type="curve" smooth="yes"/>
      <point x="948" y="81"/>
      <point x="879" y="150"/>
      <point x="799" y="150" type="curve" smooth="yes"/>
      <point x="643" y="150" type="line"/>
      <point x="648" y="378" type="line"/>
      <point x="648" y="621" type="line" smooth="yes"/>
      <point x="648" y="710"/>
      <point x="575" y="777"/>
      <point x="487" y="769" type="curve" smooth="yes"/>
      <point x="247" y="749" type="line"/>
      <point x="199" y="750" type="line" smooth="yes"/>
      <point x="119" y="750"/>
      <point x="50" y="681"/>
      <point x="50" y="601" type="curve" smooth="yes"/>
      <point x="50" y="521"/>
      <point x="119" y="452"/>
      <point x="199" y="452" type="curve" smooth="yes"/>
      <point x="271" y="453" type="line"/>
      <point x="350" y="459" type="line"/>
      <point x="350" y="384" type="line"/>
      <point x="346" y="215" type="line"/>
      <point x="252" y="150" type="line"/>
      <point x="199" y="150" type="line" smooth="yes"/>
      <point x="119" y="150"/>
      <point x="50" y="81"/>
      <point x="50" y="1" type="curve" smooth="yes"/>
      <point x="50" y="-79"/>
      <point x="119" y="-148"/>
    </contour>
  </outline>
</glyph>
<glyph name="two" format="1">
  <advance width="902"/>
  <unicode hex="0032"/>
  <outline>
    <contour>
      <point x="201" y="-101" type="curve" smooth="yes"/>
      <point x="751" y="-101" type="line" smooth="yes"/>
      <point x="806" y="-101"/>
      <point x="852" y="-55"/>
      <point x="852" y="0" type="curve" smooth="yes"/>
      <point x="852" y="55"/>
      <point x="806" y="101"/>
      <point x="751" y="101" type="curve" smooth="yes"/>
      <point x="438" y="101" type="line"/>
      <point x="659" y="331" type="line" smooth="yes"/>
      <point x="711" y="384"/>
      <point x="696" y="461"/>
      <point x="629" y="492" type="curve" smooth="yes"/>
      <point x="193" y="692" type="line" smooth="yes"/>
      <point x="143" y="715"/>
      <point x="82" y="692"/>
      <point x="59" y="642" type="curve" smooth="yes"/>
      <point x="36" y="592"/>
      <point x="59" y="531"/>
      <point x="109" y="508" type="curve" smooth="yes"/>
      <point x="415" y="368" type="line"/>
      <point x="128" y="70" type="line" smooth="yes"/>
      <point x="61" y="0"/>
      <point x="104" y="-101"/>
    </contour>
  </outline>
</glyph>
<glyph name="three" format="1">
  <advance width="837"/>
  <unicode hex="0033"/>
  <outline>
    <contour>
      <point x="244" y="-47" type="curve" smooth="yes"/>
      <point x="746" y="173" type="line" smooth="yes"/>
      <point x="773" y="185"/>
      <point x="791" y="218"/>
      <point x="787" y="246" type="curve" smooth="yes"/>
      <point x="710" y="789" type="line" smooth="yes"/>
      <point x="704" y="833"/>
      <point x="662" y="859"/>
      <point x="620" y="844" type="curve" smooth="yes"/>
      <point x="97" y="666" type="line" smooth="yes"/>
      <point x="61" y="654"/>
      <point x="42" y="614"/>
      <point x="54" y="579" type="curve" smooth="yes"/>
      <point x="66" y="543"/>
      <point x="106" y="524"/>
      <point x="141" y="536" type="curve" smooth="yes"/>
      <point x="585" y="687" type="line"/>
      <point x="643" y="279" type="line"/>
      <point x="247" y="106" type="line"/>
      <point x="180" y="233" type="line" smooth="yes"/>
      <point x="163" y="266"/>
      <point x="120" y="279"/>
      <point x="87" y="262" type="curve" smooth="yes"/>
      <point x="54" y="245"/>
      <point x="41" y="202"/>
      <point x="58" y="169" type="curve" smooth="yes"/>
      <point x="155" y="-16" type="line" smooth="yes"/>
      <point x="171" y="-47"/>
      <point x="211" y="-61"/>
    </contour>
  </outline>
</glyph>
<glyph name="four" format="1">
  <advance width="786"/>
  <unicode hex="0034"/>
  <outline>
    <contour>
      <point x="633" y="-102" type="curve" smooth="yes"/>
      <point x="689" y="-102"/>
      <point x="736" y="-55"/>
      <point x="736" y="1" type="curve" smooth="yes"/>
      <point x="736" y="600" type="line" smooth="yes"/>
      <point x="736" y="656"/>
      <point x="689" y="703"/>
      <point x="633" y="703" type="curve" smooth="yes"/>
      <point x="577" y="703"/>
      <point x="530" y="656"/>
      <point x="530" y="600" type="curve" smooth="yes"/>
      <point x="530" y="255" type="line"/>
      <point x="283" y="358" type="line"/>
      <point x="421" y="747" type="line"/>
      <point x="450" y="795"/>
      <point x="434" y="860"/>
      <point x="386" y="888" type="curve" smooth="yes"/>
      <point x="338" y="917"/>
      <point x="273" y="901"/>
      <point x="245" y="853" type="curve" smooth="yes"/>
      <point x="240" y="844" type="line" smooth="yes"/>
      <point x="237" y="840"/>
      <point x="233" y="831"/>
      <point x="231" y="826" type="curve" smooth="yes"/>
      <point x="56" y="335" type="line" smooth="yes"/>
      <point x="38" y="284"/>
      <point x="64" y="226"/>
      <point x="113" y="205" type="curve" smooth="yes"/>
      <point x="530" y="31" type="line"/>
      <point x="530" y="1" type="line" smooth="yes"/>
      <point x="530" y="-55"/>
      <point x="577" y="-102"/>
    </contour>
  </outline>
</glyph>
<glyph name="five" format="1">
  <advance width="947"/>
  <unicode hex="0035"/>
  <outline>
    <contour>
      <point x="594" y="-112" type="curve" smooth="yes"/>
      <point x="809" y="-15" type="line" smooth="yes"/>
      <point x="851" y="4"/>
      <point x="883" y="57"/>
      <point x="881" y="104" type="curve" smooth="yes"/>
      <point x="870" y="337" type="line" smooth="yes"/>
      <point x="868" y="385"/>
      <point x="829" y="435"/>
      <point x="783" y="450" type="curve" smooth="yes"/>
      <point x="560" y="519" type="line" smooth="yes"/>
      <point x="550" y="522"/>
      <point x="533" y="525"/>
      <point x="523" y="525" type="curve" smooth="yes"/>
      <point x="359" y="525" type="line"/>
      <point x="320" y="599" type="line"/>
      <point x="382" y="675" type="line"/>
      <point x="565" y="677" type="line"/>
      <point x="773" y="677" type="line" smooth="yes"/>
      <point x="840" y="677"/>
      <point x="897" y="734"/>
      <point x="897" y="801" type="curve" smooth="yes"/>
      <point x="897" y="868"/>
      <point x="840" y="925"/>
      <point x="773" y="925" type="curve" smooth="yes"/>
      <point x="561" y="925" type="line"/>
      <point x="321" y="922" type="line" smooth="yes"/>
      <point x="289" y="922"/>
      <point x="247" y="901"/>
      <point x="227" y="876" type="curve" smooth="yes"/>
      <point x="77" y="693" type="line" smooth="yes"/>
      <point x="49" y="658"/>
      <point x="42" y="598"/>
      <point x="63" y="558" type="curve" smooth="yes"/>
      <point x="173" y="344" type="line" smooth="yes"/>
      <point x="177" y="337"/>
      <point x="181" y="330"/>
      <point x="187" y="323" type="curve"/>
      <point x="158" y="327"/>
      <point x="128" y="320"/>
      <point x="102" y="303" type="curve" smooth="yes"/>
      <point x="47" y="265"/>
      <point x="33" y="185"/>
      <point x="71" y="130" type="curve" smooth="yes"/>
      <point x="206" y="-64" type="line" smooth="yes"/>
      <point x="226" y="-93"/>
      <point x="271" y="-117"/>
      <point x="305" y="-118" type="curve" smooth="yes"/>
      <point x="540" y="-123" type="line" smooth="yes"/>
      <point x="556" y="-123"/>
      <point x="580" y="-118"/>
    </contour>
    <contour>
      <point x="275" y="272" type="line" smooth="yes"/>
      <point x="273" y="274"/>
      <point x="272" y="276"/>
      <point x="270" y="278" type="curve"/>
      <point x="275" y="277"/>
      <point x="279" y="277"/>
      <point x="283" y="277" type="curve" smooth="yes"/>
      <point x="504" y="277" type="line"/>
      <point x="627" y="239" type="line"/>
      <point x="630" y="176" type="line"/>
      <point x="518" y="126" type="line"/>
      <point x="374" y="129" type="line"/>
    </contour>
  </outline>
</glyph>
<glyph name="six" format="1">
  <advance width="835"/>
  <unicode hex="0036"/>
  <outline>
    <contour>
      <point x="390" y="-27" type="curve" smooth="yes"/>
      <point x="570" y="373" type="line" smooth="yes"/>
      <point x="585" y="406"/>
      <point x="571" y="445"/>
      <point x="539" y="462" type="curve" smooth="yes"/>
      <point x="262" y="604" type="line"/>
      <point x="300" y="720" type="line"/>
      <point x="632" y="673" type="line"/>
      <point x="652" y="586" type="line" smooth="yes"/>
      <point x="660" y="550"/>
      <point x="697" y="527"/>
      <point x="733" y="535" type="curve" smooth="yes"/>
      <point x="769" y="543"/>
      <point x="792" y="580"/>
      <point x="784" y="616" type="curve" smooth="yes"/>
      <point x="754" y="749" type="line" smooth="yes"/>
      <point x="748" y="774"/>
      <point x="723" y="798"/>
      <point x="697" y="801" type="curve" smooth="yes"/>
      <point x="263" y="863" type="line" smooth="yes"/>
      <point x="231" y="867"/>
      <point x="198" y="847"/>
      <point x="189" y="817" type="curve" smooth="yes"/>
      <point x="139" y="666" type="line"/>
      <point x="108" y="675"/>
      <point x="73" y="662"/>
      <point x="57" y="632" type="curve" smooth="yes"/>
      <point x="41" y="599"/>
      <point x="54" y="557"/>
      <point x="87" y="540" type="curve" smooth="yes"/>
      <point x="97" y="535" type="line"/>
      <point x="53" y="402" type="line" smooth="yes"/>
      <point x="48" y="387"/>
      <point x="51" y="362"/>
      <point x="58" y="348" type="curve" smooth="yes"/>
      <point x="268" y="-32" type="line" smooth="yes"/>
      <point x="298" y="-85"/>
      <point x="365" y="-83"/>
    </contour>
    <contour>
      <point x="322" y="153" type="line"/>
      <point x="192" y="388" type="line"/>
      <point x="219" y="473" type="line"/>
      <point x="419" y="370" type="line"/>
    </contour>
  </outline>
</glyph>
<glyph name="seven" format="1">
  <advance width="725"/>
  <unicode hex="0037"/>
  <outline>
    <contour>
      <point x="340" y="-30" type="curve" smooth="yes"/>
      <point x="667" y="462" type="line" smooth="yes"/>
      <point x="682" y="485"/>
      <point x="675" y="516"/>
      <point x="651" y="531" type="curve" smooth="yes"/>
      <point x="144" y="839" type="line" smooth="yes"/>
      <point x="138" y="843"/>
      <point x="127" y="846"/>
      <point x="119" y="846" type="curve" smooth="yes"/>
      <point x="99" y="846" type="line" smooth="yes"/>
      <point x="73" y="846"/>
      <point x="50" y="823"/>
      <point x="50" y="797" type="curve" smooth="yes"/>
      <point x="50" y="771"/>
      <point x="73" y="748"/>
      <point x="99" y="748" type="curve" smooth="yes"/>
      <point x="105" y="748" type="line"/>
      <point x="557" y="473" type="line"/>
      <point x="258" y="24" type="line" smooth="yes"/>
      <point x="244" y="2"/>
      <point x="250" y="-29"/>
      <point x="272" y="-44" type="curve" smooth="yes"/>
      <point x="294" y="-58"/>
      <point x="325" y="-52"/>
    </contour>
  </outline>
</glyph>
<glyph name="eight" format="1">
  <advance width="928"/>
  <unicode hex="0038"/>
  <outline>
    <contour>
      <point x="500" y="-115" type="line"/>
      <point x="662" y="-106" type="line" smooth="yes"/>
      <point x="690" y="-104"/>
      <point x="727" y="-85"/>
      <point x="744" y="-64" type="curve" smooth="yes"/>
      <point x="848" y="62" type="line" smooth="yes"/>
      <point x="863" y="81"/>
      <point x="874" y="114"/>
      <point x="874" y="138" type="curve" smooth="yes"/>
      <point x="870" y="294" type="line" smooth="yes"/>
      <point x="869" y="323"/>
      <point x="850" y="362"/>
      <point x="828" y="380" type="curve" smooth="yes"/>
      <point x="816" y="390" type="line"/>
      <point x="820" y="396"/>
      <point x="823" y="403"/>
      <point x="825" y="410" type="curve" smooth="yes"/>
      <point x="874" y="566" type="line" smooth="yes"/>
      <point x="879" y="584"/>
      <point x="880" y="614"/>
      <point x="874" y="632" type="curve" smooth="yes"/>
      <point x="831" y="783" type="line" smooth="yes"/>
      <point x="821" y="816"/>
      <point x="787" y="851"/>
      <point x="754" y="861" type="curve" smooth="yes"/>
      <point x="598" y="910" type="line" smooth="yes"/>
      <point x="589" y="913"/>
      <point x="574" y="915"/>
      <point x="564" y="915" type="curve" smooth="yes"/>
      <point x="404" y="915" type="line" smooth="yes"/>
      <point x="400" y="915"/>
      <point x="394" y="915"/>
      <point x="391" y="914" type="curve" smooth="yes"/>
      <point x="235" y="896" type="line" smooth="yes"/>
      <point x="205" y="893"/>
      <point x="167" y="869"/>
      <point x="151" y="843" type="curve" smooth="yes"/>
      <point x="69" y="711" type="line" smooth="yes"/>
      <point x="58" y="693"/>
      <point x="51" y="662"/>
      <point x="52" y="642" type="curve" smooth="yes"/>
      <point x="64" y="484" type="line" smooth="yes"/>
      <point x="66" y="454"/>
      <point x="89" y="415"/>
      <point x="114" y="398" type="curve"/>
      <point x="58" y="262" type="line" smooth="yes"/>
      <point x="51" y="244"/>
      <point x="48" y="214"/>
      <point x="52" y="195" type="curve" smooth="yes"/>
      <point x="83" y="40" type="line" smooth="yes"/>
      <point x="90" y="6"/>
      <point x="120" y="-31"/>
      <point x="152" y="-44" type="curve" smooth="yes"/>
      <point x="302" y="-106" type="line" smooth="yes"/>
      <point x="314" y="-111"/>
      <point x="333" y="-115"/>
      <point x="346" y="-115" type="curve" smooth="yes"/>
    </contour>
    <contour>
      <point x="624" y="537" type="line"/>
      <point x="548" y="515" type="line"/>
      <point x="475" y="515" type="line"/>
      <point x="349" y="517" type="line"/>
      <point x="289" y="557" type="line"/>
      <point x="284" y="621" type="line"/>
      <point x="317" y="674" type="line"/>
      <point x="411" y="685" type="line"/>
      <point x="547" y="685" type="line"/>
      <point x="627" y="660" type="line"/>
      <point x="644" y="601" type="line"/>
    </contour>
    <contour>
      <point x="488" y="115" type="line"/>
      <point x="369" y="115" type="line"/>
      <point x="296" y="145" type="line"/>
      <point x="284" y="206" type="line"/>
      <point x="309" y="268" type="line"/>
      <point x="395" y="285" type="line"/>
      <point x="472" y="285" type="line"/>
      <point x="586" y="281" type="line"/>
      <point x="641" y="236" type="line"/>
      <point x="643" y="175" type="line"/>
      <point x="599" y="121" type="line"/>
    </contour>
  </outline>
</glyph>
<glyph name="nine" format="1">
  <advance width="1009"/>
  <unicode hex="0039"/>
  <outline>
    <contour>
      <point x="598" y="506" type="line"/>
      <point x="574" y="520" type="line"/>
      <point x="493" y="612" type="line"/>
      <point x="520" y="619" type="line"/>
    </contour>
    <contour>
      <point x="451" y="-150" type="curve" smooth="yes"/>
      <point x="826" y="-58" type="line" smooth="yes"/>
      <point x="889" y="-42"/>
      <point x="942" y="22"/>
      <point x="944" y="87" type="curve" smooth="yes"/>
      <point x="946" y="139" type="line"/>
      <point x="961" y="174"/>
      <point x="962" y="213"/>
      <point x="950" y="248" type="curve"/>
      <point x="959" y="474" type="line" smooth="yes"/>
      <point x="960" y="502"/>
      <point x="948" y="544"/>
      <point x="932" y="568" type="curve" smooth="yes"/>
      <point x="712" y="888" type="line" smooth="yes"/>
      <point x="677" y="939"/>
      <point x="600" y="966"/>
      <point x="540" y="949" type="curve" smooth="yes"/>
      <point x="172" y="840" type="line" smooth="yes"/>
      <point x="54" y="805"/>
      <point x="18" y="680"/>
      <point x="100" y="588" type="curve" smooth="yes"/>
      <point x="358" y="297" type="line" smooth="yes"/>
      <point x="367" y="287"/>
      <point x="383" y="274"/>
      <point x="394" y="267" type="curve" smooth="yes"/>
      <point x="526" y="187" type="line"/>
      <point x="459" y="171" type="line"/>
      <point x="311" y="312" type="line" smooth="yes"/>
      <point x="250" y="370"/>
      <point x="149" y="368"/>
      <point x="92" y="307" type="curve" smooth="yes"/>
      <point x="34" y="246"/>
      <point x="36" y="145"/>
      <point x="97" y="88" type="curve" smooth="yes"/>
      <point x="307" y="-112" type="line" smooth="yes"/>
      <point x="341" y="-145"/>
      <point x="406" y="-162"/>
    </contour>
  </outline>
</glyph>
<glyph name="colon" format="1">
  <advance width="194"/>
  <unicode hex="003A"/>
  <outline>
    <contour>
      <point x="96" y="537" type="curve" smooth="yes"/>
      <point x="121" y="537"/>
      <point x="142" y="558"/>
      <point x="142" y="583" type="curve" smooth="yes"/>
      <point x="142" y="592" type="line" smooth="yes"/>
      <point x="142" y="617"/>
      <point x="121" y="638"/>
      <point x="96" y="638" type="curve" smooth="yes"/>
      <point x="71" y="638"/>
      <point x="50" y="617"/>
      <point x="50" y="592" type="curve" smooth="yes"/>
      <point x="50" y="583" type="line" smooth="yes"/>
      <point x="50" y="558"/>
      <point x="71" y="537"/>
    </contour>
    <contour>
      <point x="98" y="-45" type="curve" smooth="yes"/>
      <point x="123" y="-45"/>
      <point x="144" y="-24"/>
      <point x="144" y="1" type="curve" smooth="yes"/>
      <point x="144" y="5" type="line" smooth="yes"/>
      <point x="144" y="30"/>
      <point x="123" y="51"/>
      <point x="98" y="51" type="curve" smooth="yes"/>
      <point x="73" y="51"/>
      <point x="52" y="30"/>
      <point x="52" y="5" type="curve" smooth="yes"/>
      <point x="52" y="1" type="line" smooth="yes"/>
      <point x="52" y="-24"/>
      <point x="73" y="-45"/>
    </contour>
  </outline>
</glyph>
<glyph name="semicolon" format="1">
  <advance width="379"/>
  <unicode hex="003B"/>
  <outline>
    <contour>
      <point x="239" y="493" type="curve" smooth="yes"/>
      <point x="288" y="493"/>
      <point x="329" y="534"/>
      <point x="329" y="583" type="curve" smooth="yes"/>
      <point x="329" y="592" type="line" smooth="yes"/>
      <point x="329" y="641"/>
      <point x="288" y="682"/>
      <point x="239" y="682" type="curve" smooth="yes"/>
      <point x="190" y="682"/>
      <point x="149" y="641"/>
      <point x="149" y="592" type="curve" smooth="yes"/>
      <point x="149" y="583" type="line" smooth="yes"/>
      <point x="149" y="534"/>
      <point x="190" y="493"/>
    </contour>
    <contour>
      <point x="279" y="272" type="curve" smooth="yes"/>
      <point x="236" y="294"/>
      <point x="180" y="276"/>
      <point x="159" y="232" type="curve" smooth="yes"/>
      <point x="59" y="32" type="line" smooth="yes"/>
      <point x="37" y="-11"/>
      <point x="55" y="-67"/>
      <point x="99" y="-88" type="curve" smooth="yes"/>
      <point x="142" y="-110"/>
      <point x="198" y="-92"/>
      <point x="219" y="-48" type="curve" smooth="yes"/>
      <point x="319" y="152" type="line" smooth="yes"/>
      <point x="341" y="195"/>
      <point x="323" y="251"/>
    </contour>
  </outline>
</glyph>
<glyph name="less" format="1">
  <advance width="719"/>
  <unicode hex="003C"/>
  <outline>
    <contour>
      <point x="657" y="49" type="curve" smooth="yes"/>
      <point x="686" y="107"/>
      <point x="662" y="182"/>
      <point x="603" y="211" type="curve" smooth="yes"/>
      <point x="420" y="303" type="line"/>
      <point x="479" y="333" type="line"/>
      <point x="603" y="395" type="line" smooth="yes"/>
      <point x="662" y="424"/>
      <point x="686" y="499"/>
      <point x="657" y="557" type="curve" smooth="yes"/>
      <point x="628" y="616"/>
      <point x="553" y="640"/>
      <point x="495" y="611" type="curve" smooth="yes"/>
      <point x="246" y="487" type="line"/>
      <point x="122" y="425" type="line" smooth="yes"/>
      <point x="35" y="381"/>
      <point x="25" y="278"/>
      <point x="103" y="220" type="curve" smooth="yes"/>
      <point x="210" y="140" type="line" smooth="yes"/>
      <point x="215" y="136"/>
      <point x="223" y="131"/>
      <point x="228" y="128" type="curve" smooth="yes"/>
      <point x="477" y="4" type="line"/>
      <point x="495" y="-5" type="line" smooth="yes"/>
      <point x="553" y="-34"/>
      <point x="628" y="-10"/>
    </contour>
  </outline>
</glyph>
<glyph name="equal" format="1">
  <advance width="964"/>
  <unicode hex="003D"/>
  <outline>
    <contour>
      <point x="182" y="306" type="curve" smooth="yes"/>
      <point x="782" y="306" type="line" smooth="yes"/>
      <point x="853" y="306"/>
      <point x="914" y="367"/>
      <point x="914" y="438" type="curve" smooth="yes"/>
      <point x="914" y="509"/>
      <point x="853" y="570"/>
      <point x="782" y="570" type="curve" smooth="yes"/>
      <point x="182" y="570" type="line" smooth="yes"/>
      <point x="111" y="570"/>
      <point x="50" y="509"/>
      <point x="50" y="438" type="curve" smooth="yes"/>
      <point x="50" y="367"/>
      <point x="111" y="306"/>
    </contour>
    <contour>
      <point x="182" y="6" type="curve" smooth="yes"/>
      <point x="782" y="6" type="line" smooth="yes"/>
      <point x="853" y="6"/>
      <point x="914" y="67"/>
      <point x="914" y="138" type="curve" smooth="yes"/>
      <point x="914" y="209"/>
      <point x="853" y="270"/>
      <point x="782" y="270" type="curve" smooth="yes"/>
      <point x="182" y="270" type="line" smooth="yes"/>
      <point x="111" y="270"/>
      <point x="50" y="209"/>
      <point x="50" y="138" type="curve" smooth="yes"/>
      <point x="50" y="67"/>
      <point x="111" y="6"/>
    </contour>
  </outline>
</glyph>
<glyph name="greater" format="1">
  <advance width="770"/>
  <unicode hex="003E"/>
  <outline>
    <contour>
      <point x="253" y="-6" type="curve" smooth="yes"/>
      <point x="267" y="1" type="line"/>
      <point x="640" y="205" type="line" smooth="yes"/>
      <point x="749" y="265"/>
      <point x="746" y="400"/>
      <point x="635" y="455" type="curve" smooth="yes"/>
      <point x="253" y="646" type="line" smooth="yes"/>
      <point x="185" y="680"/>
      <point x="98" y="651"/>
      <point x="64" y="583" type="curve" smooth="yes"/>
      <point x="30" y="515"/>
      <point x="59" y="428"/>
      <point x="127" y="394" type="curve" smooth="yes"/>
      <point x="268" y="323" type="line"/>
      <point x="131" y="248" type="line"/>
      <point x="127" y="246" type="line" smooth="yes"/>
      <point x="59" y="212"/>
      <point x="30" y="125"/>
      <point x="64" y="57" type="curve" smooth="yes"/>
      <point x="98" y="-11"/>
      <point x="185" y="-40"/>
    </contour>
  </outline>
</glyph>
<glyph name="question" format="1">
  <advance width="775"/>
  <unicode hex="003F"/>
  <outline>
    <contour>
      <point x="413" y="152" type="curve" smooth="yes"/>
      <point x="709" y="620" type="line" smooth="yes"/>
      <point x="753" y="689"/>
      <point x="704" y="767"/>
      <point x="622" y="755" type="curve" smooth="yes"/>
      <point x="127" y="687" type="line" smooth="yes"/>
      <point x="79" y="681"/>
      <point x="44" y="634"/>
      <point x="51" y="587" type="curve" smooth="yes"/>
      <point x="57" y="539"/>
      <point x="104" y="504"/>
      <point x="151" y="511" type="curve" smooth="yes"/>
      <point x="456" y="553" type="line"/>
      <point x="263" y="248" type="line" smooth="yes"/>
      <point x="237" y="207"/>
      <point x="250" y="151"/>
      <point x="290" y="125" type="curve" smooth="yes"/>
      <point x="331" y="99"/>
      <point x="387" y="112"/>
    </contour>
    <contour>
      <point x="338" y="-89" type="curve" smooth="yes"/>
      <point x="386" y="-89"/>
      <point x="427" y="-48"/>
      <point x="427" y="0" type="curve" smooth="yes"/>
      <point x="427" y="11" type="line" smooth="yes"/>
      <point x="427" y="59"/>
      <point x="386" y="100"/>
      <point x="338" y="100" type="curve" smooth="yes"/>
      <point x="290" y="100"/>
      <point x="249" y="59"/>
      <point x="249" y="11" type="curve" smooth="yes"/>
      <point x="249" y="0" type="line" smooth="yes"/>
      <point x="249" y="-48"/>
      <point x="290" y="-89"/>
    </contour>
  </outline>
</glyph>
<glyph name="at" format="1">
  <advance width="1009"/>
  <unicode hex="0040"/>
  <outline>
    <contour>
      <point x="366" y="475" type="line"/>
      <point x="369" y="548" type="line"/>
      <point x="423" y="564" type="line"/>
    </contour>
    <contour>
      <point x="759" y="-58" type="curve" smooth="yes"/>
      <point x="763" y="-19"/>
      <point x="751" y="19"/>
      <point x="729" y="50" type="curve"/>
      <point x="816" y="34"/>
      <point x="897" y="91"/>
      <point x="910" y="180" type="curve" smooth="yes"/>
      <point x="958" y="516" type="line" smooth="yes"/>
      <point x="965" y="563"/>
      <point x="941" y="626"/>
      <point x="905" y="657" type="curve" smooth="yes"/>
      <point x="643" y="877" type="line" smooth="yes"/>
      <point x="608" y="906"/>
      <point x="545" y="919"/>
      <point x="501" y="907" type="curve" smooth="yes"/>
      <point x="176" y="816" type="line" smooth="yes"/>
      <point x="116" y="799"/>
      <point x="66" y="735"/>
      <point x="63" y="673" type="curve" smooth="yes"/>
      <point x="50" y="336" type="line" smooth="yes"/>
      <point x="50" y="326"/>
      <point x="51" y="312"/>
      <point x="52" y="302" type="curve" smooth="yes"/>
      <point x="112" y="-33" type="line" smooth="yes"/>
      <point x="124" y="-96"/>
      <point x="185" y="-153"/>
      <point x="249" y="-160" type="curve" smooth="yes"/>
      <point x="589" y="-196" type="line" smooth="yes"/>
      <point x="672" y="-205"/>
      <point x="750" y="-142"/>
    </contour>
  </outline>
</glyph>
<glyph name="A" format="1">
  <advance width="751"/>
  <unicode hex="0041"/>
  <outline>
    <contour>
      <point x="609" y="-96" type="curve" smooth="yes"/>
      <point x="659" y="-96"/>
      <point x="701" y="-54"/>
      <point x="701" y="-4" type="curve" smooth="yes"/>
      <point x="701" y="499" type="line" smooth="yes"/>
      <point x="701" y="524"/>
      <point x="686" y="555"/>
      <point x="667" y="571" type="curve" smooth="yes"/>
      <point x="306" y="867" type="line" smooth="yes"/>
      <point x="249" y="914"/>
      <point x="174" y="889"/>
      <point x="158" y="817" type="curve" smooth="yes"/>
      <point x="53" y="361" type="line" smooth="yes"/>
      <point x="39" y="300"/>
      <point x="81" y="248"/>
      <point x="144" y="248" type="curve" smooth="yes"/>
      <point x="517" y="253" type="line"/>
      <point x="517" y="-4" type="line" smooth="yes"/>
      <point x="517" y="-54"/>
      <point x="559" y="-96"/>
    </contour>
    <contour>
      <point x="259" y="434" type="line"/>
      <point x="304" y="631" type="line"/>
      <point x="517" y="456" type="line"/>
      <point x="517" y="437" type="line"/>
    </contour>
  </outline>
</glyph>
<glyph name="B" format="1">
  <advance width="899"/>
  <unicode hex="0042"/>
  <outline>
    <contour>
      <point x="333" y="-96" type="curve" smooth="yes"/>
      <point x="516" y="-96" type="line" smooth="yes"/>
      <point x="522" y="-96"/>
      <point x="531" y="-95"/>
      <point x="537" y="-94" type="curve" smooth="yes"/>
      <point x="714" y="-57" type="line" smooth="yes"/>
      <point x="745" y="-50"/>
      <point x="778" y="-20"/>
      <point x="788" y="11" type="curve" smooth="yes"/>
      <point x="845" y="187" type="line" smooth="yes"/>
      <point x="852" y="209"/>
      <point x="849" y="243"/>
      <point x="839" y="263" type="curve" smooth="yes"/>
      <point x="774" y="389" type="line"/>
      <point x="796" y="405"/>
      <point x="815" y="432"/>
      <point x="819" y="457" type="curve" smooth="yes"/>
      <point x="847" y="642" type="line" smooth="yes"/>
      <point x="851" y="667"/>
      <point x="840" y="703"/>
      <point x="823" y="723" type="curve" smooth="yes"/>
      <point x="702" y="862" type="line" smooth="yes"/>
      <point x="686" y="880"/>
      <point x="655" y="895"/>
      <point x="631" y="896" type="curve" smooth="yes"/>
      <point x="442" y="904" type="line" smooth="yes"/>
      <point x="439" y="904"/>
      <point x="435" y="904"/>
      <point x="432" y="904" type="curve" smooth="yes"/>
      <point x="250" y="892" type="line" smooth="yes"/>
      <point x="224" y="891"/>
      <point x="190" y="872"/>
      <point x="175" y="851" type="curve" smooth="yes"/>
      <point x="69" y="701" type="line" smooth="yes"/>
      <point x="59" y="687"/>
      <point x="50" y="661"/>
      <point x="50" y="643" type="curve" smooth="yes"/>
      <point x="50" y="460" type="line"/>
      <point x="50" y="404" type="line"/>
      <point x="50" y="404" type="line" smooth="yes"/>
      <point x="50" y="404" type="line"/>
      <point x="50" y="271" type="line"/>
      <point x="50" y="268"/>
      <point x="50" y="264"/>
      <point x="51" y="261" type="curve" smooth="yes"/>
      <point x="70" y="77" type="line" smooth="yes"/>
      <point x="73" y="48"/>
      <point x="97" y="13"/>
      <point x="124" y="-1" type="curve" smooth="yes"/>
      <point x="287" y="-85" type="line" smooth="yes"/>
      <point x="299" y="-91"/>
      <point x="319" y="-96"/>
    </contour>
    <contour>
      <point x="491" y="503" type="line" smooth="yes"/>
      <point x="488" y="504"/>
      <point x="483" y="504"/>
      <point x="480" y="504" type="curve" smooth="yes"/>
      <point x="250" y="504" type="line"/>
      <point x="250" y="611" type="line"/>
      <point x="311" y="696" type="line"/>
      <point x="439" y="704" type="line"/>
      <point x="580" y="698" type="line"/>
      <point x="642" y="626" type="line"/>
      <point x="629" y="544" type="line"/>
      <point x="521" y="500" type="line"/>
    </contour>
    <contour>
      <point x="506" y="104" type="line"/>
      <point x="357" y="104" type="line"/>
      <point x="263" y="152" type="line"/>
      <point x="250" y="277" type="line"/>
      <point x="250" y="304" type="line"/>
      <point x="475" y="304" type="line"/>
      <point x="600" y="290" type="line"/>
      <point x="642" y="209" type="line"/>
      <point x="616" y="127" type="line"/>
    </contour>
  </outline>
</glyph>
<glyph name="C" format="1">
  <advance width="905"/>
  <unicode hex="0043"/>
  <outline>
    <contour>
      <point x="779" y="-14" type="curve" smooth="yes"/>
      <point x="849" y="160" type="line" smooth="yes"/>
      <point x="869" y="211"/>
      <point x="843" y="273"/>
      <point x="791" y="294" type="curve" smooth="yes"/>
      <point x="740" y="314"/>
      <point x="678" y="288"/>
      <point x="657" y="236" type="curve" smooth="yes"/>
      <point x="625" y="155" type="line"/>
      <point x="265" y="285" type="line"/>
      <point x="306" y="632" type="line"/>
      <point x="722" y="500" type="line" smooth="yes"/>
      <point x="775" y="483"/>
      <point x="834" y="514"/>
      <point x="851" y="567" type="curve" smooth="yes"/>
      <point x="868" y="620"/>
      <point x="837" y="679"/>
      <point x="784" y="696" type="curve" smooth="yes"/>
      <point x="249" y="867" type="line" smooth="yes"/>
      <point x="185" y="887"/>
      <point x="123" y="848"/>
      <point x="116" y="780" type="curve" smooth="yes"/>
      <point x="51" y="228" type="line" smooth="yes"/>
      <point x="45" y="183"/>
      <point x="76" y="134"/>
      <point x="118" y="119" type="curve" smooth="yes"/>
      <point x="648" y="-72" type="line" smooth="yes"/>
      <point x="700" y="-91"/>
      <point x="758" y="-65"/>
    </contour>
  </outline>
</glyph>
<glyph name="D" format="1">
  <advance width="870"/>
  <unicode hex="0044"/>
  <outline>
    <contour>
      <point x="315" y="-86" type="curve" smooth="yes"/>
      <point x="495" y="-86" type="line" smooth="yes"/>
      <point x="499" y="-86"/>
      <point x="506" y="-85"/>
      <point x="510" y="-85" type="curve" smooth="yes"/>
      <point x="688" y="-53" type="line" smooth="yes"/>
      <point x="714" y="-48"/>
      <point x="743" y="-24"/>
      <point x="752" y="1" type="curve" smooth="yes"/>
      <point x="815" y="169" type="line" smooth="yes"/>
      <point x="818" y="177"/>
      <point x="820" y="191"/>
      <point x="820" y="199" type="curve" smooth="yes"/>
      <point x="820" y="589" type="line" smooth="yes"/>
      <point x="820" y="592"/>
      <point x="820" y="594"/>
      <point x="820" y="596" type="curve"/>
      <point x="820" y="607"/>
      <point x="818" y="619"/>
      <point x="814" y="631" type="curve" smooth="yes"/>
      <point x="745" y="800" type="line" smooth="yes"/>
      <point x="736" y="825"/>
      <point x="707" y="848"/>
      <point x="681" y="852" type="curve" smooth="yes"/>
      <point x="502" y="883" type="line" smooth="yes"/>
      <point x="498" y="883"/>
      <point x="491" y="884"/>
      <point x="487" y="884" type="curve" smooth="yes"/>
      <point x="309" y="884" type="line" smooth="yes"/>
      <point x="300" y="884"/>
      <point x="286" y="881"/>
      <point x="278" y="878" type="curve" smooth="yes"/>
      <point x="103" y="808" type="line" smooth="yes"/>
      <point x="74" y="796"/>
      <point x="50" y="761"/>
      <point x="50" y="729" type="curve"/>
      <point x="50" y="9" type="line"/>
      <point x="50" y="-35"/>
      <point x="86" y="-73"/>
      <point x="130" y="-76" type="curve" smooth="yes"/>
      <point x="310" y="-86" type="line" smooth="yes"/>
      <point x="312" y="-86"/>
      <point x="314" y="-86"/>
    </contour>
    <contour>
      <point x="610" y="106" type="line"/>
      <point x="487" y="84" type="line"/>
      <point x="317" y="84" type="line"/>
      <point x="220" y="89" type="line"/>
      <point x="220" y="672" type="line"/>
      <point x="326" y="714" type="line"/>
      <point x="480" y="714" type="line"/>
      <point x="606" y="693" type="line"/>
      <point x="650" y="583" type="line"/>
      <point x="650" y="214" type="line"/>
    </contour>
  </outline>
</glyph>
<glyph name="E" format="1">
  <advance width="911"/>
  <unicode hex="0045"/>
  <outline>
    <contour>
      <point x="345" y="-106" type="curve" smooth="yes"/>
      <point x="457" y="-106" type="line"/>
      <point x="555" y="-106" type="line" smooth="yes"/>
      <point x="563" y="-106"/>
      <point x="571" y="-105"/>
      <point x="579" y="-103" type="curve"/>
      <point x="598" y="-99"/>
      <point x="617" y="-90"/>
      <point x="632" y="-75" type="curve" smooth="yes"/>
      <point x="830" y="121" type="line" smooth="yes"/>
      <point x="870" y="161"/>
      <point x="871" y="230"/>
      <point x="830" y="271" type="curve" smooth="yes"/>
      <point x="790" y="311"/>
      <point x="721" y="312"/>
      <point x="680" y="271" type="curve" smooth="yes"/>
      <point x="513" y="106" type="line"/>
      <point x="355" y="106" type="line"/>
      <point x="294" y="117" type="line"/>
      <point x="270" y="148" type="line"/>
      <point x="264" y="209" type="line"/>
      <point x="275" y="260" type="line"/>
      <point x="307" y="286" type="line"/>
      <point x="373" y="292" type="line"/>
      <point x="481" y="295" type="line" smooth="yes"/>
      <point x="621" y="298"/>
      <point x="619" y="505"/>
      <point x="480" y="507" type="curve" smooth="yes"/>
      <point x="379" y="507" type="line"/>
      <point x="305" y="513" type="line"/>
      <point x="274" y="538" type="line"/>
      <point x="262" y="589" type="line"/>
      <point x="267" y="650" type="line"/>
      <point x="290" y="680" type="line"/>
      <point x="348" y="694" type="line"/>
      <point x="443" y="694" type="line"/>
      <point x="545" y="694" type="line"/>
      <point x="609" y="686" type="line"/>
      <point x="638" y="656" type="line"/>
      <point x="649" y="586" type="line" smooth="yes"/>
      <point x="658" y="529"/>
      <point x="714" y="488"/>
      <point x="770" y="497" type="curve" smooth="yes"/>
      <point x="827" y="506"/>
      <point x="868" y="562"/>
      <point x="859" y="618" type="curve" smooth="yes"/>
      <point x="843" y="721" type="line" smooth="yes"/>
      <point x="840" y="740"/>
      <point x="827" y="765"/>
      <point x="814" y="779" type="curve" smooth="yes"/>
      <point x="736" y="860" type="line" smooth="yes"/>
      <point x="722" y="875"/>
      <point x="694" y="889"/>
      <point x="673" y="892" type="curve" smooth="yes"/>
      <point x="565" y="905" type="line" smooth="yes"/>
      <point x="562" y="906"/>
      <point x="556" y="906"/>
      <point x="552" y="906" type="curve" smooth="yes"/>
      <point x="443" y="906" type="line"/>
      <point x="335" y="906" type="line" smooth="yes"/>
      <point x="328" y="906"/>
      <point x="317" y="904"/>
      <point x="311" y="903" type="curve" smooth="yes"/>
      <point x="205" y="878" type="line" smooth="yes"/>
      <point x="184" y="873"/>
      <point x="158" y="856"/>
      <point x="145" y="839" type="curve" smooth="yes"/>
      <point x="79" y="755" type="line" smooth="yes"/>
      <point x="69" y="741"/>
      <point x="59" y="715"/>
      <point x="58" y="697" type="curve" smooth="yes"/>
      <point x="50" y="589" type="line" smooth="yes"/>
      <point x="49" y="580"/>
      <point x="50" y="566"/>
      <point x="52" y="558" type="curve" smooth="yes"/>
      <point x="75" y="455" type="line" smooth="yes"/>
      <point x="79" y="436"/>
      <point x="94" y="412"/>
      <point x="109" y="398" type="curve"/>
      <point x="94" y="384"/>
      <point x="80" y="360"/>
      <point x="75" y="341" type="curve" smooth="yes"/>
      <point x="53" y="238" type="line" smooth="yes"/>
      <point x="51" y="229"/>
      <point x="50" y="213"/>
      <point x="51" y="204" type="curve" smooth="yes"/>
      <point x="63" y="95" type="line" smooth="yes"/>
      <point x="64" y="79"/>
      <point x="74" y="55"/>
      <point x="84" y="41" type="curve" smooth="yes"/>
      <point x="151" y="-44" type="line" smooth="yes"/>
      <point x="165" y="-62"/>
      <point x="194" y="-79"/>
      <point x="215" y="-83" type="curve" smooth="yes"/>
      <point x="325" y="-104" type="line" smooth="yes"/>
      <point x="330" y="-105"/>
      <point x="339" y="-106"/>
    </contour>
  </outline>
</glyph>
<glyph name="F" format="1">
  <advance width="873"/>
  <unicode hex="0046"/>
  <outline>
    <contour>
      <point x="224" y="-1" type="curve" smooth="yes"/>
      <point x="225" y="210" type="line"/>
      <point x="276" y="655" type="line"/>
      <point x="710" y="519" type="line" smooth="yes"/>
      <point x="755" y="505"/>
      <point x="805" y="531"/>
      <point x="819" y="576" type="curve" smooth="yes"/>
      <point x="833" y="621"/>
      <point x="807" y="671"/>
      <point x="762" y="685" type="curve" smooth="yes"/>
      <point x="228" y="852" type="line" smooth="yes"/>
      <point x="173" y="869"/>
      <point x="122" y="836"/>
      <point x="115" y="779" type="curve" smooth="yes"/>
      <point x="52" y="225" type="line" smooth="yes"/>
      <point x="52" y="222"/>
      <point x="51" y="218"/>
      <point x="51" y="216" type="curve" smooth="yes"/>
      <point x="50" y="1" type="line" smooth="yes"/>
      <point x="50" y="-46"/>
      <point x="89" y="-87"/>
      <point x="136" y="-87" type="curve" smooth="yes"/>
      <point x="183" y="-87"/>
      <point x="224" y="-48"/>
    </contour>
  </outline>
</glyph>
<glyph name="G" format="1">
  <advance width="812"/>
  <unicode hex="0047"/>
  <outline>
    <contour>
      <point x="294" y="-52" type="curve" smooth="yes"/>
      <point x="636" y="-27" type="line" smooth="yes"/>
      <point x="659" y="-25"/>
      <point x="682" y="-6"/>
      <point x="687" y="17" type="curve" smooth="yes"/>
      <point x="761" y="352" type="line" smooth="yes"/>
      <point x="767" y="382"/>
      <point x="748" y="412"/>
      <point x="718" y="419" type="curve" smooth="yes"/>
      <point x="407" y="488" type="line"/>
      <point x="359" y="623" type="line" smooth="yes"/>
      <point x="349" y="651"/>
      <point x="316" y="667"/>
      <point x="287" y="657" type="curve" smooth="yes"/>
      <point x="259" y="647"/>
      <point x="243" y="614"/>
      <point x="253" y="585" type="curve" smooth="yes"/>
      <point x="312" y="421" type="line" smooth="yes"/>
      <point x="317" y="405"/>
      <point x="336" y="389"/>
      <point x="352" y="385" type="curve" smooth="yes"/>
      <point x="639" y="321" type="line"/>
      <point x="586" y="82" type="line"/>
      <point x="320" y="63" type="line"/>
      <point x="162" y="320" type="line"/>
      <point x="163" y="619" type="line"/>
      <point x="418" y="739" type="line"/>
      <point x="674" y="558" type="line" smooth="yes"/>
      <point x="698" y="541"/>
      <point x="734" y="547"/>
      <point x="752" y="572" type="curve" smooth="yes"/>
      <point x="769" y="596"/>
      <point x="763" y="632"/>
      <point x="738" y="650" type="curve" smooth="yes"/>
      <point x="456" y="850" type="line" smooth="yes"/>
      <point x="442" y="860"/>
      <point x="416" y="862"/>
      <point x="400" y="855" type="curve" smooth="yes"/>
      <point x="83" y="705" type="line" smooth="yes"/>
      <point x="66" y="697"/>
      <point x="51" y="675"/>
      <point x="51" y="655" type="curve" smooth="yes"/>
      <point x="50" y="304" type="line" smooth="yes"/>
      <point x="50" y="295"/>
      <point x="54" y="282"/>
      <point x="58" y="275" type="curve" smooth="yes"/>
      <point x="242" y="-25" type="line" smooth="yes"/>
      <point x="252" y="-41"/>
      <point x="275" y="-53"/>
    </contour>
  </outline>
</glyph>
<glyph name="H" format="1">
  <advance width="982"/>
  <unicode hex="0048"/>
  <outline>
    <contour>
      <point x="791" y="-145" type="curve" smooth="yes"/>
      <point x="867" y="-145"/>
      <point x="932" y="-80"/>
      <point x="932" y="-4" type="curve" smooth="yes"/>
      <point x="932" y="576" type="line" smooth="yes"/>
      <point x="932" y="683"/>
      <point x="838" y="747"/>
      <point x="739" y="707" type="curve" smooth="yes"/>
      <point x="366" y="558" type="line"/>
      <point x="331" y="815" type="line" smooth="yes"/>
      <point x="320" y="891"/>
      <point x="247" y="946"/>
      <point x="172" y="936" type="curve" smooth="yes"/>
      <point x="96" y="925"/>
      <point x="41" y="852"/>
      <point x="51" y="777" type="curve" smooth="yes"/>
      <point x="112" y="340" type="line" smooth="yes"/>
      <point x="125" y="245"/>
      <point x="214" y="193"/>
      <point x="304" y="229" type="curve" smooth="yes"/>
      <point x="650" y="368" type="line"/>
      <point x="650" y="-4" type="line" smooth="yes"/>
      <point x="650" y="-80"/>
      <point x="715" y="-145"/>
    </contour>
  </outline>
</glyph>
<glyph name="I" format="1">
  <advance width="946"/>
  <unicode hex="0049"/>
  <outline>
    <contour>
      <point x="173" y="-124" type="curve" smooth="yes"/>
      <point x="733" y="-124" type="line" smooth="yes"/>
      <point x="891" y="-124"/>
      <point x="903" y="105"/>
      <point x="746" y="121" type="curve" smooth="yes"/>
      <point x="643" y="132" type="line"/>
      <point x="602" y="173" type="line"/>
      <point x="596" y="266" type="line"/>
      <point x="596" y="399" type="line"/>
      <point x="596" y="540" type="line"/>
      <point x="588" y="676" type="line"/>
      <point x="633" y="676" type="line"/>
      <point x="773" y="676" type="line" smooth="yes"/>
      <point x="839" y="676"/>
      <point x="896" y="733"/>
      <point x="896" y="799" type="curve" smooth="yes"/>
      <point x="896" y="865"/>
      <point x="839" y="922"/>
      <point x="773" y="922" type="curve" smooth="yes"/>
      <point x="351" y="922" type="line"/>
      <point x="211" y="919" type="line" smooth="yes"/>
      <point x="52" y="916"/>
      <point x="46" y="686"/>
      <point x="203" y="674" type="curve" smooth="yes"/>
      <point x="304" y="666" type="line"/>
      <point x="344" y="626" type="line"/>
      <point x="350" y="540" type="line"/>
      <point x="350" y="399" type="line"/>
      <point x="350" y="251" type="line"/>
      <point x="358" y="122" type="line"/>
      <point x="173" y="122" type="line" smooth="yes"/>
      <point x="107" y="122"/>
      <point x="50" y="65"/>
      <point x="50" y="-1" type="curve" smooth="yes"/>
      <point x="50" y="-67"/>
      <point x="107" y="-124"/>
    </contour>
  </outline>
</glyph>
<glyph name="J" format="1">
  <advance width="816"/>
  <unicode hex="004A"/>
  <outline>
    <contour>
      <point x="108" y="-59" type="curve" smooth="yes"/>
      <point x="226" y="-59" type="line" smooth="yes"/>
      <point x="246" y="-59"/>
      <point x="270" y="-44"/>
      <point x="278" y="-25" type="curve" smooth="yes"/>
      <point x="461" y="364" type="line" smooth="yes"/>
      <point x="466" y="376"/>
      <point x="467" y="395"/>
      <point x="463" y="406" type="curve" smooth="yes"/>
      <point x="357" y="741" type="line"/>
      <point x="708" y="741" type="line" smooth="yes"/>
      <point x="739" y="741"/>
      <point x="766" y="768"/>
      <point x="766" y="799" type="curve" smooth="yes"/>
      <point x="766" y="830"/>
      <point x="739" y="857"/>
      <point x="708" y="857" type="curve" smooth="yes"/>
      <point x="278" y="857" type="line" smooth="yes"/>
      <point x="236" y="857"/>
      <point x="210" y="821"/>
      <point x="223" y="781" type="curve" smooth="yes"/>
      <point x="346" y="393" type="line"/>
      <point x="189" y="57" type="line"/>
      <point x="108" y="57" type="line" smooth="yes"/>
      <point x="77" y="57"/>
      <point x="50" y="30"/>
      <point x="50" y="-1" type="curve" smooth="yes"/>
      <point x="50" y="-32"/>
      <point x="77" y="-59"/>
    </contour>
  </outline>
</glyph>
<glyph name="K" format="1">
  <advance width="788"/>
  <unicode hex="004B"/>
  <outline>
    <contour>
      <point x="695" y="-40" type="curve" smooth="yes"/>
      <point x="718" y="-40"/>
      <point x="738" y="-19"/>
      <point x="738" y="5" type="curve" smooth="yes"/>
      <point x="735" y="257" type="line" smooth="yes"/>
      <point x="735" y="269"/>
      <point x="727" y="285"/>
      <point x="716" y="292" type="curve" smooth="yes"/>
      <point x="564" y="401" type="line"/>
      <point x="718" y="518" type="line" smooth="yes"/>
      <point x="727" y="525"/>
      <point x="735" y="540"/>
      <point x="735" y="552" type="curve" smooth="yes"/>
      <point x="738" y="794" type="line"/>
      <point x="738" y="804" type="line" smooth="yes"/>
      <point x="738" y="828"/>
      <point x="718" y="848"/>
      <point x="694" y="848" type="curve" smooth="yes"/>
      <point x="670" y="848"/>
      <point x="650" y="828"/>
      <point x="650" y="804" type="curve" smooth="yes"/>
      <point x="650" y="794" type="line"/>
      <point x="648" y="575" type="line"/>
      <point x="479" y="448" type="line"/>
      <point x="227" y="442" type="line" smooth="yes"/>
      <point x="213" y="442"/>
      <point x="196" y="432"/>
      <point x="190" y="420" type="curve" smooth="yes"/>
      <point x="141" y="333" type="line"/>
      <point x="138" y="425" type="line"/>
      <point x="138" y="674" type="line"/>
      <point x="138" y="804" type="line" smooth="yes"/>
      <point x="138" y="828"/>
      <point x="118" y="848"/>
      <point x="94" y="848" type="curve" smooth="yes"/>
      <point x="70" y="848"/>
      <point x="50" y="828"/>
      <point x="50" y="804" type="curve" smooth="yes"/>
      <point x="50" y="674" type="line"/>
      <point x="50" y="423" type="line"/>
      <point x="58" y="173" type="line" smooth="yes"/>
      <point x="59" y="125"/>
      <point x="116" y="111"/>
      <point x="140" y="152" type="curve" smooth="yes"/>
      <point x="254" y="355" type="line"/>
      <point x="470" y="360" type="line"/>
      <point x="647" y="234" type="line"/>
      <point x="650" y="3" type="line" smooth="yes"/>
      <point x="650" y="-20"/>
      <point x="671" y="-40"/>
    </contour>
  </outline>
</glyph>
<glyph name="L" format="1">
  <advance width="986"/>
  <unicode hex="004C"/>
  <outline>
    <contour>
      <point x="393" y="-143" type="curve" smooth="yes"/>
      <point x="793" y="-143" type="line" smooth="yes"/>
      <point x="870" y="-143"/>
      <point x="936" y="-77"/>
      <point x="936" y="0" type="curve" smooth="yes"/>
      <point x="936" y="77"/>
      <point x="870" y="143"/>
      <point x="793" y="143" type="curve" smooth="yes"/>
      <point x="398" y="143" type="line"/>
      <point x="354" y="146" type="line"/>
      <point x="345" y="150" type="line"/>
      <point x="343" y="153" type="line"/>
      <point x="337" y="182" type="line"/>
      <point x="336" y="240" type="line"/>
      <point x="336" y="800" type="line" smooth="yes"/>
      <point x="336" y="877"/>
      <point x="270" y="943"/>
      <point x="193" y="943" type="curve" smooth="yes"/>
      <point x="116" y="943"/>
      <point x="50" y="877"/>
      <point x="50" y="800" type="curve" smooth="yes"/>
      <point x="50" y="240" type="line"/>
      <point x="51" y="163" type="line" smooth="yes"/>
      <point x="52" y="155"/>
      <point x="53" y="144"/>
      <point x="54" y="136" type="curve" smooth="yes"/>
      <point x="69" y="68" type="line" smooth="yes"/>
      <point x="72" y="53"/>
      <point x="81" y="30"/>
      <point x="90" y="18" type="curve" smooth="yes"/>
      <point x="129" y="-42" type="line" smooth="yes"/>
      <point x="142" y="-60"/>
      <point x="168" y="-83"/>
      <point x="188" y="-92" type="curve" smooth="yes"/>
      <point x="258" y="-125" type="line" smooth="yes"/>
      <point x="271" y="-131"/>
      <point x="293" y="-136"/>
      <point x="308" y="-137" type="curve" smooth="yes"/>
      <point x="383" y="-143" type="line" smooth="yes"/>
      <point x="386" y="-143"/>
      <point x="390" y="-143"/>
    </contour>
  </outline>
</glyph>
<glyph name="M" format="1">
  <advance width="846"/>
  <unicode hex="004D"/>
  <outline>
    <contour>
      <point x="723" y="-74" type="curve" smooth="yes"/>
      <point x="762" y="-74"/>
      <point x="796" y="-40"/>
      <point x="796" y="-1" type="curve" smooth="yes"/>
      <point x="796" y="589" type="line" smooth="yes"/>
      <point x="796" y="617"/>
      <point x="775" y="647"/>
      <point x="749" y="657" type="curve" smooth="yes"/>
      <point x="199" y="867" type="line" smooth="yes"/>
      <point x="151" y="886"/>
      <point x="105" y="856"/>
      <point x="100" y="805" type="curve" smooth="yes"/>
      <point x="50" y="215" type="line" smooth="yes"/>
      <point x="50" y="213"/>
      <point x="50" y="211"/>
      <point x="50" y="209" type="curve" smooth="yes"/>
      <point x="50" y="-1" type="line" smooth="yes"/>
      <point x="50" y="-40"/>
      <point x="84" y="-74"/>
      <point x="123" y="-74" type="curve" smooth="yes"/>
      <point x="162" y="-74"/>
      <point x="196" y="-40"/>
      <point x="196" y="-1" type="curve" smooth="yes"/>
      <point x="196" y="206" type="line"/>
      <point x="238" y="696" type="line"/>
      <point x="650" y="539" type="line"/>
      <point x="650" y="-1" type="line" smooth="yes"/>
      <point x="650" y="-40"/>
      <point x="684" y="-74"/>
    </contour>
  </outline>
</glyph>
<glyph name="N" format="1">
  <advance width="962"/>
  <unicode hex="004E"/>
  <outline>
    <contour>
      <point x="312" y="-1" type="curve" smooth="yes"/>
      <point x="312" y="504" type="line"/>
      <point x="331" y="552" type="line"/>
      <point x="350" y="530" type="line"/>
      <point x="350" y="289" type="line" smooth="yes"/>
      <point x="350" y="277"/>
      <point x="353" y="258"/>
      <point x="357" y="247" type="curve" smooth="yes"/>
      <point x="449" y="-28" type="line" smooth="yes"/>
      <point x="483" y="-127"/>
      <point x="591" y="-153"/>
      <point x="666" y="-79" type="curve" smooth="yes"/>
      <point x="873" y="126" type="line" smooth="yes"/>
      <point x="895" y="147"/>
      <point x="912" y="189"/>
      <point x="912" y="219" type="curve" smooth="yes"/>
      <point x="912" y="799" type="line" smooth="yes"/>
      <point x="912" y="870"/>
      <point x="852" y="930"/>
      <point x="781" y="930" type="curve" smooth="yes"/>
      <point x="710" y="930"/>
      <point x="650" y="870"/>
      <point x="650" y="799" type="curve" smooth="yes"/>
      <point x="650" y="274" type="line"/>
      <point x="631" y="255" type="line"/>
      <point x="612" y="310" type="line"/>
      <point x="612" y="579" type="line" smooth="yes"/>
      <point x="612" y="606"/>
      <point x="597" y="645"/>
      <point x="579" y="666" type="curve" smooth="yes"/>
      <point x="386" y="886" type="line" smooth="yes"/>
      <point x="316" y="965"/>
      <point x="205" y="946"/>
      <point x="166" y="847" type="curve" smooth="yes"/>
      <point x="59" y="577" type="line" smooth="yes"/>
      <point x="54" y="564"/>
      <point x="50" y="543"/>
      <point x="50" y="529" type="curve" smooth="yes"/>
      <point x="50" y="-1" type="line" smooth="yes"/>
      <point x="50" y="-72"/>
      <point x="110" y="-132"/>
      <point x="181" y="-132" type="curve" smooth="yes"/>
      <point x="252" y="-132"/>
      <point x="312" y="-72"/>
    </contour>
  </outline>
</glyph>
<glyph name="O" format="1">
  <advance width="815"/>
  <unicode hex="004F"/>
  <outline>
    <contour>
      <point x="501" y="56" type="line" smooth="yes"/>
      <point x="331" y="56" type="line"/>
      <point x="257" y="61" type="line"/>
      <point x="204" y="82" type="line"/>
      <point x="172" y="128" type="line"/>
      <point x="164" y="202" type="line"/>
      <point x="164" y="469" type="line"/>
      <point x="164" y="558" type="line"/>
      <point x="165" y="640" type="line"/>
      <point x="185" y="700" type="line"/>
      <point x="234" y="732" type="line"/>
      <point x="309" y="742" type="line"/>
      <point x="395" y="742" type="line"/>
      <point x="482" y="742" type="line"/>
      <point x="558" y="737" type="line"/>
      <point x="611" y="716" type="line"/>
      <point x="643" y="670" type="line"/>
      <point x="651" y="596" type="line"/>
      <point x="651" y="329" type="line"/>
      <point x="651" y="240" type="line"/>
      <point x="650" y="157" type="line"/>
      <point x="630" y="98" type="line"/>
      <point x="581" y="66" type="line"/>
      <point x="506" y="56" type="line"/>
    </contour>
    <contour>
      <point x="501" y="-58" type="line" smooth="yes"/>
      <point x="503" y="-58"/>
      <point x="505" y="-58"/>
      <point x="506" y="-58" type="curve"/>
      <point x="510" y="-58"/>
      <point x="514" y="-58"/>
      <point x="518" y="-58" type="curve" smooth="yes"/>
      <point x="609" y="-46" type="line" smooth="yes"/>
      <point x="616" y="-45"/>
      <point x="627" y="-41"/>
      <point x="634" y="-37" type="curve" smooth="yes"/>
      <point x="710" y="14" type="line" smooth="yes"/>
      <point x="719" y="20"/>
      <point x="729" y="33"/>
      <point x="732" y="43" type="curve" smooth="yes"/>
      <point x="761" y="130" type="line" smooth="yes"/>
      <point x="762" y="134"/>
      <point x="764" y="142"/>
      <point x="764" y="147" type="curve" smooth="yes"/>
      <point x="765" y="238" type="line"/>
      <point x="765" y="329" type="line"/>
      <point x="765" y="599" type="line" smooth="yes"/>
      <point x="765" y="601"/>
      <point x="765" y="603"/>
      <point x="765" y="605" type="curve" smooth="yes"/>
      <point x="755" y="696" type="line" smooth="yes"/>
      <point x="754" y="704"/>
      <point x="750" y="716"/>
      <point x="745" y="723" type="curve" smooth="yes"/>
      <point x="695" y="795" type="line" smooth="yes"/>
      <point x="690" y="803"/>
      <point x="678" y="812"/>
      <point x="669" y="816" type="curve" smooth="yes"/>
      <point x="592" y="847" type="line" smooth="yes"/>
      <point x="587" y="848"/>
      <point x="579" y="850"/>
      <point x="574" y="851" type="curve" smooth="yes"/>
      <point x="489" y="856" type="line"/>
      <point x="395" y="856" type="line"/>
      <point x="305" y="856" type="line" smooth="yes"/>
      <point x="303" y="856"/>
      <point x="300" y="856"/>
      <point x="298" y="856" type="curve" smooth="yes"/>
      <point x="206" y="844" type="line" smooth="yes"/>
      <point x="199" y="843"/>
      <point x="188" y="839"/>
      <point x="182" y="835" type="curve" smooth="yes"/>
      <point x="105" y="784" type="line" smooth="yes"/>
      <point x="96" y="778"/>
      <point x="86" y="765"/>
      <point x="83" y="754" type="curve" smooth="yes"/>
      <point x="54" y="668" type="line" smooth="yes"/>
      <point x="53" y="663"/>
      <point x="51" y="656"/>
      <point x="51" y="651" type="curve" smooth="yes"/>
      <point x="50" y="560" type="line"/>
      <point x="50" y="469" type="line"/>
      <point x="50" y="199" type="line" smooth="yes"/>
      <point x="50" y="197"/>
      <point x="50" y="195"/>
      <point x="50" y="193" type="curve" smooth="yes"/>
      <point x="60" y="102" type="line" smooth="yes"/>
      <point x="61" y="94"/>
      <point x="65" y="82"/>
      <point x="70" y="75" type="curve" smooth="yes"/>
      <point x="120" y="3" type="line" smooth="yes"/>
      <point x="125" y="-5"/>
      <point x="137" y="-14"/>
      <point x="146" y="-18" type="curve" smooth="yes"/>
      <point x="223" y="-49" type="line" smooth="yes"/>
      <point x="228" y="-50"/>
      <point x="236" y="-52"/>
      <point x="241" y="-53" type="curve" smooth="yes"/>
      <point x="326" y="-58" type="line" smooth="yes"/>
      <point x="327" y="-58"/>
      <point x="328" y="-58"/>
      <point x="329" y="-58" type="curve" smooth="yes"/>
    </contour>
  </outline>
</glyph>
<glyph name="P" format="1">
  <advance width="833"/>
  <unicode hex="0050"/>
  <outline>
    <contour>
      <point x="127" y="-74" type="curve" smooth="yes"/>
      <point x="169" y="-74"/>
      <point x="204" y="-39"/>
      <point x="204" y="3" type="curve" smooth="yes"/>
      <point x="204" y="52" type="line"/>
      <point x="563" y="239" type="line" smooth="yes"/>
      <point x="577" y="246"/>
      <point x="593" y="263"/>
      <point x="599" y="277" type="curve" smooth="yes"/>
      <point x="776" y="696" type="line" smooth="yes"/>
      <point x="796" y="744"/>
      <point x="769" y="794"/>
      <point x="717" y="802" type="curve" smooth="yes"/>
      <point x="272" y="874" type="line" smooth="yes"/>
      <point x="236" y="880"/>
      <point x="197" y="856"/>
      <point x="186" y="820" type="curve" smooth="yes"/>
      <point x="53" y="386" type="line" smooth="yes"/>
      <point x="52" y="379"/>
      <point x="50" y="369"/>
      <point x="50" y="363" type="curve" smooth="yes"/>
      <point x="50" y="3" type="line" smooth="yes"/>
      <point x="50" y="-39"/>
      <point x="85" y="-74"/>
    </contour>
    <contour>
      <point x="204" y="226" type="line"/>
      <point x="204" y="351" type="line"/>
      <point x="314" y="711" type="line"/>
      <point x="596" y="665" type="line"/>
      <point x="468" y="363" type="line"/>
    </contour>
  </outline>
</glyph>
<glyph name="Q" format="1">
  <advance width="915"/>
  <unicode hex="0051"/>
  <outline>
    <contour>
      <point x="498" y="-108" type="curve" smooth="yes"/>
      <point x="548" y="-108" type="line" smooth="yes"/>
      <point x="552" y="-108"/>
      <point x="556" y="-108"/>
      <point x="560" y="-107" type="curve"/>
      <point x="588" y="-107"/>
      <point x="615" y="-96"/>
      <point x="635" y="-75" type="curve" smooth="yes"/>
      <point x="835" y="135" type="line" smooth="yes"/>
      <point x="852" y="152"/>
      <point x="865" y="185"/>
      <point x="865" y="209" type="curve" smooth="yes"/>
      <point x="865" y="499" type="line" smooth="yes"/>
      <point x="865" y="508"/>
      <point x="863" y="522"/>
      <point x="860" y="531" type="curve" smooth="yes"/>
      <point x="772" y="811" type="line" smooth="yes"/>
      <point x="760" y="849"/>
      <point x="718" y="883"/>
      <point x="678" y="886" type="curve" smooth="yes"/>
      <point x="393" y="906" type="line" smooth="yes"/>
      <point x="369" y="907"/>
      <point x="336" y="897"/>
      <point x="317" y="882" type="curve" smooth="yes"/>
      <point x="89" y="695" type="line" smooth="yes"/>
      <point x="68" y="677"/>
      <point x="50" y="640"/>
      <point x="50" y="612" type="curve" smooth="yes"/>
      <point x="50" y="319" type="line" smooth="yes"/>
      <point x="50" y="313"/>
      <point x="51" y="304"/>
      <point x="52" y="298" type="curve" smooth="yes"/>
      <point x="107" y="16" type="line" smooth="yes"/>
      <point x="116" y="-26"/>
      <point x="156" y="-64"/>
      <point x="198" y="-70" type="curve" smooth="yes"/>
      <point x="484" y="-107" type="line" smooth="yes"/>
      <point x="488" y="-108"/>
      <point x="494" y="-108"/>
    </contour>
    <contour>
      <point x="512" y="106" type="line"/>
      <point x="505" y="106" type="line"/>
      <point x="303" y="132" type="line"/>
      <point x="264" y="329" type="line"/>
      <point x="264" y="562" type="line"/>
      <point x="420" y="689" type="line"/>
      <point x="590" y="677" type="line"/>
      <point x="651" y="483" type="line"/>
      <point x="651" y="252" type="line"/>
    </contour>
  </outline>
</glyph>
<glyph name="R" format="1">
  <advance width="910"/>
  <unicode hex="0052"/>
  <outline>
    <contour>
      <point x="485" y="375" type="line" smooth="yes"/>
      <point x="468" y="389"/>
      <point x="437" y="401"/>
      <point x="415" y="401" type="curve" smooth="yes"/>
      <point x="355" y="401" type="line" smooth="yes"/>
      <point x="314" y="401"/>
      <point x="277" y="375"/>
      <point x="260" y="340" type="curve"/>
      <point x="260" y="530" type="line"/>
      <point x="385" y="689" type="line"/>
      <point x="564" y="685" type="line"/>
      <point x="632" y="536" type="line"/>
      <point x="485" y="374" type="line"/>
    </contour>
    <contour>
      <point x="260" y="-4" type="curve" smooth="yes"/>
      <point x="260" y="252" type="line"/>
      <point x="277" y="217"/>
      <point x="314" y="191"/>
      <point x="355" y="191" type="curve" smooth="yes"/>
      <point x="376" y="191" type="line"/>
      <point x="687" y="-83" type="line" smooth="yes"/>
      <point x="729" y="-120"/>
      <point x="797" y="-116"/>
      <point x="835" y="-73" type="curve" smooth="yes"/>
      <point x="872" y="-31"/>
      <point x="868" y="37"/>
      <point x="825" y="75" type="curve" smooth="yes"/>
      <point x="643" y="235" type="line"/>
      <point x="834" y="445" type="line" smooth="yes"/>
      <point x="859" y="474"/>
      <point x="867" y="525"/>
      <point x="852" y="559" type="curve" smooth="yes"/>
      <point x="728" y="831" type="line" smooth="yes"/>
      <point x="713" y="864"/>
      <point x="672" y="892"/>
      <point x="635" y="893" type="curve" smooth="yes"/>
      <point x="338" y="901" type="line" smooth="yes"/>
      <point x="309" y="901"/>
      <point x="270" y="883"/>
      <point x="252" y="860" type="curve" smooth="yes"/>
      <point x="72" y="631" type="line" smooth="yes"/>
      <point x="60" y="615"/>
      <point x="50" y="586"/>
      <point x="50" y="566" type="curve" smooth="yes"/>
      <point x="50" y="-4" type="line" smooth="yes"/>
      <point x="50" y="-61"/>
      <point x="98" y="-109"/>
      <point x="155" y="-109" type="curve" smooth="yes"/>
      <point x="212" y="-109"/>
      <point x="260" y="-61"/>
    </contour>
  </outline>
</glyph>
<glyph name="S" format="1">
  <advance width="971"/>
  <unicode hex="0053"/>
  <outline>
    <contour>
      <point x="435" y="-131" type="line"/>
      <point x="566" y="-131" type="line" smooth="yes"/>
      <point x="571" y="-131"/>
      <point x="578" y="-131"/>
      <point x="583" y="-130" type="curve" smooth="yes"/>
      <point x="707" y="-114" type="line" smooth="yes"/>
      <point x="733" y="-110"/>
      <point x="770" y="-92"/>
      <point x="788" y="-72" type="curve" smooth="yes"/>
      <point x="876" y="22" type="line" smooth="yes"/>
      <point x="894" y="42"/>
      <point x="910" y="80"/>
      <point x="912" y="106" type="curve" smooth="yes"/>
      <point x="919" y="233" type="line" smooth="yes"/>
      <point x="920" y="249"/>
      <point x="916" y="274"/>
      <point x="910" y="290" type="curve" smooth="yes"/>
      <point x="863" y="411" type="line" smooth="yes"/>
      <point x="855" y="433"/>
      <point x="835" y="456"/>
      <point x="814" y="472" type="curve"/>
      <point x="883" y="485"/>
      <point x="932" y="557"/>
      <point x="919" y="629" type="curve" smooth="yes"/>
      <point x="896" y="752" type="line" smooth="yes"/>
      <point x="890" y="782"/>
      <point x="865" y="821"/>
      <point x="839" y="838" type="curve" smooth="yes"/>
      <point x="739" y="907" type="line" smooth="yes"/>
      <point x="722" y="919"/>
      <point x="692" y="929"/>
      <point x="671" y="930" type="curve" smooth="yes"/>
      <point x="542" y="939" type="line"/>
      <point x="403" y="939" type="line" smooth="yes"/>
      <point x="398" y="939"/>
      <point x="391" y="939"/>
      <point x="386" y="938" type="curve" smooth="yes"/>
      <point x="263" y="922" type="line" smooth="yes"/>
      <point x="236" y="919"/>
      <point x="199" y="900"/>
      <point x="181" y="880" type="curve" smooth="yes"/>
      <point x="94" y="787" type="line" smooth="yes"/>
      <point x="76" y="767"/>
      <point x="60" y="729"/>
      <point x="58" y="702" type="curve" smooth="yes"/>
      <point x="52" y="577" type="line" smooth="yes"/>
      <point x="51" y="561"/>
      <point x="55" y="536"/>
      <point x="61" y="521" type="curve" smooth="yes"/>
      <point x="108" y="399" type="line" smooth="yes"/>
      <point x="116" y="377"/>
      <point x="137" y="353"/>
      <point x="159" y="336" type="curve"/>
      <point x="158" y="336" type="line" smooth="yes"/>
      <point x="87" y="322"/>
      <point x="38" y="249"/>
      <point x="53" y="177" type="curve" smooth="yes"/>
      <point x="78" y="53" type="line" smooth="yes"/>
      <point x="83" y="24"/>
      <point x="108" y="-13"/>
      <point x="132" y="-30" type="curve" smooth="yes"/>
      <point x="231" y="-101" type="line" smooth="yes"/>
      <point x="249" y="-114"/>
      <point x="282" y="-125"/>
      <point x="304" y="-126" type="curve" smooth="yes"/>
    </contour>
    <contour>
      <point x="657" y="532" type="line" smooth="yes"/>
      <point x="646" y="536"/>
      <point x="626" y="539"/>
      <point x="614" y="539" type="curve" smooth="yes"/>
      <point x="486" y="539" type="line"/>
      <point x="380" y="539" type="line"/>
      <point x="337" y="554" type="line"/>
      <point x="323" y="591" type="line"/>
      <point x="325" y="639" type="line"/>
      <point x="345" y="661" type="line"/>
      <point x="412" y="669" type="line"/>
      <point x="525" y="669" type="line"/>
      <point x="617" y="663" type="line"/>
      <point x="641" y="647" type="line"/>
      <point x="653" y="579" type="line" smooth="yes"/>
      <point x="657" y="559"/>
      <point x="665" y="541"/>
      <point x="677" y="525" type="curve"/>
    </contour>
    <contour>
      <point x="435" y="139" type="line"/>
      <point x="355" y="142" type="line"/>
      <point x="332" y="159" type="line"/>
      <point x="317" y="231" type="line" smooth="yes"/>
      <point x="313" y="250"/>
      <point x="305" y="268"/>
      <point x="293" y="284" type="curve"/>
      <point x="312" y="277" type="line" smooth="yes"/>
      <point x="324" y="273"/>
      <point x="344" y="269"/>
      <point x="357" y="269" type="curve" smooth="yes"/>
      <point x="485" y="269" type="line"/>
      <point x="592" y="269" type="line"/>
      <point x="634" y="254" type="line"/>
      <point x="648" y="219" type="line"/>
      <point x="645" y="171" type="line"/>
      <point x="624" y="148" type="line"/>
      <point x="557" y="139" type="line"/>
    </contour>
  </outline>
</glyph>
<glyph name="T" format="1">
  <advance width="645"/>
  <unicode hex="0054"/>
  <outline>
    <contour>
      <point x="472" y="-123" type="curve" smooth="yes"/>
      <point x="538" y="-123"/>
      <point x="595" y="-66"/>
      <point x="595" y="0" type="curve" smooth="yes"/>
      <point x="595" y="520" type="line" smooth="yes"/>
      <point x="595" y="550"/>
      <point x="578" y="590"/>
      <point x="556" y="610" type="curve" smooth="yes"/>
      <point x="256" y="890" type="line" smooth="yes"/>
      <point x="207" y="935"/>
      <point x="127" y="932"/>
      <point x="82" y="884" type="curve" smooth="yes"/>
      <point x="37" y="835"/>
      <point x="40" y="755"/>
      <point x="88" y="710" type="curve" smooth="yes"/>
      <point x="349" y="467" type="line"/>
      <point x="349" y="0" type="line" smooth="yes"/>
      <point x="349" y="-66"/>
      <point x="406" y="-123"/>
    </contour>
  </outline>
</glyph>
<glyph name="U" format="1">
  <advance width="867"/>
  <unicode hex="0055"/>
  <outline>
    <contour>
      <point x="561" y="-64" type="curve" smooth="yes"/>
      <point x="788" y="136" type="line" smooth="yes"/>
      <point x="804" y="150"/>
      <point x="817" y="178"/>
      <point x="817" y="199" type="curve" smooth="yes"/>
      <point x="817" y="799" type="line" smooth="yes"/>
      <point x="817" y="844"/>
      <point x="778" y="883"/>
      <point x="733" y="883" type="curve" smooth="yes"/>
      <point x="688" y="883"/>
      <point x="649" y="844"/>
      <point x="649" y="799" type="curve" smooth="yes"/>
      <point x="649" y="237" type="line"/>
      <point x="477" y="86" type="line"/>
      <point x="270" y="107" type="line"/>
      <point x="218" y="329" type="line"/>
      <point x="218" y="799" type="line" smooth="yes"/>
      <point x="218" y="844"/>
      <point x="179" y="883"/>
      <point x="134" y="883" type="curve" smooth="yes"/>
      <point x="89" y="883"/>
      <point x="50" y="844"/>
      <point x="50" y="799" type="curve" smooth="yes"/>
      <point x="50" y="319" type="line" smooth="yes"/>
      <point x="50" y="314"/>
      <point x="51" y="305"/>
      <point x="52" y="300" type="curve" smooth="yes"/>
      <point x="121" y="10" type="line" smooth="yes"/>
      <point x="128" y="-22"/>
      <point x="161" y="-51"/>
      <point x="194" y="-54" type="curve" smooth="yes"/>
      <point x="497" y="-85" type="line" smooth="yes"/>
      <point x="517" y="-87"/>
      <point x="545" y="-77"/>
    </contour>
  </outline>
</glyph>
<glyph name="V" format="1">
  <advance width="970"/>
  <unicode hex="0056"/>
  <outline>
    <contour>
      <point x="513" y="-134" type="curve" smooth="yes"/>
      <point x="738" y="-103" type="line" smooth="yes"/>
      <point x="785" y="-96"/>
      <point x="835" y="-54"/>
      <point x="848" y="-8" type="curve" smooth="yes"/>
      <point x="914" y="211" type="line" smooth="yes"/>
      <point x="917" y="222"/>
      <point x="920" y="239"/>
      <point x="920" y="250" type="curve" smooth="yes"/>
      <point x="920" y="800" type="line" smooth="yes"/>
      <point x="920" y="873"/>
      <point x="858" y="935"/>
      <point x="785" y="935" type="curve" smooth="yes"/>
      <point x="712" y="935"/>
      <point x="650" y="873"/>
      <point x="650" y="800" type="curve" smooth="yes"/>
      <point x="650" y="270" type="line"/>
      <point x="615" y="153" type="line"/>
      <point x="542" y="143" type="line"/>
      <point x="430" y="253" type="line"/>
      <point x="320" y="388" type="line"/>
      <point x="320" y="800" type="line" smooth="yes"/>
      <point x="320" y="873"/>
      <point x="258" y="935"/>
      <point x="185" y="935" type="curve" smooth="yes"/>
      <point x="112" y="935"/>
      <point x="50" y="873"/>
      <point x="50" y="800" type="curve" smooth="yes"/>
      <point x="50" y="340" type="line" smooth="yes"/>
      <point x="50" y="314"/>
      <point x="64" y="275"/>
      <point x="80" y="255" type="curve" smooth="yes"/>
      <point x="225" y="77" type="line" smooth="yes"/>
      <point x="228" y="73"/>
      <point x="232" y="68"/>
      <point x="235" y="65" type="curve" smooth="yes"/>
      <point x="401" y="-96" type="line" smooth="yes"/>
      <point x="427" y="-122"/>
      <point x="477" y="-139"/>
    </contour>
  </outline>
</glyph>
<glyph name="W" format="1">
  <advance width="972"/>
  <unicode hex="0057"/>
  <outline>
    <contour>
      <point x="786" y="-102" type="curve" smooth="yes"/>
      <point x="876" y="-22" type="line" smooth="yes"/>
      <point x="902" y="1"/>
      <point x="922" y="46"/>
      <point x="922" y="80" type="curve" smooth="yes"/>
      <point x="922" y="800" type="line" smooth="yes"/>
      <point x="922" y="873"/>
      <point x="859" y="936"/>
      <point x="786" y="936" type="curve" smooth="yes"/>
      <point x="713" y="936"/>
      <point x="650" y="873"/>
      <point x="650" y="800" type="curve" smooth="yes"/>
      <point x="650" y="144" type="line"/>
      <point x="633" y="165" type="line"/>
      <point x="626" y="229" type="line"/>
      <point x="624" y="343" type="line"/>
      <point x="621" y="463" type="line" smooth="yes"/>
      <point x="617" y="641"/>
      <point x="353" y="641"/>
      <point x="349" y="463" type="curve" smooth="yes"/>
      <point x="345" y="230" type="line"/>
      <point x="336" y="162" type="line"/>
      <point x="322" y="145" type="line"/>
      <point x="322" y="800" type="line" smooth="yes"/>
      <point x="322" y="873"/>
      <point x="259" y="936"/>
      <point x="186" y="936" type="curve" smooth="yes"/>
      <point x="113" y="936"/>
      <point x="50" y="873"/>
      <point x="50" y="800" type="curve" smooth="yes"/>
      <point x="50" y="80" type="line" smooth="yes"/>
      <point x="50" y="46"/>
      <point x="70" y="1"/>
      <point x="96" y="-22" type="curve" smooth="yes"/>
      <point x="186" y="-102" type="line" smooth="yes"/>
      <point x="212" y="-125"/>
      <point x="260" y="-139"/>
      <point x="295" y="-135" type="curve" smooth="yes"/>
      <point x="411" y="-119" type="line" smooth="yes"/>
      <point x="435" y="-115"/>
      <point x="466" y="-100"/>
      <point x="486" y="-82" type="curve"/>
      <point x="507" y="-101"/>
      <point x="539" y="-117"/>
      <point x="564" y="-120" type="curve" smooth="yes"/>
      <point x="679" y="-135" type="line" smooth="yes"/>
      <point x="713" y="-139"/>
      <point x="761" y="-124"/>
    </contour>
  </outline>
</glyph>
<glyph name="X" format="1">
  <advance width="964"/>
  <unicode hex="0058"/>
  <outline>
    <contour>
      <point x="314" y="0" type="curve" smooth="yes"/>
      <point x="314" y="47" type="line"/>
      <point x="550" y="236" type="line"/>
      <point x="659" y="-47" type="line" smooth="yes"/>
      <point x="684" y="-114"/>
      <point x="763" y="-149"/>
      <point x="829" y="-123" type="curve" smooth="yes"/>
      <point x="896" y="-98"/>
      <point x="931" y="-19"/>
      <point x="905" y="47" type="curve" smooth="yes"/>
      <point x="754" y="444" type="line" smooth="yes"/>
      <point x="750" y="453"/>
      <point x="745" y="462"/>
      <point x="739" y="470" type="curve"/>
      <point x="895" y="732" type="line" smooth="yes"/>
      <point x="932" y="794"/>
      <point x="911" y="877"/>
      <point x="850" y="913" type="curve" smooth="yes"/>
      <point x="788" y="950"/>
      <point x="705" y="929"/>
      <point x="669" y="868" type="curve" smooth="yes"/>
      <point x="483" y="556" type="line"/>
      <point x="333" y="582" type="line"/>
      <point x="314" y="811" type="line" smooth="yes"/>
      <point x="308" y="882"/>
      <point x="242" y="937"/>
      <point x="171" y="932" type="curve" smooth="yes"/>
      <point x="100" y="926"/>
      <point x="45" y="860"/>
      <point x="50" y="789" type="curve" smooth="yes"/>
      <point x="78" y="459" type="line" smooth="yes"/>
      <point x="83" y="403"/>
      <point x="132" y="349"/>
      <point x="187" y="340" type="curve" smooth="yes"/>
      <point x="245" y="330" type="line"/>
      <point x="99" y="213" type="line" smooth="yes"/>
      <point x="72" y="191"/>
      <point x="50" y="145"/>
      <point x="50" y="110" type="curve" smooth="yes"/>
      <point x="50" y="0" type="line" smooth="yes"/>
      <point x="50" y="-71"/>
      <point x="111" y="-132"/>
      <point x="182" y="-132" type="curve" smooth="yes"/>
      <point x="253" y="-132"/>
      <point x="314" y="-71"/>
    </contour>
  </outline>
</glyph>
<glyph name="Y" format="1">
  <advance width="798"/>
  <unicode hex="0059"/>
  <outline>
    <contour>
      <point x="298" y="-49" type="line"/>
      <point x="480" y="-49" type="line"/>
      <point x="543" y="-48" type="line" smooth="yes"/>
      <point x="546" y="-48"/>
      <point x="550" y="-47"/>
      <point x="553" y="-47" type="curve" smooth="yes"/>
      <point x="617" y="-33" type="line" smooth="yes"/>
      <point x="622" y="-31"/>
      <point x="631" y="-28"/>
      <point x="635" y="-24" type="curve" smooth="yes"/>
      <point x="686" y="12" type="line" smooth="yes"/>
      <point x="691" y="16"/>
      <point x="697" y="23"/>
      <point x="700" y="29" type="curve" smooth="yes"/>
      <point x="731" y="87" type="line" smooth="yes"/>
      <point x="733" y="91"/>
      <point x="735" y="97"/>
      <point x="736" y="101" type="curve" smooth="yes"/>
      <point x="746" y="158" type="line" smooth="yes"/>
      <point x="746" y="160"/>
      <point x="747" y="163"/>
      <point x="747" y="166" type="curve" smooth="yes"/>
      <point x="748" y="231" type="line"/>
      <point x="748" y="649" type="line"/>
      <point x="748" y="709" type="line"/>
      <point x="747" y="769" type="line" smooth="yes"/>
      <point x="746" y="833"/>
      <point x="651" y="834"/>
      <point x="649" y="770" type="curve" smooth="yes"/>
      <point x="642" y="590" type="line"/>
      <point x="640" y="529" type="line"/>
      <point x="638" y="465" type="line"/>
      <point x="631" y="411" type="line"/>
      <point x="612" y="378" type="line"/>
      <point x="576" y="357" type="line"/>
      <point x="532" y="348" type="line"/>
      <point x="482" y="347" type="line"/>
      <point x="303" y="347" type="line"/>
      <point x="246" y="352" type="line"/>
      <point x="201" y="367" type="line"/>
      <point x="172" y="391" type="line"/>
      <point x="153" y="435" type="line"/>
      <point x="148" y="491" type="line"/>
      <point x="148" y="558" type="line"/>
      <point x="148" y="798" type="line" smooth="yes"/>
      <point x="148" y="824"/>
      <point x="125" y="847"/>
      <point x="99" y="847" type="curve" smooth="yes"/>
      <point x="73" y="847"/>
      <point x="50" y="824"/>
      <point x="50" y="798" type="curve" smooth="yes"/>
      <point x="50" y="558" type="line"/>
      <point x="50" y="491" type="line"/>
      <point x="56" y="419" type="line" smooth="yes"/>
      <point x="56" y="414"/>
      <point x="58" y="407"/>
      <point x="60" y="403" type="curve" smooth="yes"/>
      <point x="87" y="341" type="line" smooth="yes"/>
      <point x="89" y="335"/>
      <point x="96" y="327"/>
      <point x="100" y="323" type="curve" smooth="yes"/>
      <point x="145" y="285" type="line" smooth="yes"/>
      <point x="149" y="282"/>
      <point x="156" y="278"/>
      <point x="161" y="276" type="curve" smooth="yes"/>
      <point x="221" y="257" type="line" smooth="yes"/>
      <point x="224" y="256"/>
      <point x="229" y="255"/>
      <point x="232" y="255" type="curve" smooth="yes"/>
      <point x="297" y="249" type="line" smooth="yes"/>
      <point x="298" y="249"/>
      <point x="300" y="249"/>
      <point x="301" y="249" type="curve" smooth="yes"/>
      <point x="482" y="249" type="line"/>
      <point x="538" y="250" type="line" smooth="yes"/>
      <point x="541" y="251"/>
      <point x="544" y="251"/>
      <point x="546" y="251" type="curve" smooth="yes"/>
      <point x="603" y="262" type="line" smooth="yes"/>
      <point x="607" y="263"/>
      <point x="614" y="266"/>
      <point x="618" y="268" type="curve" smooth="yes"/>
      <point x="650" y="287" type="line"/>
      <point x="650" y="231" type="line"/>
      <point x="649" y="172" type="line"/>
      <point x="640" y="126" type="line"/>
      <point x="619" y="85" type="line"/>
      <point x="586" y="61" type="line"/>
      <point x="537" y="50" type="line"/>
      <point x="478" y="49" type="line"/>
      <point x="298" y="49" type="line"/>
      <point x="119" y="50" type="line"/>
      <point x="99" y="50" type="line" smooth="yes"/>
      <point x="73" y="50"/>
      <point x="50" y="28"/>
      <point x="50" y="1" type="curve" smooth="yes"/>
      <point x="50" y="-25"/>
      <point x="72" y="-48"/>
      <point x="99" y="-48" type="curve" smooth="yes"/>
    </contour>
  </outline>
</glyph>
<glyph name="Z" format="1">
  <advance width="884"/>
  <unicode hex="005A"/>
  <outline>
    <contour>
      <point x="472" y="-92" type="curve" smooth="yes"/>
      <point x="742" y="-92" type="line" smooth="yes"/>
      <point x="792" y="-92"/>
      <point x="834" y="-50"/>
      <point x="834" y="0" type="curve" smooth="yes"/>
      <point x="834" y="50"/>
      <point x="792" y="92"/>
      <point x="742" y="92" type="curve" smooth="yes"/>
      <point x="481" y="92" type="line"/>
      <point x="319" y="123" type="line"/>
      <point x="387" y="253" type="line"/>
      <point x="610" y="401" type="line" smooth="yes"/>
      <point x="619" y="407"/>
      <point x="631" y="420"/>
      <point x="637" y="429" type="curve" smooth="yes"/>
      <point x="794" y="682" type="line" smooth="yes"/>
      <point x="829" y="738"/>
      <point x="802" y="804"/>
      <point x="737" y="820" type="curve" smooth="yes"/>
      <point x="454" y="889" type="line" smooth="yes"/>
      <point x="448" y="891"/>
      <point x="438" y="892"/>
      <point x="432" y="892" type="curve" smooth="yes"/>
      <point x="142" y="892" type="line" smooth="yes"/>
      <point x="92" y="892"/>
      <point x="50" y="850"/>
      <point x="50" y="800" type="curve" smooth="yes"/>
      <point x="50" y="750"/>
      <point x="92" y="708"/>
      <point x="142" y="708" type="curve" smooth="yes"/>
      <point x="421" y="708" type="line"/>
      <point x="570" y="671" type="line"/>
      <point x="491" y="543" type="line"/>
      <point x="266" y="393" type="line" smooth="yes"/>
      <point x="255" y="386"/>
      <point x="242" y="371"/>
      <point x="236" y="360" type="curve" smooth="yes"/>
      <point x="98" y="98" type="line" smooth="yes"/>
      <point x="67" y="40"/>
      <point x="98" y="-23"/>
      <point x="162" y="-35" type="curve" smooth="yes"/>
      <point x="455" y="-90" type="line" smooth="yes"/>
      <point x="460" y="-91"/>
      <point x="467" y="-92"/>
    </contour>
  </outline>
</glyph>
<glyph name="bracketleft" format="1">
  <advance width="552"/>
  <unicode hex="005B"/>
  <outline>
    <contour>
      <point x="502" y="-8" type="curve" smooth="yes"/>
      <point x="506" y="33"/>
      <point x="474" y="72"/>
      <point x="434" y="76" type="curve" smooth="yes"/>
      <point x="202" y="99" type="line"/>
      <point x="202" y="441" type="line"/>
      <point x="482" y="749" type="line" smooth="yes"/>
      <point x="510" y="779"/>
      <point x="507" y="829"/>
      <point x="477" y="856" type="curve" smooth="yes"/>
      <point x="447" y="884"/>
      <point x="397" y="881"/>
      <point x="370" y="851" type="curve" smooth="yes"/>
      <point x="70" y="521" type="line" smooth="yes"/>
      <point x="59" y="509"/>
      <point x="50" y="486"/>
      <point x="50" y="470" type="curve" smooth="yes"/>
      <point x="50" y="30" type="line"/>
      <point x="50" y="-8"/>
      <point x="81" y="-42"/>
      <point x="118" y="-46" type="curve" smooth="yes"/>
      <point x="418" y="-76" type="line" smooth="yes"/>
      <point x="459" y="-80"/>
      <point x="498" y="-48"/>
    </contour>
  </outline>
</glyph>
<glyph name="backslash" format="1">
  <advance width="799"/>
  <unicode hex="005C"/>
  <outline>
    <contour>
      <point x="730" y="-41" type="curve" smooth="yes"/>
      <point x="752" y="-25"/>
      <point x="756" y="7"/>
      <point x="740" y="29" type="curve" smooth="yes"/>
      <point x="140" y="829" type="line" smooth="yes"/>
      <point x="124" y="851"/>
      <point x="92" y="855"/>
      <point x="70" y="839" type="curve" smooth="yes"/>
      <point x="48" y="823"/>
      <point x="44" y="791"/>
      <point x="60" y="769" type="curve" smooth="yes"/>
      <point x="660" y="-31" type="line" smooth="yes"/>
      <point x="676" y="-53"/>
      <point x="708" y="-57"/>
    </contour>
  </outline>
</glyph>
<glyph name="bracketright" format="1">
  <advance width="520"/>
  <unicode hex="005D"/>
  <outline>
    <contour>
      <point x="110" y="-61" type="curve" smooth="yes"/>
      <point x="190" y="-61" type="line" smooth="yes"/>
      <point x="206" y="-61"/>
      <point x="227" y="-51"/>
      <point x="237" y="-39" type="curve" smooth="yes"/>
      <point x="457" y="231" type="line" smooth="yes"/>
      <point x="464" y="240"/>
      <point x="470" y="257"/>
      <point x="470" y="269" type="curve" smooth="yes"/>
      <point x="470" y="619" type="line" smooth="yes"/>
      <point x="470" y="638"/>
      <point x="457" y="661"/>
      <point x="441" y="670" type="curve" smooth="yes"/>
      <point x="141" y="850" type="line" smooth="yes"/>
      <point x="113" y="867"/>
      <point x="75" y="858"/>
      <point x="59" y="830" type="curve" smooth="yes"/>
      <point x="42" y="802"/>
      <point x="51" y="764"/>
      <point x="79" y="748" type="curve" smooth="yes"/>
      <point x="350" y="585" type="line"/>
      <point x="350" y="290" type="line"/>
      <point x="161" y="59" type="line"/>
      <point x="110" y="59" type="line" smooth="yes"/>
      <point x="78" y="59"/>
      <point x="50" y="31"/>
      <point x="50" y="-1" type="curve" smooth="yes"/>
      <point x="50" y="-33"/>
      <point x="78" y="-61"/>
    </contour>
  </outline>
</glyph>
<glyph name="asciicircum" format="1">
  <advance width="835"/>
  <unicode hex="005E"/>
  <outline>
    <contour>
      <point x="775" y="464" type="curve" smooth="yes"/>
      <point x="795" y="495"/>
      <point x="786" y="538"/>
      <point x="756" y="559" type="curve" smooth="yes"/>
      <point x="456" y="759" type="line" smooth="yes"/>
      <point x="435" y="772"/>
      <point x="401" y="772"/>
      <point x="380" y="759" type="curve" smooth="yes"/>
      <point x="80" y="559" type="line" smooth="yes"/>
      <point x="50" y="538"/>
      <point x="41" y="495"/>
      <point x="61" y="464" type="curve" smooth="yes"/>
      <point x="82" y="434"/>
      <point x="125" y="425"/>
      <point x="156" y="445" type="curve" smooth="yes"/>
      <point x="418" y="620" type="line"/>
      <point x="680" y="445" type="line" smooth="yes"/>
      <point x="711" y="425"/>
      <point x="754" y="434"/>
    </contour>
  </outline>
</glyph>
<glyph name="underscore" format="1">
  <advance width="868"/>
  <unicode hex="005F"/>
  <outline>
    <contour>
      <point x="146" y="-281" type="curve" smooth="yes"/>
      <point x="722" y="-281" type="line" smooth="yes"/>
      <point x="774" y="-281"/>
      <point x="818" y="-237"/>
      <point x="818" y="-185" type="curve" smooth="yes"/>
      <point x="818" y="-133"/>
      <point x="774" y="-89"/>
      <point x="722" y="-89" type="curve" smooth="yes"/>
      <point x="146" y="-89" type="line" smooth="yes"/>
      <point x="94" y="-89"/>
      <point x="50" y="-133"/>
      <point x="50" y="-185" type="curve" smooth="yes"/>
      <point x="50" y="-237"/>
      <point x="94" y="-281"/>
    </contour>
  </outline>
</glyph>
<glyph name="grave" format="1">
  <advance width="671"/>
  <unicode hex="0060"/>
  <outline>
    <contour>
      <point x="598" y="853" type="curve" smooth="yes"/>
      <point x="639" y="914"/>
      <point x="622" y="1000"/>
      <point x="560" y="1041" type="curve" smooth="yes"/>
      <point x="260" y="1241" type="line" smooth="yes"/>
      <point x="199" y="1282"/>
      <point x="113" y="1265"/>
      <point x="72" y="1203" type="curve" smooth="yes"/>
      <point x="31" y="1142"/>
      <point x="48" y="1056"/>
      <point x="110" y="1015" type="curve" smooth="yes"/>
      <point x="410" y="815" type="line" smooth="yes"/>
      <point x="471" y="774"/>
      <point x="557" y="791"/>
    </contour>
  </outline>
</glyph>
<glyph name="a" format="1">
  <advance width="910"/>
  <unicode hex="0061"/>
  <outline>
    <contour>
      <point x="755" y="-109" type="curve" smooth="yes"/>
      <point x="812" y="-109"/>
      <point x="860" y="-61"/>
      <point x="860" y="-4" type="curve" smooth="yes"/>
      <point x="860" y="562" type="line" smooth="yes"/>
      <point x="860" y="566"/>
      <point x="860" y="571"/>
      <point x="859" y="574" type="curve" smooth="yes"/>
      <point x="842" y="723" type="line" smooth="yes"/>
      <point x="839" y="751"/>
      <point x="817" y="785"/>
      <point x="793" y="800" type="curve" smooth="yes"/>
      <point x="662" y="882" type="line" smooth="yes"/>
      <point x="648" y="890"/>
      <point x="624" y="898"/>
      <point x="608" y="898" type="curve" smooth="yes"/>
      <point x="457" y="901" type="line" smooth="yes"/>
      <point x="455" y="901"/>
      <point x="454" y="901"/>
      <point x="452" y="901" type="curve" smooth="yes"/>
      <point x="301" y="898" type="line" smooth="yes"/>
      <point x="285" y="898"/>
      <point x="261" y="891"/>
      <point x="248" y="883" type="curve" smooth="yes"/>
      <point x="117" y="802" type="line" smooth="yes"/>
      <point x="92" y="787"/>
      <point x="70" y="752"/>
      <point x="67" y="724" type="curve" smooth="yes"/>
      <point x="51" y="571" type="line" smooth="yes"/>
      <point x="50" y="568"/>
      <point x="50" y="563"/>
      <point x="50" y="560" type="curve" smooth="yes"/>
      <point x="50" y="409" type="line"/>
      <point x="50" y="254" type="line"/>
      <point x="55" y="105" type="line" smooth="yes"/>
      <point x="60" y="-28"/>
      <point x="250" y="-35"/>
      <point x="265" y="98" type="curve" smooth="yes"/>
      <point x="276" y="198" type="line"/>
      <point x="336" y="238" type="line"/>
      <point x="455" y="241" type="line"/>
      <point x="650" y="241" type="line"/>
      <point x="650" y="-4" type="line" smooth="yes"/>
      <point x="650" y="-61"/>
      <point x="698" y="-109"/>
    </contour>
    <contour>
      <point x="455" y="451" type="line"/>
      <point x="301" y="448" type="line" smooth="yes"/>
      <point x="289" y="448"/>
      <point x="273" y="443"/>
      <point x="260" y="438" type="curve"/>
      <point x="260" y="554" type="line"/>
      <point x="270" y="650" type="line"/>
      <point x="333" y="689" type="line"/>
      <point x="454" y="691" type="line"/>
      <point x="575" y="689" type="line"/>
      <point x="639" y="648" type="line"/>
      <point x="650" y="556" type="line"/>
      <point x="650" y="451" type="line"/>
    </contour>
  </outline>
</glyph>
<glyph name="b" format="1">
  <advance width="887"/>
  <unicode hex="0062"/>
  <outline>
    <contour>
      <point x="392" y="-87" type="curve" smooth="yes"/>
      <point x="767" y="34" type="line" smooth="yes"/>
      <point x="841" y="58"/>
      <point x="860" y="139"/>
      <point x="805" y="194" type="curve" smooth="yes"/>
      <point x="633" y="364" type="line"/>
      <point x="638" y="375"/>
      <point x="641" y="387"/>
      <point x="642" y="400" type="curve" smooth="yes"/>
      <point x="658" y="800" type="line" smooth="yes"/>
      <point x="660" y="864"/>
      <point x="609" y="909"/>
      <point x="545" y="898" type="curve" smooth="yes"/>
      <point x="155" y="830" type="line" smooth="yes"/>
      <point x="114" y="823"/>
      <point x="78" y="784"/>
      <point x="75" y="742" type="curve" smooth="yes"/>
      <point x="56" y="436" type="line"/>
      <point x="52" y="426"/>
      <point x="50" y="415"/>
      <point x="50" y="404" type="curve" smooth="yes"/>
      <point x="50" y="397"/>
      <point x="51" y="390"/>
      <point x="52" y="383" type="curve"/>
      <point x="50" y="347" type="line" smooth="yes"/>
      <point x="49" y="329"/>
      <point x="56" y="303"/>
      <point x="65" y="289" type="curve" smooth="yes"/>
      <point x="281" y="-48" type="line" smooth="yes"/>
      <point x="303" y="-82"/>
      <point x="353" y="-100"/>
    </contour>
    <contour>
      <point x="454" y="500" type="line"/>
      <point x="252" y="500" type="line"/>
      <point x="262" y="654" type="line"/>
      <point x="461" y="689" type="line"/>
    </contour>
    <contour>
      <point x="558" y="168" type="line"/>
      <point x="403" y="118" type="line"/>
      <point x="281" y="308" type="line"/>
      <point x="417" y="308" type="line"/>
    </contour>
  </outline>
</glyph>
<glyph name="c" format="1">
  <advance width="928"/>
  <unicode hex="0063"/>
  <outline>
    <contour>
      <point x="494" y="-116" type="line"/>
      <point x="643" y="-111" type="line" smooth="yes"/>
      <point x="665" y="-110"/>
      <point x="696" y="-98"/>
      <point x="713" y="-84" type="curve" smooth="yes"/>
      <point x="822" y="8" type="line" smooth="yes"/>
      <point x="840" y="23"/>
      <point x="858" y="54"/>
      <point x="861" y="78" type="curve" smooth="yes"/>
      <point x="877" y="181" type="line" smooth="yes"/>
      <point x="886" y="242"/>
      <point x="842" y="301"/>
      <point x="781" y="311" type="curve" smooth="yes"/>
      <point x="720" y="320"/>
      <point x="661" y="276"/>
      <point x="651" y="215" type="curve" smooth="yes"/>
      <point x="642" y="155" type="line"/>
      <point x="596" y="116" type="line"/>
      <point x="494" y="112" type="line"/>
      <point x="368" y="112" type="line"/>
      <point x="301" y="132" type="line"/>
      <point x="278" y="198" type="line"/>
      <point x="278" y="325" type="line"/>
      <point x="278" y="589" type="line"/>
      <point x="293" y="656" type="line"/>
      <point x="352" y="683" type="line"/>
      <point x="470" y="684" type="line"/>
      <point x="584" y="682" type="line"/>
      <point x="633" y="657" type="line"/>
      <point x="653" y="572" type="line" smooth="yes"/>
      <point x="667" y="512"/>
      <point x="731" y="473"/>
      <point x="790" y="487" type="curve" smooth="yes"/>
      <point x="850" y="501"/>
      <point x="889" y="565"/>
      <point x="875" y="624" type="curve" smooth="yes"/>
      <point x="842" y="762" type="line" smooth="yes"/>
      <point x="835" y="791"/>
      <point x="808" y="824"/>
      <point x="782" y="838" type="curve" smooth="yes"/>
      <point x="663" y="897" type="line" smooth="yes"/>
      <point x="650" y="903"/>
      <point x="629" y="909"/>
      <point x="615" y="909" type="curve" smooth="yes"/>
      <point x="474" y="912" type="line"/>
      <point x="326" y="911" type="line" smooth="yes"/>
      <point x="313" y="911"/>
      <point x="293" y="906"/>
      <point x="281" y="901" type="curve" smooth="yes"/>
      <point x="148" y="841" type="line" smooth="yes"/>
      <point x="119" y="828"/>
      <point x="90" y="793"/>
      <point x="83" y="762" type="curve" smooth="yes"/>
      <point x="53" y="627" type="line" smooth="yes"/>
      <point x="51" y="620"/>
      <point x="50" y="609"/>
      <point x="50" y="602" type="curve" smooth="yes"/>
      <point x="50" y="325" type="line"/>
      <point x="50" y="178" type="line" smooth="yes"/>
      <point x="50" y="167"/>
      <point x="53" y="150"/>
      <point x="57" y="140" type="curve" smooth="yes"/>
      <point x="105" y="2" type="line" smooth="yes"/>
      <point x="116" y="-28"/>
      <point x="149" y="-60"/>
      <point x="180" y="-69" type="curve" smooth="yes"/>
      <point x="317" y="-111" type="line" smooth="yes"/>
      <point x="326" y="-114"/>
      <point x="341" y="-116"/>
      <point x="351" y="-116" type="curve" smooth="yes"/>
    </contour>
  </outline>
</glyph>
<glyph name="d" format="1">
  <advance width="868"/>
  <unicode hex="0064"/>
  <outline>
    <contour>
      <point x="334" y="-85" type="curve" smooth="yes"/>
      <point x="541" y="-85" type="line" smooth="yes"/>
      <point x="552" y="-85"/>
      <point x="570" y="-80"/>
      <point x="581" y="-75" type="curve" smooth="yes"/>
      <point x="759" y="22" type="line" smooth="yes"/>
      <point x="781" y="34"/>
      <point x="800" y="64"/>
      <point x="802" y="90" type="curve" smooth="yes"/>
      <point x="818" y="293" type="line" smooth="yes"/>
      <point x="818" y="294"/>
      <point x="818" y="297"/>
      <point x="818" y="299" type="curve" smooth="yes"/>
      <point x="818" y="589" type="line" smooth="yes"/>
      <point x="818" y="592"/>
      <point x="818" y="595"/>
      <point x="818" y="597" type="curve"/>
      <point x="818" y="609"/>
      <point x="816" y="623"/>
      <point x="809" y="636" type="curve" smooth="yes"/>
      <point x="722" y="816" type="line" smooth="yes"/>
      <point x="710" y="839"/>
      <point x="680" y="860"/>
      <point x="654" y="863" type="curve" smooth="yes"/>
      <point x="450" y="883" type="line" smooth="yes"/>
      <point x="448" y="883"/>
      <point x="444" y="883"/>
      <point x="442" y="883" type="curve" smooth="yes"/>
      <point x="243" y="883" type="line" smooth="yes"/>
      <point x="217" y="883"/>
      <point x="185" y="866"/>
      <point x="172" y="844" type="curve" smooth="yes"/>
      <point x="63" y="674" type="line" smooth="yes"/>
      <point x="56" y="663"/>
      <point x="50" y="643"/>
      <point x="50" y="629" type="curve" smooth="yes"/>
      <point x="50" y="29" type="line"/>
      <point x="50" y="-11"/>
      <point x="82" y="-48"/>
      <point x="122" y="-54" type="curve" smooth="yes"/>
      <point x="322" y="-84" type="line" smooth="yes"/>
      <point x="325" y="-85"/>
      <point x="331" y="-85"/>
    </contour>
    <contour>
      <point x="519" y="83" type="line"/>
      <point x="340" y="83" type="line"/>
      <point x="218" y="101" type="line"/>
      <point x="218" y="604" type="line"/>
      <point x="289" y="715" type="line"/>
      <point x="438" y="715" type="line"/>
      <point x="591" y="700" type="line"/>
      <point x="650" y="580" type="line"/>
      <point x="650" y="302" type="line"/>
      <point x="638" y="148" type="line"/>
    </contour>
  </outline>
</glyph>
<glyph name="e" format="1">
  <advance width="821"/>
  <unicode hex="0065"/>
  <outline>
    <contour>
      <point x="511" y="-61" type="line" smooth="yes"/>
      <point x="515" y="-61"/>
      <point x="518" y="-61"/>
      <point x="522" y="-60" type="curve"/>
      <point x="535" y="-58"/>
      <point x="547" y="-53"/>
      <point x="556" y="-43" type="curve" smooth="yes"/>
      <point x="754" y="153" type="line" smooth="yes"/>
      <point x="777" y="176"/>
      <point x="778" y="216"/>
      <point x="754" y="239" type="curve" smooth="yes"/>
      <point x="731" y="262"/>
      <point x="691" y="263"/>
      <point x="668" y="239" type="curve" smooth="yes"/>
      <point x="488" y="61" type="line"/>
      <point x="422" y="61" type="line"/>
      <point x="292" y="61" type="line"/>
      <point x="201" y="101" type="line"/>
      <point x="175" y="199" type="line"/>
      <point x="198" y="293" type="line"/>
      <point x="291" y="336" type="line"/>
      <point x="423" y="340" type="line" smooth="yes"/>
      <point x="503" y="342"/>
      <point x="502" y="461"/>
      <point x="422" y="462" type="curve" smooth="yes"/>
      <point x="291" y="463" type="line"/>
      <point x="197" y="504" type="line"/>
      <point x="173" y="600" type="line"/>
      <point x="191" y="689" type="line"/>
      <point x="275" y="736" type="line"/>
      <point x="398" y="739" type="line"/>
      <point x="531" y="739" type="line"/>
      <point x="622" y="699" type="line"/>
      <point x="651" y="587" type="line" smooth="yes"/>
      <point x="659" y="555"/>
      <point x="693" y="535"/>
      <point x="725" y="543" type="curve" smooth="yes"/>
      <point x="757" y="551"/>
      <point x="777" y="585"/>
      <point x="769" y="617" type="curve" smooth="yes"/>
      <point x="732" y="759" type="line" smooth="yes"/>
      <point x="728" y="775"/>
      <point x="712" y="793"/>
      <point x="697" y="800" type="curve" smooth="yes"/>
      <point x="568" y="856" type="line" smooth="yes"/>
      <point x="561" y="858"/>
      <point x="550" y="861"/>
      <point x="544" y="861" type="curve" smooth="yes"/>
      <point x="399" y="861" type="line"/>
      <point x="257" y="858" type="line" smooth="yes"/>
      <point x="249" y="858"/>
      <point x="236" y="854"/>
      <point x="229" y="850" type="curve" smooth="yes"/>
      <point x="107" y="782" type="line" smooth="yes"/>
      <point x="93" y="775"/>
      <point x="79" y="756"/>
      <point x="76" y="741" type="curve" smooth="yes"/>
      <point x="51" y="609" type="line" smooth="yes"/>
      <point x="50" y="602"/>
      <point x="50" y="591"/>
      <point x="52" y="584" type="curve" smooth="yes"/>
      <point x="85" y="446" type="line" smooth="yes"/>
      <point x="89" y="430"/>
      <point x="105" y="412"/>
      <point x="120" y="405" type="curve" smooth="yes"/>
      <point x="135" y="398" type="line"/>
      <point x="120" y="391" type="line" smooth="yes"/>
      <point x="105" y="385"/>
      <point x="90" y="366"/>
      <point x="86" y="350" type="curve" smooth="yes"/>
      <point x="53" y="212" type="line" smooth="yes"/>
      <point x="51" y="204"/>
      <point x="51" y="191"/>
      <point x="53" y="183" type="curve" smooth="yes"/>
      <point x="90" y="41" type="line" smooth="yes"/>
      <point x="94" y="25"/>
      <point x="110" y="7"/>
      <point x="125" y="0" type="curve" smooth="yes"/>
      <point x="255" y="-56" type="line" smooth="yes"/>
      <point x="261" y="-58"/>
      <point x="272" y="-61"/>
      <point x="279" y="-61" type="curve" smooth="yes"/>
      <point x="422" y="-61" type="line" smooth="yes"/>
      <point x="422" y="-61"/>
      <point x="422" y="-61"/>
      <point x="422" y="-61" type="curve" smooth="yes"/>
    </contour>
  </outline>
</glyph>
<glyph name="f" format="1">
  <advance width="1004"/>
  <unicode hex="0066"/>
  <outline>
    <contour>
      <point x="603" y="557" type="curve" smooth="yes"/>
      <point x="403" y="557" type="line" smooth="yes"/>
      <point x="401" y="557"/>
      <point x="399" y="557"/>
      <point x="397" y="557" type="curve"/>
      <point x="406" y="633" type="line"/>
      <point x="521" y="645" type="line"/>
      <point x="626" y="555" type="line"/>
      <point x="618" y="556"/>
      <point x="611" y="557"/>
    </contour>
    <contour>
      <point x="356" y="3" type="curve" smooth="yes"/>
      <point x="357" y="155" type="line"/>
      <point x="366" y="256" type="line"/>
      <point x="378" y="253"/>
      <point x="390" y="251"/>
      <point x="403" y="251" type="curve" smooth="yes"/>
      <point x="603" y="251" type="line" smooth="yes"/>
      <point x="686" y="251"/>
      <point x="756" y="321"/>
      <point x="756" y="404" type="curve" smooth="yes"/>
      <point x="756" y="426"/>
      <point x="751" y="447"/>
      <point x="743" y="465" type="curve"/>
      <point x="802" y="441"/>
      <point x="875" y="456"/>
      <point x="918" y="507" type="curve" smooth="yes"/>
      <point x="972" y="569"/>
      <point x="964" y="669"/>
      <point x="901" y="722" type="curve" smooth="yes"/>
      <point x="670" y="920" type="line" smooth="yes"/>
      <point x="642" y="944"/>
      <point x="591" y="960"/>
      <point x="555" y="956" type="curve" smooth="yes"/>
      <point x="252" y="925" type="line" smooth="yes"/>
      <point x="185" y="918"/>
      <point x="123" y="858"/>
      <point x="116" y="790" type="curve" smooth="yes"/>
      <point x="81" y="486" type="line"/>
      <point x="52" y="177" type="line" smooth="yes"/>
      <point x="51" y="173"/>
      <point x="51" y="167"/>
      <point x="51" y="163" type="curve" smooth="yes"/>
      <point x="50" y="5" type="line" smooth="yes"/>
      <point x="50" y="-78"/>
      <point x="120" y="-149"/>
      <point x="202" y="-149" type="curve" smooth="yes"/>
      <point x="285" y="-149"/>
      <point x="356" y="-79"/>
    </contour>
  </outline>
</glyph>
<glyph name="g" format="1">
  <advance width="970"/>
  <unicode hex="0067"/>
  <outline>
    <contour>
      <point x="397" y="-131" type="curve" smooth="yes"/>
      <point x="537" y="-131" type="line"/>
      <point x="606" y="-131" type="line" smooth="yes"/>
      <point x="611" y="-131"/>
      <point x="620" y="-130"/>
      <point x="625" y="-129" type="curve" smooth="yes"/>
      <point x="699" y="-118" type="line" smooth="yes"/>
      <point x="713" y="-116"/>
      <point x="733" y="-108"/>
      <point x="745" y="-102" type="curve" smooth="yes"/>
      <point x="810" y="-65" type="line" smooth="yes"/>
      <point x="829" y="-54"/>
      <point x="852" y="-29"/>
      <point x="863" y="-10" type="curve" smooth="yes"/>
      <point x="898" y="58" type="line" smooth="yes"/>
      <point x="905" y="71"/>
      <point x="912" y="94"/>
      <point x="913" y="109" type="curve" smooth="yes"/>
      <point x="919" y="179" type="line" smooth="yes"/>
      <point x="920" y="182"/>
      <point x="920" y="187"/>
      <point x="920" y="191" type="curve" smooth="yes"/>
      <point x="920" y="264" type="line"/>
      <point x="920" y="334" type="line" smooth="yes"/>
      <point x="920" y="349"/>
      <point x="915" y="373"/>
      <point x="909" y="387" type="curve" smooth="yes"/>
      <point x="879" y="457" type="line" smooth="yes"/>
      <point x="874" y="469"/>
      <point x="866" y="480"/>
      <point x="857" y="491" type="curve"/>
      <point x="897" y="517"/>
      <point x="923" y="564"/>
      <point x="920" y="614" type="curve" smooth="yes"/>
      <point x="914" y="689" type="line" smooth="yes"/>
      <point x="913" y="703"/>
      <point x="907" y="725"/>
      <point x="901" y="737" type="curve" smooth="yes"/>
      <point x="868" y="807" type="line" smooth="yes"/>
      <point x="859" y="825"/>
      <point x="838" y="850"/>
      <point x="821" y="861" type="curve" smooth="yes"/>
      <point x="761" y="901" type="line" smooth="yes"/>
      <point x="749" y="909"/>
      <point x="728" y="918"/>
      <point x="714" y="921" type="curve" smooth="yes"/>
      <point x="645" y="935" type="line" smooth="yes"/>
      <point x="638" y="936"/>
      <point x="627" y="937"/>
      <point x="620" y="938" type="curve" smooth="yes"/>
      <point x="545" y="939" type="line"/>
      <point x="403" y="939" type="line"/>
      <point x="327" y="936" type="line" smooth="yes"/>
      <point x="317" y="935"/>
      <point x="303" y="933"/>
      <point x="294" y="930" type="curve" smooth="yes"/>
      <point x="220" y="908" type="line" smooth="yes"/>
      <point x="203" y="903"/>
      <point x="178" y="888"/>
      <point x="164" y="875" type="curve" smooth="yes"/>
      <point x="111" y="823" type="line" smooth="yes"/>
      <point x="97" y="809"/>
      <point x="81" y="781"/>
      <point x="75" y="762" type="curve" smooth="yes"/>
      <point x="56" y="690" type="line" smooth="yes"/>
      <point x="54" y="681"/>
      <point x="52" y="667"/>
      <point x="51" y="657" type="curve" smooth="yes"/>
      <point x="50" y="587" type="line"/>
      <point x="50" y="514" type="line"/>
      <point x="50" y="234" type="line"/>
      <point x="51" y="158" type="line" smooth="yes"/>
      <point x="51" y="150"/>
      <point x="53" y="136"/>
      <point x="55" y="128" type="curve" smooth="yes"/>
      <point x="73" y="56" type="line" smooth="yes"/>
      <point x="77" y="38"/>
      <point x="91" y="12"/>
      <point x="104" y="-2" type="curve" smooth="yes"/>
      <point x="153" y="-56" type="line" smooth="yes"/>
      <point x="166" y="-70"/>
      <point x="190" y="-86"/>
      <point x="207" y="-93" type="curve" smooth="yes"/>
      <point x="276" y="-118" type="line" smooth="yes"/>
      <point x="286" y="-121"/>
      <point x="302" y="-125"/>
      <point x="312" y="-125" type="curve" smooth="yes"/>
      <point x="387" y="-131" type="line" smooth="yes"/>
      <point x="390" y="-131"/>
      <point x="394" y="-131"/>
    </contour>
    <contour>
      <point x="615" y="539" type="line"/>
      <point x="566" y="540" type="line"/>
      <point x="535" y="546" type="line"/>
      <point x="529" y="551" type="line"/>
      <point x="523" y="563" type="line"/>
      <point x="520" y="613" type="line" smooth="yes"/>
      <point x="518" y="633"/>
      <point x="512" y="652"/>
      <point x="503" y="669" type="curve"/>
      <point x="541" y="669" type="line"/>
      <point x="602" y="668" type="line"/>
      <point x="633" y="661" type="line"/>
      <point x="641" y="657" type="line"/>
      <point x="647" y="644" type="line"/>
      <point x="650" y="594" type="line" smooth="yes"/>
      <point x="652" y="574"/>
      <point x="658" y="556"/>
      <point x="667" y="539" type="curve"/>
    </contour>
    <contour>
      <point x="320" y="234" type="line"/>
      <point x="320" y="373" type="line"/>
      <point x="329" y="362"/>
      <point x="339" y="353"/>
      <point x="348" y="347" type="curve" smooth="yes"/>
      <point x="407" y="307" type="line" smooth="yes"/>
      <point x="419" y="299"/>
      <point x="440" y="290"/>
      <point x="455" y="287" type="curve" smooth="yes"/>
      <point x="523" y="273" type="line" smooth="yes"/>
      <point x="530" y="272"/>
      <point x="541" y="271"/>
      <point x="548" y="270" type="curve" smooth="yes"/>
      <point x="615" y="269" type="line"/>
      <point x="650" y="269" type="line"/>
      <point x="650" y="264" type="line"/>
      <point x="650" y="196" type="line"/>
      <point x="647" y="159" type="line"/>
      <point x="642" y="150" type="line"/>
      <point x="633" y="145" type="line"/>
      <point x="594" y="139" type="line"/>
      <point x="537" y="139" type="line"/>
      <point x="402" y="139" type="line"/>
      <point x="351" y="143" type="line"/>
      <point x="331" y="150" type="line"/>
      <point x="327" y="154" type="line"/>
      <point x="321" y="178" type="line"/>
    </contour>
  </outline>
</glyph>
<glyph name="h" format="1">
  <advance width="858"/>
  <unicode hex="0068"/>
  <outline>
    <contour>
      <point x="729" y="-83" type="curve" smooth="yes"/>
      <point x="772" y="-83"/>
      <point x="808" y="-47"/>
      <point x="808" y="-4" type="curve" smooth="yes"/>
      <point x="808" y="716" type="line" smooth="yes"/>
      <point x="808" y="820"/>
      <point x="654" y="822"/>
      <point x="650" y="719" type="curve" smooth="yes"/>
      <point x="645" y="568" type="line"/>
      <point x="570" y="482" type="line"/>
      <point x="425" y="475" type="line"/>
      <point x="247" y="467" type="line" smooth="yes"/>
      <point x="235" y="466"/>
      <point x="220" y="461"/>
      <point x="208" y="453" type="curve"/>
      <point x="208" y="796" type="line" smooth="yes"/>
      <point x="208" y="839"/>
      <point x="172" y="875"/>
      <point x="129" y="875" type="curve" smooth="yes"/>
      <point x="86" y="875"/>
      <point x="50" y="839"/>
      <point x="50" y="796" type="curve" smooth="yes"/>
      <point x="50" y="426" type="line"/>
      <point x="50" y="245" type="line"/>
      <point x="52" y="65" type="line" smooth="yes"/>
      <point x="53" y="-38"/>
      <point x="207" y="-40"/>
      <point x="210" y="64" type="curve" smooth="yes"/>
      <point x="214" y="218" type="line"/>
      <point x="290" y="310" type="line"/>
      <point x="433" y="317" type="line"/>
      <point x="611" y="325" type="line" smooth="yes"/>
      <point x="623" y="326"/>
      <point x="638" y="331"/>
      <point x="650" y="339" type="curve"/>
      <point x="650" y="-4" type="line" smooth="yes"/>
      <point x="650" y="-47"/>
      <point x="686" y="-83"/>
    </contour>
  </outline>
</glyph>
<glyph name="i" format="1">
  <advance width="852"/>
  <unicode hex="0069"/>
  <outline>
    <contour>
      <point x="126" y="-77" type="curve" smooth="yes"/>
      <point x="506" y="-77" type="line" smooth="yes"/>
      <point x="557" y="-77"/>
      <point x="591" y="-35"/>
      <point x="580" y="15" type="curve" smooth="yes"/>
      <point x="501" y="381" type="line"/>
      <point x="465" y="684" type="line"/>
      <point x="737" y="724" type="line" smooth="yes"/>
      <point x="778" y="730"/>
      <point x="807" y="769"/>
      <point x="801" y="810" type="curve" smooth="yes"/>
      <point x="795" y="851"/>
      <point x="756" y="880"/>
      <point x="715" y="874" type="curve" smooth="yes"/>
      <point x="370" y="824" type="line" smooth="yes"/>
      <point x="330" y="818"/>
      <point x="301" y="780"/>
      <point x="306" y="740" type="curve" smooth="yes"/>
      <point x="351" y="360" type="line" smooth="yes"/>
      <point x="351" y="358"/>
      <point x="351" y="355"/>
      <point x="352" y="353" type="curve" smooth="yes"/>
      <point x="412" y="75" type="line"/>
      <point x="126" y="75" type="line" smooth="yes"/>
      <point x="85" y="75"/>
      <point x="50" y="40"/>
      <point x="50" y="-1" type="curve" smooth="yes"/>
      <point x="50" y="-42"/>
      <point x="85" y="-77"/>
    </contour>
  </outline>
</glyph>
<glyph name="j" format="1">
  <advance width="1000"/>
  <unicode hex="006A"/>
  <outline>
    <contour>
      <point x="205" y="-151" type="curve" smooth="yes"/>
      <point x="370" y="-146" type="line" smooth="yes"/>
      <point x="427" y="-144"/>
      <point x="488" y="-98"/>
      <point x="507" y="-44" type="curve" smooth="yes"/>
      <point x="642" y="350" type="line" smooth="yes"/>
      <point x="650" y="375"/>
      <point x="651" y="414"/>
      <point x="645" y="439" type="curve" smooth="yes"/>
      <point x="587" y="649" type="line"/>
      <point x="800" y="649" type="line" smooth="yes"/>
      <point x="881" y="649"/>
      <point x="950" y="718"/>
      <point x="950" y="799" type="curve" smooth="yes"/>
      <point x="950" y="880"/>
      <point x="881" y="949"/>
      <point x="800" y="949" type="curve" smooth="yes"/>
      <point x="390" y="949" type="line" smooth="yes"/>
      <point x="285" y="949"/>
      <point x="218" y="860"/>
      <point x="245" y="759" type="curve" smooth="yes"/>
      <point x="343" y="404" type="line"/>
      <point x="256" y="151" type="line"/>
      <point x="195" y="149" type="line" smooth="yes"/>
      <point x="114" y="146"/>
      <point x="47" y="75"/>
      <point x="50" y="-6" type="curve" smooth="yes"/>
      <point x="53" y="-87"/>
      <point x="124" y="-154"/>
    </contour>
  </outline>
</glyph>
<glyph name="k" format="1">
  <advance width="952"/>
  <unicode hex="006B"/>
  <outline>
    <contour>
      <point x="839" y="-105" type="curve" smooth="yes"/>
      <point x="898" y="-71"/>
      <point x="919" y="8"/>
      <point x="885" y="67" type="curve" smooth="yes"/>
      <point x="743" y="314" type="line"/>
      <point x="804" y="352" type="line" smooth="yes"/>
      <point x="823" y="364"/>
      <point x="845" y="389"/>
      <point x="854" y="410" type="curve" smooth="yes"/>
      <point x="887" y="487" type="line" smooth="yes"/>
      <point x="892" y="499"/>
      <point x="897" y="519"/>
      <point x="897" y="531" type="curve" smooth="yes"/>
      <point x="901" y="619" type="line"/>
      <point x="902" y="713" type="line"/>
      <point x="902" y="803" type="line" smooth="yes"/>
      <point x="902" y="871"/>
      <point x="845" y="930"/>
      <point x="777" y="930" type="curve" smooth="yes"/>
      <point x="709" y="930"/>
      <point x="650" y="873"/>
      <point x="650" y="805" type="curve" smooth="yes"/>
      <point x="650" y="715" type="line"/>
      <point x="649" y="629" type="line"/>
      <point x="647" y="565" type="line"/>
      <point x="638" y="546" type="line"/>
      <point x="624" y="537" type="line"/>
      <point x="566" y="530" type="line"/>
      <point x="534" y="535"/>
      <point x="499" y="527"/>
      <point x="469" y="504" type="curve" smooth="yes"/>
      <point x="304" y="377" type="line"/>
      <point x="302" y="585" type="line"/>
      <point x="302" y="804" type="line" smooth="yes"/>
      <point x="302" y="872"/>
      <point x="244" y="930"/>
      <point x="176" y="930" type="curve" smooth="yes"/>
      <point x="108" y="930"/>
      <point x="50" y="872"/>
      <point x="50" y="804" type="curve" smooth="yes"/>
      <point x="50" y="583" type="line"/>
      <point x="55" y="123" type="line" smooth="yes"/>
      <point x="57" y="9"/>
      <point x="168" y="-45"/>
      <point x="258" y="24" type="curve" smooth="yes"/>
      <point x="509" y="216" type="line"/>
      <point x="667" y="-59" type="line" smooth="yes"/>
      <point x="701" y="-118"/>
      <point x="780" y="-139"/>
    </contour>
  </outline>
</glyph>
<glyph name="l" format="1">
  <advance width="866"/>
  <unicode hex="006C"/>
  <outline>
    <contour>
      <point x="513" y="-83" type="curve" smooth="yes"/>
      <point x="733" y="-83" type="line" smooth="yes"/>
      <point x="778" y="-83"/>
      <point x="816" y="-45"/>
      <point x="816" y="0" type="curve" smooth="yes"/>
      <point x="816" y="45"/>
      <point x="778" y="83"/>
      <point x="733" y="83" type="curve" smooth="yes"/>
      <point x="513" y="83" type="line"/>
      <point x="330" y="83" type="line"/>
      <point x="219" y="187" type="line"/>
      <point x="216" y="360" type="line"/>
      <point x="216" y="800" type="line" smooth="yes"/>
      <point x="216" y="845"/>
      <point x="178" y="883"/>
      <point x="133" y="883" type="curve" smooth="yes"/>
      <point x="88" y="883"/>
      <point x="50" y="845"/>
      <point x="50" y="800" type="curve" smooth="yes"/>
      <point x="50" y="360" type="line"/>
      <point x="53" y="149" type="line" smooth="yes"/>
      <point x="53" y="129"/>
      <point x="65" y="102"/>
      <point x="80" y="89" type="curve" smooth="yes"/>
      <point x="241" y="-60" type="line" smooth="yes"/>
      <point x="254" y="-72"/>
      <point x="279" y="-82"/>
      <point x="297" y="-82" type="curve" smooth="yes"/>
      <point x="513" y="-83" type="line" smooth="yes"/>
      <point x="513" y="-83"/>
      <point x="513" y="-83"/>
    </contour>
  </outline>
</glyph>
<glyph name="m" format="1">
  <advance width="916"/>
  <unicode hex="006D"/>
  <outline>
    <contour>
      <point x="758" y="-109" type="curve" smooth="yes"/>
      <point x="816" y="-109"/>
      <point x="866" y="-59"/>
      <point x="866" y="-1" type="curve" smooth="yes"/>
      <point x="866" y="719" type="line" smooth="yes"/>
      <point x="866" y="815"/>
      <point x="773" y="862"/>
      <point x="695" y="807" type="curve" smooth="yes"/>
      <point x="487" y="658" type="line"/>
      <point x="335" y="863" type="line" smooth="yes"/>
      <point x="276" y="943"/>
      <point x="168" y="922"/>
      <point x="143" y="826" type="curve" smooth="yes"/>
      <point x="53" y="476" type="line" smooth="yes"/>
      <point x="52" y="469"/>
      <point x="50" y="457"/>
      <point x="50" y="449" type="curve" smooth="yes"/>
      <point x="50" y="-1" type="line" smooth="yes"/>
      <point x="50" y="-59"/>
      <point x="100" y="-109"/>
      <point x="158" y="-109" type="curve" smooth="yes"/>
      <point x="216" y="-109"/>
      <point x="266" y="-59"/>
      <point x="266" y="-1" type="curve" smooth="yes"/>
      <point x="266" y="435" type="line"/>
      <point x="296" y="553" type="line"/>
      <point x="376" y="445" type="line" smooth="yes"/>
      <point x="411" y="398"/>
      <point x="478" y="387"/>
      <point x="526" y="421" type="curve" smooth="yes"/>
      <point x="650" y="510" type="line"/>
      <point x="650" y="-1" type="line" smooth="yes"/>
      <point x="650" y="-59"/>
      <point x="700" y="-109"/>
    </contour>
  </outline>
</glyph>
<glyph name="n" format="1">
  <advance width="790"/>
  <unicode hex="006E"/>
  <outline>
    <contour>
      <point x="648" y="-16" type="curve" smooth="yes"/>
      <point x="738" y="244" type="line" smooth="yes"/>
      <point x="739" y="248"/>
      <point x="740" y="255"/>
      <point x="740" y="259" type="curve" smooth="yes"/>
      <point x="740" y="799" type="line" smooth="yes"/>
      <point x="740" y="823"/>
      <point x="719" y="844"/>
      <point x="695" y="844" type="curve" smooth="yes"/>
      <point x="671" y="844"/>
      <point x="650" y="823"/>
      <point x="650" y="799" type="curve" smooth="yes"/>
      <point x="650" y="267" type="line"/>
      <point x="584" y="77" type="line"/>
      <point x="440" y="202" type="line"/>
      <point x="440" y="459" type="line" smooth="yes"/>
      <point x="440" y="460"/>
      <point x="440" y="463"/>
      <point x="440" y="464" type="curve" smooth="yes"/>
      <point x="409" y="737" type="line" smooth="yes"/>
      <point x="406" y="765"/>
      <point x="381" y="782"/>
      <point x="354" y="776" type="curve" smooth="yes"/>
      <point x="85" y="713" type="line" smooth="yes"/>
      <point x="66" y="708"/>
      <point x="50" y="689"/>
      <point x="50" y="669" type="curve"/>
      <point x="50" y="-1" type="line" smooth="yes"/>
      <point x="50" y="-25"/>
      <point x="71" y="-46"/>
      <point x="95" y="-46" type="curve" smooth="yes"/>
      <point x="119" y="-46"/>
      <point x="140" y="-25"/>
      <point x="140" y="-1" type="curve" smooth="yes"/>
      <point x="140" y="633" type="line"/>
      <point x="325" y="677" type="line"/>
      <point x="350" y="456" type="line"/>
      <point x="350" y="181" type="line" smooth="yes"/>
      <point x="350" y="170"/>
      <point x="357" y="155"/>
      <point x="366" y="147" type="curve" smooth="yes"/>
      <point x="575" y="-35" type="line" smooth="yes"/>
      <point x="601" y="-57"/>
      <point x="636" y="-48"/>
    </contour>
  </outline>
</glyph>
<glyph name="o" format="1">
  <advance width="933"/>
  <unicode hex="006F"/>
  <outline>
    <contour>
      <point x="282" y="319" type="line"/>
      <point x="282" y="586" type="line"/>
      <point x="297" y="655" type="line"/>
      <point x="355" y="682" type="line"/>
      <point x="472" y="683" type="line"/>
      <point x="585" y="681" type="line"/>
      <point x="636" y="653" type="line"/>
      <point x="651" y="578" type="line"/>
      <point x="651" y="449" type="line"/>
      <point x="651" y="309" type="line"/>
      <point x="651" y="194" type="line"/>
      <point x="626" y="133" type="line"/>
      <point x="555" y="115" type="line"/>
      <point x="489" y="115" type="line"/>
      <point x="368" y="115" type="line"/>
      <point x="307" y="135" type="line"/>
      <point x="282" y="200" type="line"/>
    </contour>
    <contour>
      <point x="560" y="-117" type="line" smooth="yes"/>
      <point x="562" y="-117"/>
      <point x="565" y="-117"/>
      <point x="567" y="-117" type="curve"/>
      <point x="578" y="-117"/>
      <point x="588" y="-116"/>
      <point x="599" y="-113" type="curve" smooth="yes"/>
      <point x="740" y="-77" type="line" smooth="yes"/>
      <point x="771" y="-69"/>
      <point x="806" y="-39"/>
      <point x="818" y="-9" type="curve" smooth="yes"/>
      <point x="874" y="127" type="line" smooth="yes"/>
      <point x="879" y="138"/>
      <point x="883" y="158"/>
      <point x="883" y="171" type="curve" smooth="yes"/>
      <point x="883" y="309" type="line"/>
      <point x="883" y="449" type="line"/>
      <point x="883" y="589" type="line" smooth="yes"/>
      <point x="883" y="595"/>
      <point x="882" y="605"/>
      <point x="881" y="611" type="curve" smooth="yes"/>
      <point x="853" y="752" type="line" smooth="yes"/>
      <point x="847" y="781"/>
      <point x="821" y="817"/>
      <point x="794" y="832" type="curve" smooth="yes"/>
      <point x="670" y="898" type="line" smooth="yes"/>
      <point x="657" y="905"/>
      <point x="633" y="912"/>
      <point x="618" y="912" type="curve" smooth="yes"/>
      <point x="477" y="915" type="line"/>
      <point x="328" y="914" type="line" smooth="yes"/>
      <point x="315" y="913"/>
      <point x="293" y="909"/>
      <point x="281" y="903" type="curve" smooth="yes"/>
      <point x="148" y="842" type="line" smooth="yes"/>
      <point x="119" y="828"/>
      <point x="90" y="792"/>
      <point x="83" y="761" type="curve" smooth="yes"/>
      <point x="53" y="624" type="line" smooth="yes"/>
      <point x="51" y="617"/>
      <point x="50" y="606"/>
      <point x="50" y="599" type="curve" smooth="yes"/>
      <point x="50" y="319" type="line"/>
      <point x="50" y="178" type="line" smooth="yes"/>
      <point x="50" y="167"/>
      <point x="54" y="148"/>
      <point x="58" y="137" type="curve" smooth="yes"/>
      <point x="110" y="0" type="line" smooth="yes"/>
      <point x="121" y="-29"/>
      <point x="153" y="-60"/>
      <point x="183" y="-69" type="curve" smooth="yes"/>
      <point x="315" y="-111" type="line" smooth="yes"/>
      <point x="325" y="-114"/>
      <point x="340" y="-117"/>
      <point x="350" y="-117" type="curve" smooth="yes"/>
      <point x="489" y="-117" type="line" smooth="yes"/>
      <point x="489" y="-117"/>
      <point x="489" y="-117"/>
      <point x="489" y="-117" type="curve" smooth="yes"/>
    </contour>
  </outline>
</glyph>
<glyph name="p" format="1">
  <advance width="895"/>
  <unicode hex="0070"/>
  <outline>
    <contour>
      <point x="179" y="-126" type="curve" smooth="yes"/>
      <point x="249" y="-126"/>
      <point x="308" y="-67"/>
      <point x="308" y="3" type="curve" smooth="yes"/>
      <point x="308" y="15" type="line"/>
      <point x="766" y="220" type="line" smooth="yes"/>
      <point x="846" y="255"/>
      <point x="869" y="346"/>
      <point x="816" y="416" type="curve" smooth="yes"/>
      <point x="462" y="881" type="line" smooth="yes"/>
      <point x="393" y="971"/>
      <point x="272" y="950"/>
      <point x="237" y="843" type="curve" smooth="yes"/>
      <point x="56" y="293" type="line" smooth="yes"/>
      <point x="53" y="282"/>
      <point x="50" y="264"/>
      <point x="50" y="253" type="curve" smooth="yes"/>
      <point x="50" y="3" type="line" smooth="yes"/>
      <point x="50" y="-67"/>
      <point x="109" y="-126"/>
    </contour>
    <contour>
      <point x="333" y="309" type="line"/>
      <point x="405" y="529" type="line"/>
      <point x="512" y="389" type="line"/>
    </contour>
  </outline>
</glyph>
<glyph name="q" format="1">
  <advance width="937"/>
  <unicode hex="0071"/>
  <outline>
    <contour>
      <point x="448" y="117" type="line"/>
      <point x="364" y="117" type="line"/>
      <point x="314" y="125" type="line"/>
      <point x="298" y="139" type="line"/>
      <point x="287" y="181" type="line"/>
      <point x="286" y="249" type="line"/>
      <point x="286" y="519" type="line"/>
      <point x="286" y="604" type="line"/>
      <point x="293" y="654" type="line"/>
      <point x="307" y="669" type="line"/>
      <point x="348" y="680" type="line"/>
      <point x="416" y="681" type="line"/>
      <point x="505" y="681" type="line"/>
      <point x="587" y="680" type="line"/>
      <point x="625" y="671" type="line"/>
      <point x="641" y="657" type="line"/>
      <point x="650" y="619" type="line"/>
      <point x="651" y="539" type="line"/>
      <point x="651" y="307" type="line"/>
      <point x="644" y="296" type="line"/>
      <point x="593" y="279" type="line" smooth="yes"/>
      <point x="572" y="272"/>
      <point x="545" y="251"/>
      <point x="533" y="232" type="curve" smooth="yes"/>
      <point x="482" y="155" type="line" smooth="yes"/>
      <point x="476" y="145"/>
      <point x="470" y="130"/>
      <point x="466" y="117" type="curve"/>
    </contour>
    <contour>
      <point x="559" y="-119" type="line" smooth="yes"/>
      <point x="561" y="-119"/>
      <point x="562" y="-119"/>
      <point x="564" y="-119" type="curve"/>
      <point x="624" y="-121"/>
      <point x="678" y="-76"/>
      <point x="686" y="-16" type="curve" smooth="yes"/>
      <point x="694" y="48" type="line"/>
      <point x="708" y="69" type="line"/>
      <point x="756" y="86" type="line" smooth="yes"/>
      <point x="776" y="93"/>
      <point x="802" y="112"/>
      <point x="814" y="129" type="curve" smooth="yes"/>
      <point x="865" y="200" type="line" smooth="yes"/>
      <point x="877" y="217"/>
      <point x="887" y="248"/>
      <point x="887" y="269" type="curve" smooth="yes"/>
      <point x="887" y="539" type="line"/>
      <point x="886" y="635" type="line" smooth="yes"/>
      <point x="886" y="643"/>
      <point x="885" y="656"/>
      <point x="883" y="664" type="curve" smooth="yes"/>
      <point x="860" y="751" type="line" smooth="yes"/>
      <point x="855" y="771"/>
      <point x="839" y="797"/>
      <point x="824" y="810" type="curve" smooth="yes"/>
      <point x="759" y="867" type="line" smooth="yes"/>
      <point x="747" y="878"/>
      <point x="724" y="890"/>
      <point x="708" y="894" type="curve" smooth="yes"/>
      <point x="629" y="912" type="line" smooth="yes"/>
      <point x="622" y="914"/>
      <point x="610" y="916"/>
      <point x="603" y="916" type="curve" smooth="yes"/>
      <point x="508" y="917" type="line"/>
      <point x="416" y="917" type="line"/>
      <point x="329" y="916" type="line" smooth="yes"/>
      <point x="321" y="915"/>
      <point x="309" y="914"/>
      <point x="301" y="912" type="curve" smooth="yes"/>
      <point x="212" y="888" type="line" smooth="yes"/>
      <point x="193" y="883"/>
      <point x="167" y="867"/>
      <point x="154" y="852" type="curve" smooth="yes"/>
      <point x="93" y="784" type="line" smooth="yes"/>
      <point x="80" y="770"/>
      <point x="68" y="742"/>
      <point x="65" y="723" type="curve" smooth="yes"/>
      <point x="51" y="629" type="line" smooth="yes"/>
      <point x="51" y="625"/>
      <point x="50" y="617"/>
      <point x="50" y="612" type="curve" smooth="yes"/>
      <point x="50" y="519" type="line"/>
      <point x="50" y="249" type="line"/>
      <point x="51" y="163" type="line" smooth="yes"/>
      <point x="52" y="155"/>
      <point x="53" y="142"/>
      <point x="55" y="134" type="curve" smooth="yes"/>
      <point x="79" y="45" type="line" smooth="yes"/>
      <point x="84" y="26"/>
      <point x="99" y="1"/>
      <point x="114" y="-12" type="curve" smooth="yes"/>
      <point x="181" y="-74" type="line" smooth="yes"/>
      <point x="196" y="-87"/>
      <point x="223" y="-100"/>
      <point x="242" y="-103" type="curve" smooth="yes"/>
      <point x="336" y="-118" type="line" smooth="yes"/>
      <point x="341" y="-118"/>
      <point x="349" y="-119"/>
      <point x="354" y="-119" type="curve" smooth="yes"/>
      <point x="448" y="-119" type="line" smooth="yes"/>
    </contour>
  </outline>
</glyph>
<glyph name="r" format="1">
  <advance width="863"/>
  <unicode hex="0072"/>
  <outline>
    <contour>
      <point x="131" y="-85" type="curve" smooth="yes"/>
      <point x="175" y="-85"/>
      <point x="212" y="-48"/>
      <point x="212" y="-4" type="curve" smooth="yes"/>
      <point x="212" y="386" type="line"/>
      <point x="212" y="532" type="line"/>
      <point x="218" y="649" type="line"/>
      <point x="283" y="708" type="line"/>
      <point x="399" y="715" type="line"/>
      <point x="535" y="715" type="line"/>
      <point x="618" y="688" type="line"/>
      <point x="651" y="602" type="line"/>
      <point x="651" y="484" type="line"/>
      <point x="615" y="401" type="line"/>
      <point x="512" y="375" type="line" smooth="yes"/>
      <point x="501" y="372"/>
      <point x="491" y="366"/>
      <point x="482" y="359" type="curve"/>
      <point x="468" y="369"/>
      <point x="447" y="377"/>
      <point x="432" y="377" type="curve" smooth="yes"/>
      <point x="331" y="377" type="line" smooth="yes"/>
      <point x="287" y="377"/>
      <point x="250" y="340"/>
      <point x="250" y="296" type="curve" smooth="yes"/>
      <point x="250" y="252"/>
      <point x="287" y="215"/>
      <point x="331" y="215" type="curve" smooth="yes"/>
      <point x="398" y="215" type="line"/>
      <point x="675" y="-61" type="line" smooth="yes"/>
      <point x="706" y="-92"/>
      <point x="758" y="-92"/>
      <point x="789" y="-61" type="curve" smooth="yes"/>
      <point x="820" y="-30"/>
      <point x="820" y="22"/>
      <point x="789" y="53" type="curve" smooth="yes"/>
      <point x="610" y="232" type="line"/>
      <point x="694" y="254" type="line" smooth="yes"/>
      <point x="716" y="259"/>
      <point x="740" y="280"/>
      <point x="749" y="300" type="curve" smooth="yes"/>
      <point x="806" y="436" type="line" smooth="yes"/>
      <point x="810" y="445"/>
      <point x="813" y="459"/>
      <point x="813" y="468" type="curve" smooth="yes"/>
      <point x="813" y="617" type="line" smooth="yes"/>
      <point x="813" y="625"/>
      <point x="811" y="638"/>
      <point x="808" y="645" type="curve" smooth="yes"/>
      <point x="756" y="782" type="line" smooth="yes"/>
      <point x="748" y="803"/>
      <point x="725" y="824"/>
      <point x="704" y="831" type="curve" smooth="yes"/>
      <point x="572" y="873" type="line" smooth="yes"/>
      <point x="566" y="875"/>
      <point x="555" y="877"/>
      <point x="548" y="877" type="curve" smooth="yes"/>
      <point x="400" y="877" type="line"/>
      <point x="246" y="869" type="line" smooth="yes"/>
      <point x="230" y="868"/>
      <point x="208" y="858"/>
      <point x="196" y="848" type="curve" smooth="yes"/>
      <point x="85" y="747" type="line" smooth="yes"/>
      <point x="71" y="735"/>
      <point x="59" y="710"/>
      <point x="58" y="691" type="curve" smooth="yes"/>
      <point x="50" y="540" type="line"/>
      <point x="50" y="386" type="line"/>
      <point x="50" y="-4" type="line" smooth="yes"/>
      <point x="50" y="-48"/>
      <point x="87" y="-85"/>
    </contour>
  </outline>
</glyph>
<glyph name="s" format="1">
  <advance width="963"/>
  <unicode hex="0073"/>
  <outline>
    <contour>
      <point x="537" y="-37" type="curve" smooth="yes"/>
      <point x="667" y="363" type="line" smooth="yes"/>
      <point x="674" y="385"/>
      <point x="675" y="421"/>
      <point x="668" y="443" type="curve" smooth="yes"/>
      <point x="641" y="531" type="line"/>
      <point x="718" y="488" type="line" smooth="yes"/>
      <point x="781" y="454"/>
      <point x="863" y="478"/>
      <point x="898" y="540" type="curve" smooth="yes"/>
      <point x="932" y="603"/>
      <point x="908" y="685"/>
      <point x="846" y="720" type="curve" smooth="yes"/>
      <point x="483" y="920" type="line" smooth="yes"/>
      <point x="370" y="982"/>
      <point x="255" y="889"/>
      <point x="293" y="765" type="curve" smooth="yes"/>
      <point x="403" y="405" type="line"/>
      <point x="347" y="234" type="line"/>
      <point x="268" y="304" type="line" smooth="yes"/>
      <point x="214" y="350"/>
      <point x="128" y="344"/>
      <point x="81" y="291" type="curve" smooth="yes"/>
      <point x="35" y="237"/>
      <point x="41" y="151"/>
      <point x="94" y="104" type="curve" smooth="yes"/>
      <point x="325" y="-96" type="line" smooth="yes"/>
      <point x="401" y="-162"/>
      <point x="505" y="-134"/>
    </contour>
  </outline>
</glyph>
<glyph name="t" format="1">
  <advance width="695"/>
  <unicode hex="0074"/>
  <outline>
    <contour>
      <point x="497" y="-148" type="curve" smooth="yes"/>
      <point x="577" y="-148"/>
      <point x="645" y="-80"/>
      <point x="645" y="0" type="curve" smooth="yes"/>
      <point x="645" y="500" type="line" smooth="yes"/>
      <point x="645" y="534"/>
      <point x="626" y="581"/>
      <point x="602" y="605" type="curve" smooth="yes"/>
      <point x="302" y="905" type="line" smooth="yes"/>
      <point x="245" y="961"/>
      <point x="149" y="961"/>
      <point x="92" y="905" type="curve" smooth="yes"/>
      <point x="36" y="848"/>
      <point x="36" y="752"/>
      <point x="92" y="695" type="curve" smooth="yes"/>
      <point x="349" y="439" type="line"/>
      <point x="349" y="0" type="line" smooth="yes"/>
      <point x="349" y="-80"/>
      <point x="417" y="-148"/>
    </contour>
  </outline>
</glyph>
<glyph name="u" format="1">
  <advance width="997"/>
  <unicode hex="0075"/>
  <outline>
    <contour>
      <point x="654" y="-117" type="curve" smooth="yes"/>
      <point x="892" y="77" type="line" smooth="yes"/>
      <point x="922" y="101"/>
      <point x="947" y="153"/>
      <point x="947" y="192" type="curve" smooth="yes"/>
      <point x="947" y="499" type="line"/>
      <point x="947" y="799" type="line" smooth="yes"/>
      <point x="947" y="879"/>
      <point x="878" y="948"/>
      <point x="798" y="948" type="curve" smooth="yes"/>
      <point x="718" y="948"/>
      <point x="649" y="879"/>
      <point x="649" y="799" type="curve" smooth="yes"/>
      <point x="649" y="499" type="line"/>
      <point x="649" y="263" type="line"/>
      <point x="515" y="154" type="line"/>
      <point x="383" y="170" type="line"/>
      <point x="348" y="344" type="line"/>
      <point x="348" y="799" type="line" smooth="yes"/>
      <point x="348" y="879"/>
      <point x="279" y="948"/>
      <point x="199" y="948" type="curve" smooth="yes"/>
      <point x="119" y="948"/>
      <point x="50" y="879"/>
      <point x="50" y="799" type="curve" smooth="yes"/>
      <point x="50" y="329" type="line" smooth="yes"/>
      <point x="50" y="321"/>
      <point x="51" y="307"/>
      <point x="53" y="299" type="curve" smooth="yes"/>
      <point x="113" y="5" type="line" smooth="yes"/>
      <point x="125" y="-53"/>
      <point x="182" y="-106"/>
      <point x="241" y="-113" type="curve" smooth="yes"/>
      <point x="542" y="-149" type="line" smooth="yes"/>
      <point x="577" y="-153"/>
      <point x="627" y="-139"/>
    </contour>
  </outline>
</glyph>
<glyph name="v" format="1">
  <advance width="942"/>
  <unicode hex="0076"/>
  <outline>
    <contour>
      <point x="421" y="-121" type="curve" smooth="yes"/>
      <point x="574" y="-121" type="line" smooth="yes"/>
      <point x="578" y="-121"/>
      <point x="584" y="-121"/>
      <point x="587" y="-120" type="curve" smooth="yes"/>
      <point x="665" y="-112" type="line" smooth="yes"/>
      <point x="676" y="-110"/>
      <point x="694" y="-105"/>
      <point x="704" y="-100" type="curve" smooth="yes"/>
      <point x="774" y="-66" type="line" smooth="yes"/>
      <point x="792" y="-58"/>
      <point x="814" y="-37"/>
      <point x="824" y="-21" type="curve" smooth="yes"/>
      <point x="865" y="45" type="line" smooth="yes"/>
      <point x="873" y="58"/>
      <point x="881" y="80"/>
      <point x="882" y="95" type="curve" smooth="yes"/>
      <point x="891" y="173" type="line" smooth="yes"/>
      <point x="892" y="176"/>
      <point x="892" y="183"/>
      <point x="892" y="186" type="curve" smooth="yes"/>
      <point x="892" y="260" type="line"/>
      <point x="892" y="740" type="line"/>
      <point x="892" y="800" type="line" smooth="yes"/>
      <point x="892" y="865"/>
      <point x="836" y="921"/>
      <point x="771" y="921" type="curve" smooth="yes"/>
      <point x="706" y="921"/>
      <point x="650" y="865"/>
      <point x="650" y="800" type="curve" smooth="yes"/>
      <point x="650" y="260" type="line"/>
      <point x="650" y="193" type="line"/>
      <point x="645" y="149" type="line"/>
      <point x="637" y="136" type="line"/>
      <point x="617" y="127" type="line"/>
      <point x="567" y="121" type="line"/>
      <point x="474" y="121" type="line"/>
      <point x="468" y="144" type="line" smooth="yes"/>
      <point x="464" y="159"/>
      <point x="453" y="179"/>
      <point x="444" y="190" type="curve" smooth="yes"/>
      <point x="394" y="250" type="line" smooth="yes"/>
      <point x="382" y="264"/>
      <point x="358" y="281"/>
      <point x="341" y="287" type="curve" smooth="yes"/>
      <point x="292" y="304" type="line"/>
      <point x="292" y="800" type="line" smooth="yes"/>
      <point x="292" y="865"/>
      <point x="236" y="921"/>
      <point x="171" y="921" type="curve" smooth="yes"/>
      <point x="106" y="921"/>
      <point x="50" y="865"/>
      <point x="50" y="800" type="curve" smooth="yes"/>
      <point x="50" y="240" type="line"/>
      <point x="50" y="206"/>
      <point x="72" y="162"/>
      <point x="100" y="142" type="curve" smooth="yes"/>
      <point x="159" y="99" type="line" smooth="yes"/>
      <point x="167" y="93"/>
      <point x="181" y="86"/>
      <point x="191" y="83" type="curve" smooth="yes"/>
      <point x="230" y="69" type="line"/>
      <point x="241" y="56" type="line"/>
      <point x="251" y="18" type="line" smooth="yes"/>
      <point x="256" y="0"/>
      <point x="271" y="-26"/>
      <point x="285" y="-39" type="curve" smooth="yes"/>
      <point x="338" y="-88" type="line" smooth="yes"/>
      <point x="358" y="-106"/>
      <point x="395" y="-121"/>
    </contour>
  </outline>
</glyph>
<glyph name="w" format="1">
  <advance width="852"/>
  <unicode hex="0077"/>
  <outline>
    <contour>
      <point x="741" y="-12" type="curve" smooth="yes"/>
      <point x="801" y="348" type="line" smooth="yes"/>
      <point x="802" y="351"/>
      <point x="802" y="357"/>
      <point x="802" y="360" type="curve" smooth="yes"/>
      <point x="802" y="800" type="line" smooth="yes"/>
      <point x="802" y="841"/>
      <point x="767" y="876"/>
      <point x="726" y="876" type="curve" smooth="yes"/>
      <point x="685" y="876"/>
      <point x="650" y="841"/>
      <point x="650" y="800" type="curve" smooth="yes"/>
      <point x="650" y="366" type="line"/>
      <point x="617" y="171" type="line"/>
      <point x="479" y="330" type="line" smooth="yes"/>
      <point x="453" y="359"/>
      <point x="407" y="364"/>
      <point x="376" y="341" type="curve" smooth="yes"/>
      <point x="202" y="211" type="line"/>
      <point x="202" y="800" type="line" smooth="yes"/>
      <point x="202" y="841"/>
      <point x="167" y="876"/>
      <point x="126" y="876" type="curve" smooth="yes"/>
      <point x="85" y="876"/>
      <point x="50" y="841"/>
      <point x="50" y="800" type="curve" smooth="yes"/>
      <point x="50" y="60" type="line"/>
      <point x="50" y="-8"/>
      <point x="117" y="-42"/>
      <point x="171" y="-1" type="curve" smooth="yes"/>
      <point x="411" y="177" type="line"/>
      <point x="609" y="-50" type="line" smooth="yes"/>
      <point x="655" y="-103"/>
      <point x="729" y="-82"/>
    </contour>
  </outline>
</glyph>
<glyph name="x" format="1">
  <advance width="938"/>
  <unicode hex="0078"/>
  <outline>
    <contour>
      <point x="769" y="-119" type="curve" smooth="yes"/>
      <point x="833" y="-119"/>
      <point x="888" y="-64"/>
      <point x="888" y="0" type="curve" smooth="yes"/>
      <point x="888" y="150" type="line"/>
      <point x="875" y="309" type="line" smooth="yes"/>
      <point x="873" y="338"/>
      <point x="852" y="376"/>
      <point x="829" y="394" type="curve" smooth="yes"/>
      <point x="796" y="419" type="line"/>
      <point x="864" y="507" type="line" smooth="yes"/>
      <point x="877" y="525"/>
      <point x="888" y="557"/>
      <point x="888" y="579" type="curve" smooth="yes"/>
      <point x="888" y="800" type="line" smooth="yes"/>
      <point x="888" y="864"/>
      <point x="833" y="919"/>
      <point x="769" y="919" type="curve" smooth="yes"/>
      <point x="705" y="919"/>
      <point x="650" y="864"/>
      <point x="650" y="800" type="curve" smooth="yes"/>
      <point x="650" y="620" type="line"/>
      <point x="576" y="523" type="line"/>
      <point x="434" y="519" type="line"/>
      <point x="365" y="520" type="line"/>
      <point x="303" y="550" type="line"/>
      <point x="288" y="631" type="line"/>
      <point x="288" y="800" type="line" smooth="yes"/>
      <point x="288" y="864"/>
      <point x="233" y="919"/>
      <point x="169" y="919" type="curve" smooth="yes"/>
      <point x="105" y="919"/>
      <point x="50" y="864"/>
      <point x="50" y="800" type="curve" smooth="yes"/>
      <point x="50" y="620" type="line" smooth="yes"/>
      <point x="50" y="614"/>
      <point x="51" y="604"/>
      <point x="52" y="599" type="curve" smooth="yes"/>
      <point x="80" y="448" type="line" smooth="yes"/>
      <point x="82" y="433"/>
      <point x="91" y="416"/>
      <point x="101" y="401" type="curve"/>
      <point x="94" y="389"/>
      <point x="89" y="376"/>
      <point x="87" y="364" type="curve" smooth="yes"/>
      <point x="52" y="150" type="line" smooth="yes"/>
      <point x="51" y="144"/>
      <point x="50" y="135"/>
      <point x="50" y="130" type="curve" smooth="yes"/>
      <point x="50" y="0" type="line" smooth="yes"/>
      <point x="50" y="-64"/>
      <point x="105" y="-119"/>
      <point x="169" y="-119" type="curve" smooth="yes"/>
      <point x="233" y="-119"/>
      <point x="288" y="-64"/>
      <point x="288" y="0" type="curve" smooth="yes"/>
      <point x="288" y="120" type="line"/>
      <point x="309" y="249" type="line"/>
      <point x="435" y="281" type="line"/>
      <point x="437" y="281" type="line"/>
      <point x="475" y="281" type="line"/>
      <point x="590" y="277" type="line"/>
      <point x="643" y="237" type="line"/>
      <point x="650" y="150" type="line"/>
      <point x="650" y="0" type="line" smooth="yes"/>
      <point x="650" y="-64"/>
      <point x="705" y="-119"/>
    </contour>
  </outline>
</glyph>
<glyph name="y" format="1">
  <advance width="908"/>
  <unicode hex="0079"/>
  <outline>
    <contour>
      <point x="413" y="-104" type="line" smooth="yes"/>
      <point x="420" y="-104"/>
      <point x="431" y="-103"/>
      <point x="438" y="-101" type="curve" smooth="yes"/>
      <point x="754" y="-24" type="line" smooth="yes"/>
      <point x="794" y="-14"/>
      <point x="829" y="28"/>
      <point x="833" y="69" type="curve" smooth="yes"/>
      <point x="858" y="392" type="line" smooth="yes"/>
      <point x="858" y="394"/>
      <point x="858" y="398"/>
      <point x="858" y="401" type="curve" smooth="yes"/>
      <point x="855" y="719" type="line" smooth="yes"/>
      <point x="854" y="854"/>
      <point x="655" y="859"/>
      <point x="647" y="724" type="curve" smooth="yes"/>
      <point x="634" y="473" type="line"/>
      <point x="442" y="412" type="line"/>
      <point x="258" y="533" type="line"/>
      <point x="258" y="798" type="line" smooth="yes"/>
      <point x="258" y="854"/>
      <point x="210" y="902"/>
      <point x="154" y="902" type="curve" smooth="yes"/>
      <point x="98" y="902"/>
      <point x="50" y="854"/>
      <point x="50" y="798" type="curve" smooth="yes"/>
      <point x="50" y="477" type="line" smooth="yes"/>
      <point x="50" y="446"/>
      <point x="71" y="408"/>
      <point x="97" y="390" type="curve" smooth="yes"/>
      <point x="369" y="211" type="line" smooth="yes"/>
      <point x="392" y="196"/>
      <point x="432" y="191"/>
      <point x="458" y="199" type="curve" smooth="yes"/>
      <point x="639" y="256" type="line"/>
      <point x="631" y="160" type="line"/>
      <point x="401" y="104" type="line"/>
      <point x="154" y="105" type="line" smooth="yes"/>
      <point x="98" y="105"/>
      <point x="50" y="58"/>
      <point x="50" y="1" type="curve" smooth="yes"/>
      <point x="50" y="-55"/>
      <point x="97" y="-103"/>
      <point x="154" y="-103" type="curve" smooth="yes"/>
    </contour>
  </outline>
</glyph>
<glyph name="z" format="1">
  <advance width="796"/>
  <unicode hex="007A"/>
  <outline>
    <contour>
      <point x="548" y="-48" type="line" smooth="yes"/>
      <point x="698" y="-48" type="line" smooth="yes"/>
      <point x="724" y="-48"/>
      <point x="746" y="-26"/>
      <point x="746" y="0" type="curve" smooth="yes"/>
      <point x="746" y="26"/>
      <point x="724" y="48"/>
      <point x="698" y="48" type="curve" smooth="yes"/>
      <point x="548" y="48" type="line"/>
      <point x="307" y="48" type="line"/>
      <point x="205" y="214" type="line"/>
      <point x="383" y="332" type="line"/>
      <point x="600" y="477" type="line" smooth="yes"/>
      <point x="609" y="483"/>
      <point x="618" y="497"/>
      <point x="620" y="508" type="curve" smooth="yes"/>
      <point x="669" y="766" type="line" smooth="yes"/>
      <point x="674" y="795"/>
      <point x="655" y="820"/>
      <point x="626" y="823" type="curve" smooth="yes"/>
      <point x="363" y="848" type="line" smooth="yes"/>
      <point x="361" y="848"/>
      <point x="359" y="848"/>
      <point x="358" y="848" type="curve" smooth="yes"/>
      <point x="98" y="848" type="line" smooth="yes"/>
      <point x="72" y="848"/>
      <point x="50" y="826"/>
      <point x="50" y="800" type="curve" smooth="yes"/>
      <point x="50" y="774"/>
      <point x="72" y="752"/>
      <point x="98" y="752" type="curve" smooth="yes"/>
      <point x="356" y="752" type="line"/>
      <point x="565" y="732" type="line"/>
      <point x="530" y="545" type="line"/>
      <point x="330" y="412" type="line"/>
      <point x="113" y="268" type="line" smooth="yes"/>
      <point x="92" y="254"/>
      <point x="85" y="224"/>
      <point x="99" y="203" type="curve" smooth="yes"/>
      <point x="239" y="-25" type="line" smooth="yes"/>
      <point x="247" y="-37"/>
      <point x="265" y="-48"/>
      <point x="280" y="-48" type="curve" smooth="yes"/>
      <point x="548" y="-48" type="line" smooth="yes"/>
    </contour>
  </outline>
</glyph>
<glyph name="braceleft" format="1">
  <advance width="509"/>
  <unicode hex="007B"/>
  <outline>
    <contour>
      <point x="456" y="-20" type="curve" smooth="yes"/>
      <point x="466" y="6"/>
      <point x="451" y="37"/>
      <point x="425" y="47" type="curve" smooth="yes"/>
      <point x="167" y="143" type="line"/>
      <point x="155" y="500" type="line"/>
      <point x="442" y="759" type="line" smooth="yes"/>
      <point x="463" y="778"/>
      <point x="464" y="812"/>
      <point x="446" y="833" type="curve" smooth="yes"/>
      <point x="427" y="854"/>
      <point x="393" y="855"/>
      <point x="372" y="837" type="curve" smooth="yes"/>
      <point x="67" y="561" type="line" smooth="yes"/>
      <point x="57" y="552"/>
      <point x="49" y="534"/>
      <point x="50" y="521" type="curve" smooth="yes"/>
      <point x="64" y="105" type="line" smooth="yes"/>
      <point x="65" y="86"/>
      <point x="80" y="65"/>
      <point x="98" y="58" type="curve" smooth="yes"/>
      <point x="389" y="-51" type="line" smooth="yes"/>
      <point x="415" y="-61"/>
      <point x="446" y="-46"/>
    </contour>
  </outline>
</glyph>
<glyph name="bar" format="1">
  <advance width="228"/>
  <unicode hex="007C"/>
  <outline>
    <contour>
      <point x="114" y="-63" type="curve" smooth="yes"/>
      <point x="149" y="-63"/>
      <point x="178" y="-34"/>
      <point x="178" y="1" type="curve" smooth="yes"/>
      <point x="178" y="801" type="line" smooth="yes"/>
      <point x="178" y="836"/>
      <point x="149" y="865"/>
      <point x="114" y="865" type="curve" smooth="yes"/>
      <point x="79" y="865"/>
      <point x="50" y="836"/>
      <point x="50" y="801" type="curve" smooth="yes"/>
      <point x="50" y="1" type="line" smooth="yes"/>
      <point x="50" y="-34"/>
      <point x="79" y="-63"/>
    </contour>
  </outline>
</glyph>
<glyph name="braceright" format="1">
  <advance width="567"/>
  <unicode hex="007D"/>
  <outline>
    <contour>
      <point x="128" y="-77" type="curve" smooth="yes"/>
      <point x="293" y="-72" type="line" smooth="yes"/>
      <point x="316" y="-71"/>
      <point x="344" y="-55"/>
      <point x="356" y="-35" type="curve" smooth="yes"/>
      <point x="491" y="188" type="line" smooth="yes"/>
      <point x="497" y="197"/>
      <point x="502" y="212"/>
      <point x="502" y="223" type="curve" smooth="yes"/>
      <point x="517" y="487" type="line" smooth="yes"/>
      <point x="517" y="493"/>
      <point x="516" y="503"/>
      <point x="515" y="508" type="curve" smooth="yes"/>
      <point x="456" y="767" type="line" smooth="yes"/>
      <point x="450" y="794"/>
      <point x="424" y="820"/>
      <point x="397" y="825" type="curve" smooth="yes"/>
      <point x="140" y="874" type="line" smooth="yes"/>
      <point x="100" y="881"/>
      <point x="59" y="853"/>
      <point x="51" y="813" type="curve" smooth="yes"/>
      <point x="44" y="773"/>
      <point x="72" y="732"/>
      <point x="112" y="724" type="curve" smooth="yes"/>
      <point x="319" y="685" type="line"/>
      <point x="364" y="485" type="line"/>
      <point x="351" y="250" type="line"/>
      <point x="247" y="79" type="line"/>
      <point x="124" y="75" type="line" smooth="yes"/>
      <point x="83" y="74"/>
      <point x="49" y="38"/>
      <point x="50" y="-3" type="curve" smooth="yes"/>
      <point x="51" y="-44"/>
      <point x="87" y="-78"/>
    </contour>
  </outline>
</glyph>
<glyph name="asciitilde" format="1">
  <advance width="883"/>
  <unicode hex="007E"/>
  <outline>
    <contour>
      <point x="143" y="11" type="curve" smooth="yes"/>
      <point x="593" y="14" type="line" smooth="yes"/>
      <point x="618" y="14"/>
      <point x="650" y="30"/>
      <point x="665" y="50" type="curve" smooth="yes"/>
      <point x="815" y="247" type="line" smooth="yes"/>
      <point x="845" y="287"/>
      <point x="837" y="346"/>
      <point x="798" y="376" type="curve" smooth="yes"/>
      <point x="758" y="406"/>
      <point x="699" y="398"/>
      <point x="669" y="359" type="curve" smooth="yes"/>
      <point x="546" y="198" type="line"/>
      <point x="141" y="195" type="line" smooth="yes"/>
      <point x="92" y="195"/>
      <point x="50" y="152"/>
      <point x="50" y="102" type="curve" smooth="yes"/>
      <point x="50" y="53"/>
      <point x="93" y="11"/>
    </contour>
  </outline>
</glyph>
<glyph name="cent" format="1">
  <advance width="794"/>
  <unicode hex="00A2"/>
  <outline>
    <contour>
      <point x="495" y="-249" type="curve" smooth="yes"/>
      <point x="561" y="-249"/>
      <point x="619" y="-203"/>
      <point x="638" y="-142" type="curve"/>
      <point x="698" y="-124"/>
      <point x="744" y="-66"/>
      <point x="744" y="0" type="curve" smooth="yes"/>
      <point x="744" y="80"/>
      <point x="675" y="149"/>
      <point x="595" y="149" type="curve" smooth="yes"/>
      <point x="495" y="149" type="line"/>
      <point x="378" y="165" type="line"/>
      <point x="367" y="201" type="line"/>
      <point x="424" y="251" type="line"/>
      <point x="595" y="251" type="line" smooth="yes"/>
      <point x="676" y="251"/>
      <point x="744" y="320"/>
      <point x="744" y="400" type="curve" smooth="yes"/>
      <point x="744" y="466"/>
      <point x="698" y="524"/>
      <point x="637" y="542" type="curve"/>
      <point x="619" y="603"/>
      <point x="561" y="649"/>
      <point x="495" y="649" type="curve" smooth="yes"/>
      <point x="431" y="649"/>
      <point x="375" y="606"/>
      <point x="354" y="548" type="curve"/>
      <point x="325" y="544"/>
      <point x="289" y="529"/>
      <point x="268" y="511" type="curve" smooth="yes"/>
      <point x="99" y="362" type="line" smooth="yes"/>
      <point x="60" y="327"/>
      <point x="40" y="259"/>
      <point x="55" y="209" type="curve" smooth="yes"/>
      <point x="119" y="-11" type="line" smooth="yes"/>
      <point x="134" y="-63"/>
      <point x="189" y="-110"/>
      <point x="242" y="-117" type="curve" smooth="yes"/>
      <point x="350" y="-132" type="line"/>
      <point x="365" y="-198"/>
      <point x="425" y="-249"/>
    </contour>
  </outline>
</glyph>
<glyph name="sterling" format="1">
  <advance width="640"/>
  <unicode hex="00A3"/>
  <outline>
    <contour>
      <point x="267" y="-94" type="curve" smooth="yes"/>
      <point x="495" y="-94" type="line" smooth="yes"/>
      <point x="546" y="-94"/>
      <point x="590" y="-50"/>
      <point x="590" y="1" type="curve" smooth="yes"/>
      <point x="590" y="52"/>
      <point x="546" y="96"/>
      <point x="495" y="96" type="curve" smooth="yes"/>
      <point x="374" y="96" type="line"/>
      <point x="389" y="224" type="line" smooth="yes"/>
      <point x="390" y="227"/>
      <point x="390" y="232"/>
      <point x="390" y="236" type="curve" smooth="yes"/>
      <point x="390" y="306" type="line"/>
      <point x="445" y="306" type="line" smooth="yes"/>
      <point x="496" y="306"/>
      <point x="540" y="350"/>
      <point x="540" y="401" type="curve" smooth="yes"/>
      <point x="540" y="452"/>
      <point x="496" y="496"/>
      <point x="445" y="496" type="curve" smooth="yes"/>
      <point x="392" y="496" type="line"/>
      <point x="399" y="636" type="line"/>
      <point x="543" y="719" type="line" smooth="yes"/>
      <point x="587" y="744"/>
      <point x="603" y="804"/>
      <point x="577" y="849" type="curve" smooth="yes"/>
      <point x="552" y="893"/>
      <point x="492" y="909"/>
      <point x="447" y="883" type="curve" smooth="yes"/>
      <point x="259" y="774" type="line" smooth="yes"/>
      <point x="234" y="760"/>
      <point x="213" y="726"/>
      <point x="212" y="697" type="curve" smooth="yes"/>
      <point x="202" y="496" type="line"/>
      <point x="145" y="496" type="line" smooth="yes"/>
      <point x="94" y="496"/>
      <point x="50" y="452"/>
      <point x="50" y="401" type="curve" smooth="yes"/>
      <point x="50" y="350"/>
      <point x="94" y="306"/>
      <point x="145" y="306" type="curve" smooth="yes"/>
      <point x="200" y="306" type="line"/>
      <point x="200" y="241" type="line"/>
      <point x="172" y="12" type="line" smooth="yes"/>
      <point x="165" y="-46"/>
      <point x="208" y="-94"/>
    </contour>
  </outline>
</glyph>
<glyph name="section" format="1">
  <advance width="811"/>
  <unicode hex="00A7"/>
  <outline>
    <contour>
      <point x="598" y="276" type="line"/>
      <point x="426" y="352" type="line"/>
      <point x="335" y="469" type="line"/>
      <point x="593" y="382" type="line"/>
      <point x="631" y="325" type="line"/>
    </contour>
    <contour>
      <point x="432" y="-45" type="curve" smooth="yes"/>
      <point x="730" y="120" type="line" smooth="yes"/>
      <point x="774" y="144"/>
      <point x="771" y="199"/>
      <point x="726" y="219" type="curve" smooth="yes"/>
      <point x="700" y="230" type="line"/>
      <point x="743" y="295" type="line" smooth="yes"/>
      <point x="754" y="312"/>
      <point x="754" y="339"/>
      <point x="743" y="355" type="curve" smooth="yes"/>
      <point x="675" y="459" type="line" smooth="yes"/>
      <point x="669" y="467"/>
      <point x="656" y="477"/>
      <point x="646" y="481" type="curve" smooth="yes"/>
      <point x="211" y="626" type="line"/>
      <point x="182" y="686" type="line"/>
      <point x="225" y="736" type="line"/>
      <point x="318" y="748" type="line"/>
      <point x="434" y="748" type="line"/>
      <point x="542" y="745" type="line"/>
      <point x="623" y="708" type="line"/>
      <point x="650" y="622" type="line"/>
      <point x="650" y="602" type="line" smooth="yes"/>
      <point x="650" y="573"/>
      <point x="676" y="548"/>
      <point x="706" y="548" type="curve" smooth="yes"/>
      <point x="735" y="548"/>
      <point x="760" y="574"/>
      <point x="760" y="604" type="curve" smooth="yes"/>
      <point x="760" y="632" type="line" smooth="yes"/>
      <point x="760" y="636"/>
      <point x="759" y="643"/>
      <point x="757" y="648" type="curve" smooth="yes"/>
      <point x="720" y="764" type="line" smooth="yes"/>
      <point x="716" y="777"/>
      <point x="703" y="792"/>
      <point x="691" y="797" type="curve" smooth="yes"/>
      <point x="578" y="850" type="line" smooth="yes"/>
      <point x="573" y="852"/>
      <point x="563" y="855"/>
      <point x="557" y="855" type="curve" smooth="yes"/>
      <point x="436" y="858" type="line" smooth="yes"/>
      <point x="436" y="858"/>
      <point x="435" y="858"/>
      <point x="435" y="858" type="curve" smooth="yes"/>
      <point x="315" y="858" type="line" smooth="yes"/>
      <point x="313" y="858"/>
      <point x="310" y="858"/>
      <point x="308" y="858" type="curve" smooth="yes"/>
      <point x="191" y="843" type="line" smooth="yes"/>
      <point x="179" y="841"/>
      <point x="164" y="833"/>
      <point x="156" y="824" type="curve" smooth="yes"/>
      <point x="75" y="730" type="line" smooth="yes"/>
      <point x="62" y="715"/>
      <point x="58" y="688"/>
      <point x="67" y="670" type="curve" smooth="yes"/>
      <point x="122" y="557" type="line" smooth="yes"/>
      <point x="126" y="549"/>
      <point x="134" y="540"/>
      <point x="143" y="534" type="curve"/>
      <point x="347" y="274" type="line" smooth="yes"/>
      <point x="352" y="268"/>
      <point x="361" y="261"/>
      <point x="368" y="258" type="curve" smooth="yes"/>
      <point x="580" y="163" type="line"/>
      <point x="405" y="66" type="line"/>
      <point x="160" y="207" type="line"/>
      <point x="157" y="236"/>
      <point x="133" y="258"/>
      <point x="104" y="258" type="curve" smooth="yes"/>
      <point x="75" y="258"/>
      <point x="50" y="232"/>
      <point x="50" y="202" type="curve" smooth="yes"/>
      <point x="50" y="174" type="line" smooth="yes"/>
      <point x="50" y="157"/>
      <point x="63" y="136"/>
      <point x="78" y="127" type="curve" smooth="yes"/>
      <point x="378" y="-45" type="line" smooth="yes"/>
      <point x="392" y="-53"/>
      <point x="417" y="-53"/>
    </contour>
  </outline>
</glyph>
<glyph name="guillemotleft" format="1">
  <advance width="435"/>
  <unicode hex="00AB"/>
  <outline>
    <contour>
      <point x="328" y="454" type="curve" smooth="yes"/>
      <point x="297" y="454"/>
      <point x="271" y="428"/>
      <point x="271" y="397" type="curve" smooth="yes"/>
      <point x="271" y="-3" type="line" smooth="yes"/>
      <point x="271" y="-34"/>
      <point x="297" y="-60"/>
      <point x="328" y="-60" type="curve" smooth="yes"/>
      <point x="359" y="-60"/>
      <point x="385" y="-34"/>
      <point x="385" y="-3" type="curve" smooth="yes"/>
      <point x="385" y="397" type="line" smooth="yes"/>
      <point x="385" y="428"/>
      <point x="359" y="454"/>
    </contour>
    <contour>
      <point x="168" y="-43" type="curve" smooth="yes"/>
      <point x="190" y="-22"/>
      <point x="190" y="16"/>
      <point x="168" y="37" type="curve" smooth="yes"/>
      <point x="165" y="41" type="line"/>
      <point x="185" y="394" type="line" smooth="yes"/>
      <point x="187" y="425"/>
      <point x="162" y="452"/>
      <point x="131" y="454" type="curve" smooth="yes"/>
      <point x="100" y="456"/>
      <point x="73" y="431"/>
      <point x="71" y="400" type="curve" smooth="yes"/>
      <point x="50" y="22" type="line" smooth="yes"/>
      <point x="49" y="8"/>
      <point x="56" y="-12"/>
      <point x="66" y="-22" type="curve" smooth="yes"/>
      <point x="88" y="-43" type="line" smooth="yes"/>
      <point x="109" y="-65"/>
      <point x="147" y="-65"/>
    </contour>
  </outline>
</glyph>
<glyph name="degree" format="1">
  <advance width="374"/>
  <unicode hex="00B0"/>
  <outline>
    <contour>
      <point x="187" y="376" type="curve" smooth="yes"/>
      <point x="261" y="376"/>
      <point x="324" y="439"/>
      <point x="324" y="513" type="curve" smooth="yes"/>
      <point x="324" y="523" type="line" smooth="yes"/>
      <point x="324" y="597"/>
      <point x="261" y="660"/>
      <point x="187" y="660" type="curve" smooth="yes"/>
      <point x="113" y="660"/>
      <point x="50" y="597"/>
      <point x="50" y="523" type="curve" smooth="yes"/>
      <point x="50" y="513" type="line" smooth="yes"/>
      <point x="50" y="439"/>
      <point x="113" y="376"/>
    </contour>
  </outline>
</glyph>
<glyph name="plusminus" format="1">
  <advance width="608"/>
  <unicode hex="00B1"/>
  <outline>
    <contour>
      <point x="304" y="143" type="curve" smooth="yes"/>
      <point x="333" y="143"/>
      <point x="358" y="168"/>
      <point x="358" y="197" type="curve" smooth="yes"/>
      <point x="358" y="343" type="line"/>
      <point x="504" y="343" type="line" smooth="yes"/>
      <point x="533" y="343"/>
      <point x="558" y="368"/>
      <point x="558" y="397" type="curve" smooth="yes"/>
      <point x="558" y="426"/>
      <point x="533" y="451"/>
      <point x="504" y="451" type="curve" smooth="yes"/>
      <point x="358" y="451" type="line"/>
      <point x="358" y="597" type="line" smooth="yes"/>
      <point x="358" y="626"/>
      <point x="333" y="651"/>
      <point x="304" y="651" type="curve" smooth="yes"/>
      <point x="275" y="651"/>
      <point x="250" y="626"/>
      <point x="250" y="597" type="curve" smooth="yes"/>
      <point x="250" y="451" type="line"/>
      <point x="104" y="451" type="line" smooth="yes"/>
      <point x="75" y="451"/>
      <point x="50" y="426"/>
      <point x="50" y="397" type="curve" smooth="yes"/>
      <point x="50" y="368"/>
      <point x="75" y="343"/>
      <point x="104" y="343" type="curve" smooth="yes"/>
      <point x="250" y="343" type="line"/>
      <point x="250" y="197" type="line" smooth="yes"/>
      <point x="250" y="168"/>
      <point x="275" y="143"/>
    </contour>
    <contour>
      <point x="50" y="-3" type="curve" smooth="yes"/>
      <point x="50" y="-32"/>
      <point x="75" y="-57"/>
      <point x="104" y="-57" type="curve" smooth="yes"/>
      <point x="504" y="-57" type="line" smooth="yes"/>
      <point x="533" y="-57"/>
      <point x="558" y="-32"/>
      <point x="558" y="-3" type="curve" smooth="yes"/>
      <point x="558" y="26"/>
      <point x="533" y="51"/>
      <point x="504" y="51" type="curve" smooth="yes"/>
      <point x="104" y="51" type="line" smooth="yes"/>
      <point x="75" y="51"/>
      <point x="50" y="26"/>
    </contour>
  </outline>
</glyph>
<glyph name="acute" format="1">
  <advance width="507"/>
  <unicode hex="00B4"/>
  <outline>
    <contour>
      <point x="59" y="898" type="curve" smooth="yes"/>
      <point x="75" y="874"/>
      <point x="110" y="867"/>
      <point x="134" y="883" type="curve" smooth="yes"/>
      <point x="434" y="1083" type="line" smooth="yes"/>
      <point x="458" y="1099"/>
      <point x="465" y="1134"/>
      <point x="449" y="1158" type="curve" smooth="yes"/>
      <point x="433" y="1182"/>
      <point x="398" y="1189"/>
      <point x="374" y="1173" type="curve" smooth="yes"/>
      <point x="74" y="973" type="line" smooth="yes"/>
      <point x="50" y="957"/>
      <point x="43" y="922"/>
    </contour>
  </outline>
</glyph>
<glyph name="paragraph" format="1">
  <advance width="816"/>
  <unicode hex="00B6"/>
  <outline>
    <contour>
      <point x="652" y="-114" type="curve" smooth="yes"/>
      <point x="714" y="-114"/>
      <point x="766" y="-62"/>
      <point x="766" y="0" type="curve" smooth="yes"/>
      <point x="766" y="800" type="line" smooth="yes"/>
      <point x="766" y="863"/>
      <point x="715" y="914"/>
      <point x="652" y="914" type="curve" smooth="yes"/>
      <point x="392" y="914" type="line" smooth="yes"/>
      <point x="378" y="914"/>
      <point x="356" y="909"/>
      <point x="343" y="903" type="curve" smooth="yes"/>
      <point x="115" y="794" type="line" smooth="yes"/>
      <point x="72" y="774"/>
      <point x="43" y="719"/>
      <point x="51" y="672" type="curve" smooth="yes"/>
      <point x="95" y="418" type="line" smooth="yes"/>
      <point x="107" y="346"/>
      <point x="175" y="306"/>
      <point x="244" y="329" type="curve" smooth="yes"/>
      <point x="338" y="361" type="line"/>
      <point x="338" y="0" type="line" smooth="yes"/>
      <point x="338" y="-62"/>
      <point x="390" y="-114"/>
      <point x="452" y="-114" type="curve" smooth="yes"/>
      <point x="494" y="-114"/>
      <point x="532" y="-89"/>
      <point x="552" y="-54" type="curve"/>
      <point x="572" y="-89"/>
      <point x="610" y="-114"/>
    </contour>
    <contour>
      <point x="297" y="588" type="line"/>
      <point x="291" y="625" type="line"/>
      <point x="338" y="648" type="line"/>
      <point x="338" y="602" type="line"/>
    </contour>
  </outline>
</glyph>
<glyph name="guillemotright" format="1">
  <advance width="612"/>
  <unicode hex="00BB"/>
  <outline>
    <contour>
      <point x="406" y="-155" type="curve" smooth="yes"/>
      <point x="490" y="-155"/>
      <point x="562" y="-83"/>
      <point x="562" y="1" type="curve" smooth="yes"/>
      <point x="562" y="401" type="line" smooth="yes"/>
      <point x="562" y="485"/>
      <point x="490" y="557"/>
      <point x="406" y="557" type="curve" smooth="yes"/>
      <point x="368" y="557"/>
      <point x="333" y="543"/>
      <point x="306" y="519" type="curve"/>
      <point x="278" y="543"/>
      <point x="242" y="558"/>
      <point x="203" y="557" type="curve" smooth="yes"/>
      <point x="119" y="555"/>
      <point x="48" y="482"/>
      <point x="50" y="398" type="curve" smooth="yes"/>
      <point x="56" y="43" type="line"/>
      <point x="42" y="-10"/>
      <point x="55" y="-69"/>
      <point x="96" y="-109" type="curve" smooth="yes"/>
      <point x="152" y="-166"/>
      <point x="246" y="-169"/>
      <point x="307" y="-118" type="curve"/>
      <point x="334" y="-141"/>
      <point x="369" y="-155"/>
    </contour>
  </outline>
</glyph>
<glyph name="Agrave" format="1">
  <advance width="918"/>
  <unicode hex="00C0"/>
  <outline>
    <contour>
      <point x="759" y="-113" type="curve" smooth="yes"/>
      <point x="818" y="-113"/>
      <point x="868" y="-63"/>
      <point x="868" y="-4" type="curve" smooth="yes"/>
      <point x="868" y="346" type="line"/>
      <point x="868" y="346" type="line" smooth="yes"/>
      <point x="868" y="346" type="line"/>
      <point x="868" y="426" type="line"/>
      <point x="868" y="609" type="line" smooth="yes"/>
      <point x="868" y="624"/>
      <point x="863" y="646"/>
      <point x="856" y="659" type="curve" smooth="yes"/>
      <point x="771" y="825" type="line" smooth="yes"/>
      <point x="756" y="854"/>
      <point x="718" y="881"/>
      <point x="686" y="884" type="curve" smooth="yes"/>
      <point x="563" y="898" type="line"/>
      <point x="576" y="942"/>
      <point x="559" y="992"/>
      <point x="519" y="1019" type="curve" smooth="yes"/>
      <point x="219" y="1219" type="line" smooth="yes"/>
      <point x="170" y="1251"/>
      <point x="101" y="1237"/>
      <point x="68" y="1188" type="curve" smooth="yes"/>
      <point x="36" y="1139"/>
      <point x="50" y="1070"/>
      <point x="99" y="1037" type="curve" smooth="yes"/>
      <point x="302" y="902" type="line"/>
      <point x="284" y="902"/>
      <point x="253" y="890"/>
      <point x="237" y="877" type="curve" smooth="yes"/>
      <point x="93" y="757" type="line" smooth="yes"/>
      <point x="72" y="740"/>
      <point x="55" y="703"/>
      <point x="54" y="676" type="curve" smooth="yes"/>
      <point x="50" y="489" type="line"/>
      <point x="50" y="295" type="line"/>
      <point x="55" y="106" type="line" smooth="yes"/>
      <point x="59" y="-29"/>
      <point x="247" y="-44"/>
      <point x="271" y="89" type="curve" smooth="yes"/>
      <point x="293" y="204" type="line"/>
      <point x="396" y="237" type="line"/>
      <point x="650" y="237" type="line"/>
      <point x="650" y="52" type="line"/>
      <point x="650" y="-4" type="line" smooth="yes"/>
      <point x="650" y="-63"/>
      <point x="700" y="-113"/>
    </contour>
    <contour>
      <point x="346" y="450" type="curve" smooth="yes"/>
      <point x="268" y="425" type="line"/>
      <point x="268" y="489" type="line"/>
      <point x="271" y="622" type="line"/>
      <point x="347" y="685" type="line"/>
      <point x="484" y="687" type="line"/>
      <point x="604" y="674" type="line"/>
      <point x="650" y="583" type="line"/>
      <point x="650" y="455" type="line"/>
      <point x="379" y="455" type="line" smooth="yes"/>
      <point x="370" y="455"/>
      <point x="355" y="453"/>
    </contour>
  </outline>
</glyph>
<glyph name="Aacute" format="1">
  <advance width="872"/>
  <unicode hex="00C1"/>
  <outline>
    <contour>
      <point x="736" y="-90" type="curve" smooth="yes"/>
      <point x="782" y="-90"/>
      <point x="822" y="-50"/>
      <point x="822" y="-4" type="curve" smooth="yes"/>
      <point x="822" y="413" type="line" smooth="yes"/>
      <point x="822" y="420"/>
      <point x="820" y="431"/>
      <point x="819" y="437" type="curve" smooth="yes"/>
      <point x="711" y="808" type="line" smooth="yes"/>
      <point x="701" y="842"/>
      <point x="664" y="870"/>
      <point x="628" y="870" type="curve" smooth="yes"/>
      <point x="505" y="870" type="line"/>
      <point x="784" y="1056" type="line" smooth="yes"/>
      <point x="822" y="1082"/>
      <point x="833" y="1137"/>
      <point x="808" y="1176" type="curve" smooth="yes"/>
      <point x="782" y="1214"/>
      <point x="727" y="1225"/>
      <point x="688" y="1200" type="curve" smooth="yes"/>
      <point x="388" y="1000" type="line" smooth="yes"/>
      <point x="350" y="974"/>
      <point x="339" y="919"/>
      <point x="364" y="880" type="curve" smooth="yes"/>
      <point x="367" y="877"/>
      <point x="369" y="873"/>
      <point x="372" y="870" type="curve"/>
      <point x="243" y="871" type="line" smooth="yes"/>
      <point x="207" y="871"/>
      <point x="170" y="843"/>
      <point x="160" y="808" type="curve" smooth="yes"/>
      <point x="53" y="432" type="line" smooth="yes"/>
      <point x="51" y="426"/>
      <point x="50" y="415"/>
      <point x="50" y="409" type="curve" smooth="yes"/>
      <point x="51" y="16" type="line" smooth="yes"/>
      <point x="51" y="-76"/>
      <point x="160" y="-108"/>
      <point x="210" y="-30" type="curve" smooth="yes"/>
      <point x="393" y="260" type="line"/>
      <point x="650" y="260" type="line"/>
      <point x="650" y="-4" type="line" smooth="yes"/>
      <point x="650" y="-50"/>
      <point x="690" y="-90"/>
    </contour>
    <contour>
      <point x="273" y="392" type="curve" smooth="yes"/>
      <point x="222" y="311" type="line"/>
      <point x="222" y="397" type="line"/>
      <point x="308" y="698" type="line"/>
      <point x="564" y="698" type="line"/>
      <point x="641" y="432" type="line"/>
      <point x="346" y="432" type="line" smooth="yes"/>
      <point x="320" y="432"/>
      <point x="287" y="414"/>
    </contour>
  </outline>
</glyph>
<glyph name="Acircumflex" format="1">
  <advance width="936"/>
  <unicode hex="00C2"/>
  <outline>
    <contour>
      <point x="413" y="909" type="line"/>
      <point x="515" y="955" type="line"/>
      <point x="579" y="912" type="line"/>
    </contour>
    <contour>
      <point x="886" y="-4" type="curve" smooth="yes"/>
      <point x="886" y="511" type="line" smooth="yes"/>
      <point x="886" y="528"/>
      <point x="879" y="555"/>
      <point x="870" y="570" type="curve" smooth="yes"/>
      <point x="727" y="818" type="line"/>
      <point x="776" y="800"/>
      <point x="836" y="817"/>
      <point x="866" y="863" type="curve" smooth="yes"/>
      <point x="902" y="916"/>
      <point x="886" y="991"/>
      <point x="833" y="1026" type="curve" smooth="yes"/>
      <point x="592" y="1187" type="line" smooth="yes"/>
      <point x="562" y="1207"/>
      <point x="511" y="1212"/>
      <point x="478" y="1197" type="curve" smooth="yes"/>
      <point x="120" y="1036" type="line" smooth="yes"/>
      <point x="61" y="1009"/>
      <point x="34" y="938"/>
      <point x="60" y="880" type="curve" smooth="yes"/>
      <point x="80" y="837"/>
      <point x="124" y="811"/>
      <point x="169" y="810" type="curve"/>
      <point x="58" y="533" type="line" smooth="yes"/>
      <point x="53" y="521"/>
      <point x="50" y="500"/>
      <point x="50" y="487" type="curve" smooth="yes"/>
      <point x="57" y="161" type="line" smooth="yes"/>
      <point x="60" y="60"/>
      <point x="157" y="9"/>
      <point x="241" y="66" type="curve" smooth="yes"/>
      <point x="484" y="228" type="line"/>
      <point x="650" y="228" type="line"/>
      <point x="650" y="-4" type="line" smooth="yes"/>
      <point x="650" y="-68"/>
      <point x="704" y="-122"/>
      <point x="768" y="-122" type="curve" smooth="yes"/>
      <point x="832" y="-122"/>
      <point x="886" y="-68"/>
    </contour>
    <contour>
      <point x="382" y="444" type="curve" smooth="yes"/>
      <point x="288" y="381" type="line"/>
      <point x="287" y="468" type="line"/>
      <point x="368" y="672" type="line"/>
      <point x="536" y="675" type="line"/>
      <point x="650" y="479" type="line"/>
      <point x="650" y="464" type="line"/>
      <point x="448" y="464" type="line" smooth="yes"/>
      <point x="428" y="464"/>
      <point x="399" y="455"/>
    </contour>
  </outline>
</glyph>
